<svg width="280" height="231" viewBox="0 0 280 231" fill="none" xmlns="http://www.w3.org/2000/svg">
<g clip-path="url(#clip0_9_9016)">
<path d="M279.4 250.049C278.364 246.922 222.889 173.665 219.122 172.272C218.688 172.083 193.918 189.714 193.918 189.714C192.882 191.071 145.789 181.125 145.789 181.125L145.318 237.937L231.121 236.053C231.121 236.053 242.705 242.872 253.311 248.429C257.815 250.965 262.47 253.223 267.25 255.192C271.601 256.36 280.455 253.157 279.4 250.049Z" fill="#F7A9A0"/>
<path d="M267.306 255.248C262.521 253.292 257.865 251.033 253.367 248.486C242.762 242.835 231.177 236.11 231.177 236.11L212.076 236.524L182.145 188.283C188.719 189.451 193.597 190.167 193.936 189.715C193.936 189.715 218.707 172.064 219.14 172.272C222.908 173.666 278.364 246.903 279.418 250.049C280.473 253.195 271.601 256.36 267.306 255.248Z" fill="white"/>
<path d="M279.908 250.143C278.816 246.941 223.134 173.741 219.235 172.29C217.765 171.725 205.653 179.222 193.937 189.715L229.877 236.807C229.877 236.807 263.049 254.382 267.551 255.512C272.053 256.642 281.001 253.346 279.908 250.143Z" fill="#A6A6A6"/>
<path d="M276.179 251.311C266.534 239.275 228.804 189.809 220.195 177.169C220.195 177.056 220.195 177.019 220.195 177.169C229.991 188.886 267.288 238.672 276.292 251.217C276.518 251.424 276.386 251.594 276.179 251.311Z" fill="#263238"/>
<path d="M234.04 239.783C230.273 234.923 227.636 227.897 229.331 221.794C229.331 221.549 229.746 221.662 229.764 221.794C230.782 227.806 232.443 233.692 234.718 239.35C234.776 239.44 234.795 239.549 234.772 239.653C234.749 239.757 234.686 239.848 234.596 239.906C234.506 239.963 234.397 239.982 234.293 239.959C234.189 239.936 234.098 239.873 234.04 239.783Z" fill="#263238"/>
<path d="M238.411 242.439C234.643 237.579 232.006 230.572 233.701 224.469C233.701 224.224 234.097 224.318 234.135 224.469C235.155 230.473 236.809 236.351 239.07 242.006C239.127 242.093 239.148 242.2 239.127 242.302C239.105 242.405 239.044 242.495 238.957 242.552C238.87 242.61 238.763 242.63 238.66 242.609C238.558 242.588 238.468 242.527 238.411 242.439Z" fill="#263238"/>
<path d="M242.762 245.114C238.995 240.254 236.358 233.228 238.053 227.124C238.053 226.898 238.467 226.993 238.505 227.124C239.508 233.132 241.162 239.013 243.44 244.662C243.5 244.752 243.522 244.862 243.501 244.968C243.48 245.074 243.417 245.167 243.327 245.227C243.237 245.287 243.127 245.309 243.021 245.287C242.915 245.266 242.822 245.204 242.762 245.114Z" fill="#263238"/>
<path d="M210.928 189.168C206.746 183.63 215.317 177.131 219.517 182.67C223.718 188.208 215.11 194.687 210.928 189.168Z" fill="#263238"/>
<path d="M214.356 217.235C211.436 220.061 213.527 224.243 215.995 226.447C220.292 230.155 225.489 232.669 231.064 233.736C231.088 233.739 231.112 233.737 231.135 233.729C231.158 233.722 231.179 233.71 231.196 233.694C231.214 233.678 231.228 233.658 231.238 233.636C231.248 233.615 231.253 233.591 231.252 233.567C231.37 233.552 231.482 233.511 231.581 233.446C231.68 233.381 231.763 233.294 231.823 233.193C231.883 233.091 231.919 232.976 231.928 232.858C231.937 232.74 231.918 232.622 231.874 232.512C229.331 227.822 227.184 222.472 223.284 218.705C221.043 216.501 217.144 214.56 214.356 217.235ZM226.581 226.183C227.881 228.462 229.067 230.798 230.461 233.021C227.481 231.686 224.571 230.202 221.74 228.575C220.39 227.762 219.093 226.862 217.859 225.881C215.976 224.337 211.511 217.744 218.236 217.857C222.004 217.932 225.055 223.47 226.619 226.183H226.581Z" fill="#263238"/>
<path d="M143.209 163.701H104.706C104.706 163.701 64.414 144.336 31.9768 152.135C-5.22612 161.082 -9.99183 207.798 17.8115 224.318C53.0553 245.246 209.816 241.271 209.816 241.271L175.929 183.781C175.929 183.781 123.788 172.818 76.5073 174.363L143.209 183.461V163.701Z" fill="#455A64"/>
<path d="M178.17 187.548C178.161 187.448 178.161 187.347 178.17 187.247V187.002C178.17 186.833 178.076 186.644 178.038 186.456C178 186.267 177.774 185.702 177.643 185.326C177.511 184.949 177.322 184.591 177.153 184.233C176.975 183.877 176.767 183.537 176.531 183.216C176.531 183.216 176.531 183.216 176.437 183.216C170.692 182.142 131.737 176.566 125.954 175.907C120.171 175.248 114.256 174.702 108.398 174.212C96.7103 173.198 84.9787 172.777 73.2484 172.95H69.9519C69.7258 172.95 69.4621 172.837 69.2361 172.78L67.5408 172.385C66.4859 172.196 65.4122 172.027 64.3573 171.876C62.1346 171.537 59.9118 171.292 57.689 170.878C57.5572 170.878 57.5195 171.066 57.689 171.085C59.9118 171.593 62.0781 172.234 64.3008 172.705L66.1845 173.119C61.8897 173.345 57.5949 173.684 53.3001 174.061C53.1682 174.061 53.1682 174.287 53.3001 174.287C59.1395 173.929 65.0354 173.892 70.8749 173.986C76.7143 174.08 82.4785 174.212 88.2802 174.551C100.016 175.229 111.732 176.265 123.411 177.489C129.966 178.186 169.693 183.969 176.267 184.252H176.362C176.41 184.406 176.466 184.557 176.531 184.704L177.096 185.778C177.285 186.117 177.473 186.437 177.68 186.757L178 187.247L178.17 187.473C178.17 187.473 178.321 187.643 178.34 187.718C178.358 187.793 178.264 187.548 178.17 187.548Z" fill="#263238"/>
<path d="M197.591 237.711C195.519 234.358 193.635 230.873 191.752 227.313C189.868 223.753 187.984 220.362 185.969 216.896C182.107 209.983 168.281 186.757 166.906 185.081C166.906 184.987 166.642 185.081 166.68 185.213C167.339 187.096 175.985 202.43 177.982 205.933C181.956 212.809 186.138 219.534 190.263 226.334C191.431 228.217 192.656 230.101 193.842 232.098C195.029 234.094 196.31 235.865 197.403 237.9C197.403 237.937 197.666 237.824 197.591 237.711Z" fill="#263238"/>
<path d="M166.529 190.882C163.082 190.035 159.541 189.507 156.037 188.848L145.526 186.87C138.519 185.614 131.499 184.358 124.466 183.103C110.433 180.729 96.3427 178.77 82.1773 177.452C74.1904 176.698 66.1848 176.189 58.1602 175.568C57.9907 175.568 58.0095 175.813 58.1602 175.832C72.4198 176.472 86.6605 178.393 100.788 180.428C114.916 182.462 128.723 184.647 142.663 187.002L154.455 189.017C158.448 189.714 162.441 190.562 166.454 191.071C166.623 191.127 166.699 190.901 166.529 190.882Z" fill="#263238"/>
<path d="M132.321 351.429L195.519 380.024C195.519 380.024 270.867 235.507 272.75 191.259C274.427 153.585 248.262 139.081 163.496 163.437L142.776 163.701V178.017C151.874 179.222 176.192 183.046 176.192 183.046C193.88 189.714 199.569 192.465 199.287 193.049C155.246 282.11 132.321 351.429 132.321 351.429Z" fill="#455A64"/>
<path d="M209.703 177.15C207.16 180.56 204.787 184.101 202.526 187.718C188.794 181.851 174.271 178.043 159.427 176.416C155.271 175.901 151.089 175.53 146.882 175.304C146.712 175.304 146.712 175.549 146.882 175.568C161.779 176.564 176.505 179.321 190.753 183.781C194.69 184.986 198.552 186.399 202.432 187.793C199.719 192.145 197.158 196.59 194.709 201.073C190.117 209.476 185.986 218.122 182.333 226.974C180.299 231.853 178.321 236.769 176.569 241.761C176.569 241.912 176.757 242.006 176.814 241.855C184.562 224.626 193.001 207.76 202.131 191.259C204.711 186.606 207.405 182.01 209.929 177.32C210.004 177.188 209.797 177.037 209.703 177.15Z" fill="#263238"/>
<path d="M209.402 183.781C204.41 193.199 200.153 203.202 195.821 212.997C191.488 222.792 187.307 232.568 183.219 242.42C175.094 262.061 167.559 281.927 160.615 302.02C156.64 313.322 152.929 324.813 149.312 336.284C149.312 336.435 149.52 336.511 149.576 336.284C156.282 315.997 163.534 295.898 171.126 276.006C178.717 256.115 186.723 236.336 195.218 216.802C197.604 211.327 200.028 205.858 202.489 200.395C204.957 194.932 207.519 189.507 209.836 183.988C209.836 183.649 209.515 183.461 209.402 183.781Z" fill="#263238"/>
<path d="M105.102 168.297C106.533 169.71 194.483 168.862 194.916 168.297C196.065 166.752 182.898 111.334 173.009 90.3121C160.35 63.3753 153.663 61.1337 149.651 59.6267C144.281 58.109 138.601 58.0634 133.206 59.4949C130.72 60.6063 120.209 73.2082 117.252 83.2106C111.318 103.291 103.84 167.054 105.102 168.297Z" fill="#FFC727"/>
<path d="M164.437 66.5589C203.26 93.7971 237.336 132.262 234.586 144.883C231.685 158.219 205.973 173.892 182.935 177.659C178.226 178.431 162.422 144.167 167.225 142.396C170.993 141.04 187.946 135.596 189.98 133.166C191.355 131.471 163.458 94.8143 154.19 75.4876C144.376 55.2756 154.077 59.269 164.437 66.5589Z" fill="#F7A9A0"/>
<path d="M176.965 141.04C176.965 141.04 162.554 142.923 153.173 144.656C147.956 145.617 139.14 148.028 135.617 150.496C130.362 154.169 110.677 172.874 115.123 177.753C119.135 182.161 124.73 174.796 124.73 174.796C124.73 174.796 117.854 182.33 123.185 185.401C128.516 188.471 134.92 178.28 134.92 178.28C134.92 178.28 127.065 185.702 133.037 188.528C138.236 190.976 146.863 179.9 146.863 179.9C146.863 179.9 137.765 186.795 142.851 189.827C148.502 193.18 163.571 178.205 163.571 178.205C173.215 179.306 182.983 178.336 192.222 175.361C193.767 174.852 176.965 141.04 176.965 141.04Z" fill="#F7A9A0"/>
<path d="M132.811 180.767L134.45 178.431C135.468 176.88 136.575 175.39 137.765 173.967C138.952 172.61 140.195 171.311 141.532 170.03C142.87 168.749 144.396 167.487 145.714 166.112C145.722 166.095 145.734 166.081 145.748 166.07C145.762 166.059 145.779 166.052 145.797 166.049C145.815 166.046 145.833 166.047 145.85 166.053C145.868 166.058 145.883 166.068 145.896 166.08C145.909 166.093 145.918 166.109 145.924 166.126C145.929 166.143 145.931 166.162 145.928 166.18C145.924 166.197 145.917 166.214 145.906 166.229C145.895 166.243 145.881 166.255 145.865 166.262C144.535 167.607 143.277 169.022 142.098 170.501L138.575 174.777C137.426 176.189 136.202 177.489 135.015 178.864C134.431 179.542 133.866 180.258 133.32 180.955C132.825 181.656 132.277 182.317 131.681 182.933L131.549 182.839C131.904 182.11 132.327 181.417 132.811 180.767Z" fill="#263238"/>
<path d="M123.336 176.378C125.124 173.439 127.12 170.631 129.308 167.977C131.527 165.33 134.007 162.913 136.711 160.762C136.732 160.752 136.755 160.749 136.778 160.753C136.801 160.757 136.823 160.768 136.839 160.784C136.856 160.801 136.867 160.822 136.871 160.845C136.875 160.868 136.871 160.892 136.861 160.913C134.638 163.569 132.378 166.187 130.136 168.787C129.025 170.068 124.203 176.039 123.619 176.604C123.468 176.736 123.261 176.529 123.336 176.378Z" fill="#263238"/>
<path d="M141.627 185.137C143.374 182.413 145.3 179.808 147.391 177.338C149.735 175.014 152.254 172.873 154.925 170.934C154.947 170.924 154.97 170.921 154.993 170.924C155.016 170.928 155.038 170.939 155.054 170.956C155.071 170.972 155.082 170.994 155.086 171.017C155.089 171.04 155.086 171.063 155.076 171.085C152.721 173.402 150.329 175.662 148.106 178.111C147.014 179.297 142.945 184.27 141.796 185.306C141.74 185.401 141.57 185.269 141.627 185.137Z" fill="#263238"/>
<path d="M207.726 100.296L179.47 119.943C179.47 119.943 156.979 87.4865 150.914 71.9649C144.848 56.4433 151.328 56.1984 166.85 67.0861C182.371 77.9739 207.726 100.296 207.726 100.296Z" fill="#FFC727"/>
<path d="M201.038 96.3778C193.556 102.504 185.705 108.166 177.529 113.331C177.435 113.331 177.322 113.237 177.435 113.161C179.582 111.768 191.073 102.726 200.925 96.2083C201.038 96.1141 201.17 96.2836 201.038 96.3778Z" fill="#263238"/>
<path d="M116.931 66.992C86.6791 83.9453 58.5367 104.364 53.4508 118.04C50.3238 126.649 55.0331 141.906 58.7628 151.061C60.6465 155.507 102.559 136.576 98.9043 132.959C89.8626 123.993 88.3368 120.319 89.2221 118.417C89.7684 117.211 122.488 86.8838 131.492 73.4154C144.056 54.635 130.155 59.5891 116.931 66.992Z" fill="#F7A9A0"/>
<path d="M116.404 174.174C112.448 176.566 107.4 166.338 107.4 166.338C107.314 168.324 106.534 170.217 105.196 171.688C102.728 174.155 97.7554 171.367 97.7554 171.367C97.2323 173.408 96.1104 175.245 94.5343 176.642C91.9159 178.77 86.5097 176.642 86.5097 176.642C84.9882 178.246 82.9443 179.254 80.7456 179.486C74.8497 179.863 69.5942 172.535 66.2035 167.901C62.8129 163.267 57.5385 146.992 56.2199 143.978L85.7185 121.977C85.7185 121.977 106.816 138.384 110.018 144.393C112.636 149.498 122.356 170.595 116.404 174.174Z" fill="#F7A9A0"/>
<path d="M107.381 166.187C105.584 160.167 103.053 154.391 99.8463 148.989C99.8463 148.876 99.6014 148.989 99.6579 149.102C102.691 154.489 104.367 160.8 107.193 166.3C107.212 166.306 107.233 166.307 107.254 166.305C107.274 166.302 107.294 166.295 107.311 166.284C107.329 166.274 107.344 166.26 107.356 166.243C107.368 166.226 107.377 166.207 107.381 166.187Z" fill="#263238"/>
<path d="M97.9813 170.991C97.4953 169.651 96.83 168.384 96.0035 167.223C95.2123 165.924 94.3835 164.662 93.5546 163.456C91.8844 160.944 90.1452 158.433 88.3368 155.921C88.3368 155.808 88.0731 155.921 88.1484 155.921C89.8249 158.445 91.4449 160.988 93.0083 163.588C93.7807 164.888 94.553 166.187 95.3064 167.487C95.9514 168.77 96.7279 169.982 97.6234 171.104C97.6501 171.133 97.6845 171.154 97.7225 171.164C97.7606 171.174 97.8007 171.173 97.8383 171.161C97.8759 171.149 97.9092 171.127 97.9346 171.097C97.9599 171.067 97.9761 171.03 97.9813 170.991Z" fill="#263238"/>
<path d="M86.3592 176.566C85.895 175.356 85.2259 174.235 84.3814 173.251L82.0456 169.823C80.501 167.543 78.9564 165.245 77.4871 162.91C77.4871 162.778 77.2233 162.91 77.2987 163.004C78.768 165.396 80.2184 167.807 81.7254 170.181C82.46 171.349 83.1946 172.516 83.9481 173.666C84.5338 174.785 85.3117 175.792 86.2462 176.642L86.3592 176.566Z" fill="#263238"/>
<path d="M73.2674 92.4218L96.5121 113.764C96.5121 113.764 125.276 86.5823 133.357 72.0026C141.438 57.4228 135.071 56.3302 118.288 65.014C101.504 73.6979 73.2674 92.4218 73.2674 92.4218Z" fill="#FFC727"/>
<path d="M73.2674 92.4218L96.5121 113.764C96.5121 113.764 125.276 86.5823 133.357 72.0026C141.438 57.4228 135.071 56.3302 118.288 65.014C101.504 73.6979 73.2674 92.4218 73.2674 92.4218Z" fill="#FFC727"/>
<path d="M101.014 107.849C93.777 101.905 86.9253 95.5068 80.501 88.6923C80.4068 88.6923 80.501 88.4851 80.6329 88.5792C82.3659 90.3499 93.1029 99.58 101.165 107.699C101.335 107.793 101.109 107.925 101.014 107.849Z" fill="#263238"/>
<path d="M119.964 77.8233C118.909 80.2721 117.854 82.721 116.988 85.2451C116.997 85.0757 116.997 84.9059 116.988 84.7365C117.067 83.2065 117.25 81.6835 117.534 80.178C117.534 80.0084 117.308 79.9519 117.289 80.178C116.988 81.6849 116.724 83.2107 116.535 84.7553C116.441 85.49 116.404 86.2246 116.366 86.9593C116.366 86.9593 116.366 87.1288 116.366 87.223C115.386 90.576 114.802 93.9854 113.974 97.3572C113.974 97.5268 114.2 97.5833 114.237 97.3572C115.047 94.0419 116.272 90.8208 117.327 87.5809C118.381 84.3409 119.21 81.0445 120.209 77.8045C120.171 77.7857 120.02 77.7103 119.964 77.8233Z" fill="#263238"/>
<path d="M135.731 74.6773C140.723 75.8828 149.331 68.2727 152.684 62.1131C152.91 61.6798 152.288 57.2154 151.78 51.7339C151.478 48.4186 151.234 44.7077 151.234 41.3171C151.234 40.6201 129.91 46.4031 129.91 46.4031C131.103 50.6573 131.773 55.0408 131.907 59.457C131.906 59.9257 131.856 60.393 131.756 60.851C131.762 60.9262 131.762 61.0018 131.756 61.077C131.342 63.733 130.909 73.5094 135.731 74.6773Z" fill="#F7A9A0"/>
<path d="M149.99 41.3926C148.973 47.1378 145.337 61.0018 133.96 61.209C133.235 61.2346 132.509 61.1905 131.793 61.0772C131.793 60.983 131.793 60.9265 131.793 60.8511C131.889 60.3921 131.946 59.9258 131.963 59.4572C131.827 55.0398 131.15 50.6558 129.947 46.4032C129.947 46.4032 145.356 42.2214 149.99 41.3926Z" fill="#263238"/>
<path d="M150.159 13.1561C153.927 20.1069 154.285 42.2968 149.971 48.1174C143.717 56.5752 131.341 59.7398 123.599 51.7341C115.857 43.7284 116.064 15.0586 121.15 9.5394C128.572 1.40185 144.659 2.94647 150.159 13.1561Z" fill="#F7A9A0"/>
<path d="M133.357 32.9723C133.357 32.9723 133.47 32.9723 133.47 33.1041C133.47 34.6111 133.696 36.3252 135.052 36.8715C133.357 36.6831 133.075 34.4039 133.357 32.9723Z" fill="#263238"/>
<path d="M134.62 31.3903C137.012 31.1643 137.313 35.9676 135.091 36.1937C132.868 36.4197 132.604 31.5975 134.62 31.3903Z" fill="#263238"/>
<path d="M124.974 33.5376C124.974 33.5376 124.861 33.5376 124.861 33.6694C125.012 35.1576 124.862 36.8906 123.599 37.4368C125.238 37.2108 125.332 34.9692 124.974 33.5376Z" fill="#263238"/>
<path d="M123.543 32.0493C121.131 32.0493 121.244 36.8527 123.543 36.8716C125.841 36.8904 125.558 32.087 123.543 32.0493Z" fill="#263238"/>
<path d="M136.616 27.4346C135.938 27.4346 135.298 27.3027 134.638 27.2274C133.933 27.2576 133.237 27.0522 132.661 26.6435C132.509 26.4774 132.414 26.2671 132.391 26.0435C132.367 25.8198 132.415 25.5944 132.529 25.4002C132.822 25.0555 133.201 24.7953 133.629 24.6463C134.056 24.4973 134.515 24.4649 134.959 24.5526C135.876 24.5939 136.747 24.969 137.407 25.6074C137.549 25.7629 137.642 25.956 137.677 26.1633C137.711 26.3706 137.685 26.5834 137.602 26.7763C137.518 26.9692 137.381 27.1339 137.206 27.2506C137.031 27.3674 136.827 27.4313 136.616 27.4346Z" fill="#263238"/>
<path d="M121.114 28.6777C121.754 28.5103 122.383 28.3026 122.997 28.0561C123.72 27.9592 124.387 27.6127 124.881 27.0765C125.001 26.8842 125.053 26.6575 125.029 26.4323C125.005 26.2071 124.906 25.9963 124.749 25.8333C124.374 25.533 123.921 25.3467 123.444 25.2966C122.966 25.2465 122.484 25.3347 122.055 25.5507C121.16 25.7856 120.382 26.3422 119.87 27.1142C119.772 27.3016 119.731 27.5135 119.751 27.724C119.771 27.9346 119.852 28.1347 119.984 28.3003C120.115 28.4658 120.292 28.5896 120.493 28.6566C120.693 28.7236 120.909 28.7309 121.114 28.6777Z" fill="#263238"/>
<path d="M136.654 46.686C136.315 47.0628 135.994 47.5714 135.448 47.6467C134.894 47.6648 134.343 47.5687 133.828 47.3642C134.053 47.6364 134.345 47.8443 134.676 47.9667C135.007 48.0892 135.364 48.1217 135.712 48.0611C136.012 47.9642 136.277 47.7797 136.471 47.5313C136.666 47.2829 136.782 46.982 136.804 46.6672C136.804 46.6672 136.71 46.6295 136.654 46.686Z" fill="#263238"/>
<path d="M134.807 42.3158C134.467 42.9289 134.004 43.4647 133.446 43.8895C132.888 44.3142 132.249 44.6187 131.567 44.7835C130.951 44.9336 130.318 45.0032 129.683 44.9907H129.326H129.005C128.924 44.9792 128.85 44.9418 128.792 44.884C128.734 44.8263 128.697 44.7513 128.685 44.6704V44.3879C128.572 43.2388 128.591 41.487 128.591 41.487C128.177 41.7131 126.105 42.8056 126.086 42.2028C125.914 37.0198 126.261 31.8327 127.122 26.7188C127.132 26.69 127.152 26.6652 127.177 26.6476C127.202 26.63 127.232 26.6206 127.263 26.6206C127.294 26.6206 127.324 26.63 127.349 26.6476C127.374 26.6652 127.394 26.69 127.404 26.7188C127.593 31.5223 126.952 36.3069 127.065 41.1291C127.808 40.7319 128.599 40.4342 129.42 40.2438C129.589 40.2438 129.42 43.6344 129.42 44.143C130.362 44.1865 131.303 44.0424 132.189 43.719C133.075 43.3957 133.888 42.8995 134.581 42.2593C134.769 42.1086 134.901 42.2028 134.807 42.3158Z" fill="#263238"/>
<path d="M130.381 44.388C131.062 45.1701 131.931 45.7664 132.905 46.121C133.445 46.2903 134.023 46.2903 134.563 46.121C135.731 45.7254 135.693 44.6329 135.429 43.7099C135.277 43.2228 135.068 42.755 134.808 42.3159C133.592 43.4631 132.041 44.1895 130.381 44.388Z" fill="#263238"/>
<path d="M132.905 46.083C133.445 46.2523 134.023 46.2523 134.563 46.083C135.731 45.6874 135.693 44.5949 135.429 43.6719C134.799 43.733 134.208 44.0039 133.75 44.4411C133.293 44.8783 132.995 45.4565 132.905 46.083Z" fill="#FF98B9"/>
<path d="M119.587 19.4665C127.442 23.5729 136.54 14.8702 136.54 14.8702C137.346 16.3834 138.62 17.5953 140.172 18.3252C141.723 19.055 143.469 19.2638 145.149 18.9202C145.149 18.9202 148.031 31.0512 151.252 30.6367C156.187 30.0151 155.735 13.0807 153.795 9.91613C153.049 8.94088 152.111 8.12976 151.038 7.53341C149.966 6.93705 148.781 6.56829 147.56 6.45014C146.856 4.51506 145.451 2.91499 143.623 1.96696C139.855 -0.21812 128.723 4.64179 128.723 4.64179C127.883 3.12837 126.695 1.8369 125.257 0.874418C124.913 0.641795 124.526 0.480882 124.118 0.401311C123.711 0.321739 123.291 0.325141 122.885 0.411299C122.479 0.497457 122.094 0.664613 121.754 0.902773C121.414 1.14093 121.125 1.44521 120.905 1.79742C121.643 2.62827 122.172 3.62256 122.45 4.6983C123.467 8.2208 120.566 8.55988 120.171 5.30109C119.983 4.08277 120.244 2.83769 120.905 1.79742C119.21 -0.0862689 116.761 -0.576024 115.462 0.74256C113.032 3.26671 113.069 16.1323 119.587 19.4665Z" fill="#263238"/>
<path d="M122.451 40.1494C120.209 40.3001 118.194 37.6817 117.968 34.3099C117.742 30.9381 119.343 28.0373 121.584 27.8866C123.826 27.7359 125.823 30.3542 126.067 33.726C126.312 37.0978 124.692 39.9799 122.451 40.1494ZM121.641 28.7154C119.851 28.8284 118.57 31.3149 118.778 34.2534C118.985 37.192 120.661 39.4524 122.394 39.3206C124.127 39.1887 125.465 36.7211 125.239 33.7825C125.013 30.8439 123.411 28.5835 121.641 28.7154Z" fill="#FFC727"/>
<path d="M136.183 39.1698C134.959 39.3406 133.711 39.1391 132.603 38.5916C131.495 38.044 130.577 37.1758 129.969 36.0996C129.361 35.0235 129.091 33.7893 129.193 32.5575C129.296 31.3258 129.767 30.1533 130.545 29.1928C131.323 28.2322 132.372 27.5278 133.555 27.1713C134.739 26.8148 136.002 26.8226 137.181 27.1937C138.36 27.5648 139.4 28.2821 140.166 29.2522C140.932 30.2223 141.389 31.4004 141.476 32.6334C141.634 34.2008 141.167 35.7674 140.175 36.9917C139.184 38.216 137.749 38.9989 136.183 39.1698ZM135.373 27.717C134.297 27.7083 133.243 28.0242 132.35 28.6235C131.456 29.2229 130.764 30.0777 130.364 31.0764C129.964 32.0752 129.874 33.1714 130.106 34.222C130.339 35.2726 130.882 36.2286 131.667 36.9654C132.451 37.7021 133.439 38.1852 134.502 38.3517C135.565 38.5182 136.653 38.3603 137.625 37.8986C138.597 37.4368 139.407 36.6928 139.95 35.7636C140.492 34.8344 140.742 33.7632 140.666 32.6899C140.617 31.3308 140.033 30.0461 139.042 29.1149C138.051 28.1837 136.732 27.6813 135.373 27.717Z" fill="#FFC727"/>
<path d="M130.268 32.8785C127.122 32.012 125.803 33.1234 125.803 33.1234L125.238 32.5206C125.238 32.5206 126.858 31.089 130.475 32.0873L130.268 32.8785Z" fill="#FFC727"/>
<path d="M141.024 32.1248L140.817 31.3148C141.344 31.183 153.682 27.9807 155.039 27.8112C156.891 28.0181 158.687 28.5742 160.332 29.45L159.993 30.1846C158.491 29.4115 156.876 28.8837 155.208 28.6212C154.078 28.753 145.451 30.9758 141.024 32.1248Z" fill="#FFC727"/>
<path d="M149.086 31.5032C149.086 31.5032 152.684 23.6859 156.15 24.8538C159.616 26.0217 157.77 36.7399 154.267 38.7931C153.844 39.0929 153.363 39.3022 152.856 39.4079C152.348 39.5136 151.824 39.5134 151.317 39.4073C150.809 39.3012 150.329 39.0915 149.907 38.7913C149.484 38.4912 149.128 38.107 148.86 37.6629L149.086 31.5032Z" fill="#F7A9A0"/>
<path d="M155.359 63.6014C153.132 66.5639 150.743 69.4001 148.201 72.0969C145.858 74.7344 142.727 76.5447 139.272 77.2582C135.919 77.7103 132.528 77.2582 131.116 73.0764C130.079 69.5695 129.841 65.875 130.419 62.264C130.419 62.0756 130.174 62.038 130.155 62.264C129.609 67.7079 129.157 76.0903 134.148 77.7479C139.8 79.6316 144.98 76.5612 148.672 72.6054C151.255 69.8979 153.535 66.9166 155.472 63.7144C155.472 63.7144 155.415 63.5449 155.359 63.6014Z" fill="#263238"/>
<path d="M189.001 186.493H87.9414V191.033H189.001V186.493Z" fill="#263238"/>
<path d="M163.062 191.014H64.5642L56.3701 124.124H154.85L163.062 191.014Z" fill="#263238"/>
<path d="M115.707 157.579C115.724 158.362 115.585 159.141 115.296 159.87C115.007 160.599 114.575 161.262 114.025 161.82C113.475 162.379 112.819 162.821 112.095 163.122C111.371 163.422 110.594 163.574 109.811 163.569C108.214 163.56 106.684 162.929 105.545 161.811C104.406 160.693 103.747 159.175 103.708 157.579C103.69 156.794 103.83 156.014 104.118 155.285C104.407 154.555 104.839 153.891 105.388 153.331C105.938 152.771 106.594 152.326 107.318 152.024C108.042 151.722 108.819 151.567 109.604 151.57C111.203 151.579 112.736 152.212 113.876 153.335C115.015 154.457 115.672 155.98 115.707 157.579Z" fill="white"/>
</g>
<path d="M280 229.945L245.002 230.11L209.997 230.172L140 230.29L70.0034 230.172L34.9983 230.11L0 229.945L34.9983 229.772L70.0034 229.71L140 229.6L209.997 229.71L245.002 229.772L280 229.945Z" fill="white" fill-opacity="0.8"/>
<defs>
<clipPath id="clip0_9_9016">
<rect width="280" height="229.6" fill="white"/>
</clipPath>
</defs>
</svg>
