<svg width="300" height="232" viewBox="0 0 300 232" fill="none" xmlns="http://www.w3.org/2000/svg">
<path d="M300 223.847L262.502 224.024L224.996 224.091L150 224.216L75.0037 224.091L37.4981 224.024L0 223.847L37.4981 223.662L75.0037 223.596L150 223.477L224.996 223.596L262.502 223.662L300 223.847Z" fill="white" fill-opacity="0.8"/>
<path d="M115.871 81.7602C146.306 111.515 187.816 180.637 193.24 191.417C196.934 198.74 158.675 219.037 156.924 213.695C154.707 206.853 115.509 134.302 106.163 93.4272C102.069 75.5241 109.724 75.7532 115.871 81.7602Z" fill="#F7A9A0"/>
<path d="M154.995 208.663C156.421 212.313 161.335 227.874 164.601 229.743C167.866 231.613 184.691 230.852 193.18 230.674C201.67 230.497 203.288 228.095 203.089 225.177C202.889 222.258 185.06 222.074 185.06 222.074C185.06 222.074 208.978 228.384 215.022 229.352C221.066 230.32 234.89 233.534 236.782 228.531C237.639 226.27 233.826 224.098 233.826 224.098C233.826 224.098 239.649 225.665 240.476 222.768C241.459 219.473 236.819 217.766 236.819 217.766C236.819 217.766 240.454 218.424 240.476 215.749C240.543 209.786 217.852 207.326 217.852 207.326C217.852 207.326 235.356 215.402 235.806 210.525C236.442 203.772 200.776 197.129 197.023 194.27C194.563 192.278 192.5 189.842 190.942 187.088L154.995 208.663Z" fill="#F7A9A0"/>
<path d="M202.977 226.647C203.021 226.236 202.966 225.821 202.817 225.435C202.668 225.05 202.429 224.705 202.12 224.431C201.499 223.882 200.79 223.442 200.022 223.13C198.44 222.488 196.803 221.994 195.131 221.652C191.761 220.914 188.325 220.345 184.89 219.532C188.419 219.405 191.949 219.728 195.397 220.492C197.155 220.857 198.854 221.466 200.443 222.303C201.263 222.733 201.985 223.33 202.564 224.054C202.847 224.416 203.033 224.843 203.105 225.297C203.178 225.751 203.134 226.215 202.977 226.647Z" fill="#263238"/>
<path d="M233.774 224.105C231.314 223.559 228.89 222.916 226.467 222.273C224.043 221.63 221.634 220.936 219.218 220.263L212.007 218.165C209.605 217.47 207.197 216.776 204.766 216.111C207.277 216.329 209.77 216.719 212.228 217.278C214.696 217.788 217.127 218.438 219.551 219.118C221.974 219.798 224.361 220.596 226.733 221.401C229.104 222.206 231.469 223.093 233.774 224.105Z" fill="#263238"/>
<path d="M210.389 210.044C212.701 210.146 215.002 210.415 217.275 210.85C219.553 211.258 221.807 211.788 224.028 212.438C226.251 213.08 228.437 213.845 230.575 214.729C232.717 215.597 234.796 216.614 236.796 217.773C234.58 217.034 232.444 216.295 230.257 215.593C228.07 214.891 225.89 214.204 223.696 213.584C221.501 212.963 219.263 212.342 217.046 211.744C214.829 211.145 212.635 210.606 210.389 210.044Z" fill="#263238"/>
<path d="M213.772 204.296C221.257 204.788 228.508 207.098 234.897 211.027C231.35 209.853 227.907 208.596 224.383 207.503C220.858 206.409 217.349 205.36 213.772 204.296Z" fill="#263238"/>
<path d="M192.456 186.171L147.628 213.096C147.628 213.096 110.684 121.172 105.911 97.092C101.138 73.0119 109.827 72.1695 123.785 86.9989C140.106 104.348 192.456 186.171 192.456 186.171Z" fill="#FFC727"/>
<path d="M147.045 201.769C150.414 200.158 153.584 198.075 156.776 196.117C159.968 194.159 163.049 192.267 166.174 190.309C172.469 186.371 178.912 182.551 184.942 178.199C184.966 178.177 184.981 178.148 184.986 178.116C184.991 178.084 184.984 178.051 184.968 178.023C184.951 177.996 184.926 177.974 184.895 177.963C184.865 177.952 184.832 177.952 184.801 177.962C178.092 181.295 171.701 185.351 165.324 189.275C162.132 191.245 158.965 193.262 155.822 195.326C152.724 197.229 149.734 199.304 146.867 201.54C146.749 201.651 146.919 201.836 147.045 201.769Z" fill="#263238"/>
<path d="M147.259 193.22C146.763 193.413 146.336 193.748 146.031 194.183C145.726 194.619 145.557 195.134 145.545 195.666C145.55 196.019 145.466 196.368 145.299 196.68C145.132 196.992 144.889 197.255 144.591 197.447C144.264 197.657 143.887 197.78 143.498 197.801C143.069 197.875 142.626 197.934 142.183 198.052C143.055 198.2 143.934 198.548 144.946 198.156C145.433 197.949 145.848 197.603 146.14 197.161C146.431 196.72 146.587 196.202 146.586 195.673C146.591 195.324 146.686 194.982 146.862 194.68C147.038 194.379 147.29 194.128 147.591 193.952C147.926 193.748 148.308 193.634 148.7 193.619C149.136 193.545 149.579 193.486 150.015 193.375C149.136 193.22 148.301 192.88 147.259 193.22ZM174.841 159.084C174.571 159.329 174.354 159.626 174.203 159.958C174.052 160.289 173.97 160.648 173.962 161.012C173.968 161.365 173.884 161.713 173.719 162.025C173.553 162.336 173.312 162.601 173.016 162.793C172.685 163.003 172.306 163.125 171.915 163.148C171.487 163.222 171.043 163.281 170.6 163.399C171.479 163.547 172.351 163.894 173.363 163.502C173.851 163.296 174.266 162.95 174.558 162.509C174.85 162.067 175.005 161.549 175.004 161.02C175.001 160.613 175.13 160.216 175.373 159.889L174.841 159.084ZM143.564 155.936C143.066 156.132 142.637 156.474 142.336 156.917C142.034 157.36 141.872 157.883 141.872 158.419C141.877 158.772 141.792 159.121 141.625 159.432C141.458 159.743 141.216 160.007 140.919 160.2C140.591 160.409 140.214 160.531 139.826 160.554C139.39 160.628 138.954 160.687 138.51 160.806C139.382 160.953 140.254 161.301 141.274 160.909C141.76 160.702 142.175 160.356 142.466 159.914C142.756 159.473 142.91 158.955 142.907 158.426C142.915 158.078 143.012 157.737 143.187 157.436C143.363 157.135 143.612 156.883 143.912 156.705C144.248 156.504 144.629 156.389 145.02 156.372C145.463 156.298 145.907 156.239 146.335 156.128C145.441 155.936 144.599 155.596 143.564 155.936ZM143.38 124.164C142.893 123.963 142.357 123.912 141.841 124.018C141.325 124.123 140.852 124.38 140.483 124.756C140.229 124.999 139.918 125.173 139.578 125.262C139.238 125.351 138.881 125.353 138.54 125.265C138.161 125.17 137.815 124.976 137.535 124.704C137.166 124.445 136.796 124.187 136.419 123.965C136.937 124.704 137.291 125.539 138.274 126.019C138.76 126.244 139.302 126.317 139.83 126.227C140.358 126.137 140.846 125.89 141.23 125.517C141.473 125.261 141.779 125.073 142.117 124.969C142.454 124.866 142.813 124.851 143.158 124.926C143.54 125.003 143.893 125.185 144.178 125.45C144.54 125.701 144.917 125.967 145.286 126.189C144.754 125.458 144.385 124.586 143.35 124.157L143.38 124.164ZM126.563 107.673C126.355 107.189 126.01 106.776 125.57 106.487C125.13 106.198 124.614 106.045 124.088 106.047C123.735 106.043 123.39 105.948 123.085 105.771C122.781 105.593 122.528 105.34 122.351 105.035C122.152 104.699 122.045 104.317 122.041 103.927C121.945 103.483 121.9 103.055 121.775 102.611C121.642 103.483 121.287 104.333 121.642 105.375C121.828 105.87 122.158 106.298 122.59 106.604C123.022 106.909 123.536 107.078 124.065 107.089C124.616 107.083 125.147 107.292 125.546 107.671C125.945 108.051 126.18 108.571 126.201 109.121C126.289 109.564 126.334 109.993 126.452 110.436C126.6 109.579 126.962 108.685 126.563 107.665V107.673ZM185.555 188.255C185.353 187.769 185.01 187.354 184.57 187.064C184.13 186.774 183.614 186.623 183.087 186.629C182.736 186.622 182.393 186.526 182.089 186.351C181.786 186.175 181.532 185.925 181.351 185.625C181.155 185.279 181.046 184.891 181.033 184.494C180.944 184.08 180.9 183.637 180.789 183.194C180.634 184.065 180.279 184.908 180.634 185.942C180.818 186.44 181.149 186.871 181.583 187.177C182.017 187.483 182.534 187.65 183.065 187.656C183.42 187.652 183.77 187.739 184.081 187.908C184.393 188.078 184.656 188.324 184.846 188.624C185.068 188.942 185.197 189.316 185.215 189.703C185.259 189.954 185.296 190.198 185.341 190.442L185.607 190.279C185.803 189.613 185.785 188.903 185.555 188.248V188.255ZM162.295 142.902C162.092 142.417 161.749 142.003 161.309 141.713C160.87 141.423 160.354 141.272 159.827 141.277C159.476 141.27 159.133 141.175 158.829 140.999C158.525 140.823 158.271 140.573 158.091 140.272C157.888 139.929 157.779 139.54 157.773 139.142C157.684 138.72 157.64 138.284 157.529 137.841C157.374 138.713 157.019 139.555 157.374 140.59C157.558 141.088 157.889 141.519 158.323 141.825C158.757 142.131 159.274 142.298 159.805 142.304C160.355 142.309 160.883 142.523 161.281 142.903C161.679 143.284 161.918 143.801 161.948 144.351C162.029 144.794 162.081 145.237 162.192 145.658C162.339 144.794 162.701 143.922 162.295 142.902ZM124.324 141.986C124.119 141.502 123.776 141.089 123.337 140.799C122.897 140.51 122.382 140.357 121.856 140.361C121.505 140.356 121.16 140.262 120.856 140.086C120.552 139.91 120.299 139.658 120.12 139.356C119.918 139.015 119.809 138.628 119.802 138.233C119.713 137.812 119.669 137.368 119.558 136.925C119.369 137.594 119.267 138.284 119.255 138.979C119.278 139.218 119.328 139.453 119.403 139.681C119.484 139.911 119.598 140.128 119.743 140.324C119.988 140.649 120.303 140.914 120.666 141.099C121.028 141.285 121.427 141.386 121.834 141.395C122.383 141.4 122.91 141.613 123.308 141.992C123.706 142.37 123.945 142.886 123.977 143.434C124.058 143.878 124.11 144.321 124.221 144.742C124.368 143.885 124.73 143.006 124.324 141.979V141.986ZM161.453 178.864C161.249 178.38 160.906 177.968 160.468 177.679C160.031 177.39 159.517 177.236 158.992 177.238C158.642 177.232 158.3 177.136 157.997 176.96C157.695 176.785 157.442 176.534 157.263 176.233C157.059 175.896 156.945 175.512 156.931 175.118C156.857 174.689 156.798 174.246 156.68 173.81C156.539 174.674 156.192 175.524 156.539 176.566C156.726 177.062 157.059 177.491 157.494 177.794C157.93 178.098 158.447 178.262 158.977 178.265C159.331 178.267 159.679 178.356 159.989 178.525C160.3 178.694 160.564 178.937 160.758 179.233C160.975 179.557 161.094 179.937 161.098 180.327C161.201 180.755 161.246 181.184 161.357 181.627C161.512 180.763 161.866 179.883 161.453 178.856V178.864ZM106.406 89.8731C105.894 89.6323 105.316 89.5724 104.766 89.7031C104.766 90.0282 104.832 90.3533 104.869 90.6932C105.274 90.5463 105.713 90.5207 106.133 90.6193C106.511 90.7198 106.859 90.9127 107.145 91.1809C107.507 91.4247 107.847 91.7055 108.239 91.9198C107.751 91.1809 107.396 90.3681 106.406 89.8731Z" fill="white"/>
<path opacity="0.1" d="M166.662 201.651L147.628 213.096C147.628 213.096 110.684 121.172 105.911 97.092C103.598 85.4399 104.433 79.2259 107.514 77.6078L166.662 201.651Z" fill="black"/>
<path d="M128.654 223.995H10.3517C8.63012 221.963 31.4319 114.234 79.703 80.3564C95.0273 69.6057 114.659 74.0981 117.933 87.324C131.89 143.789 130.228 222.184 128.654 223.995Z" fill="#FFC727"/>
<path d="M85.6286 102.752C85.1326 102.942 84.7045 103.275 84.3991 103.709C84.0937 104.144 83.925 104.659 83.9144 105.19C83.9223 105.544 83.8388 105.894 83.6718 106.206C83.5048 106.518 83.26 106.781 82.9612 106.971C82.6342 107.183 82.257 107.306 81.8677 107.326C81.4391 107.407 80.9958 107.459 80.5525 107.584C81.4244 107.725 82.3036 108.079 83.3159 107.68C83.8039 107.479 84.2218 107.138 84.5175 106.7C84.8131 106.263 84.9734 105.748 84.9784 105.22C84.9824 104.87 85.0771 104.528 85.2533 104.226C85.4294 103.924 85.681 103.674 85.9832 103.498C86.3146 103.292 86.6943 103.178 87.0842 103.166C87.5275 103.084 87.9708 103.033 88.4068 102.922C87.5053 102.752 86.6704 102.405 85.6286 102.752ZM77.1684 160.074C76.6736 160.259 76.2457 160.588 75.9401 161.019C75.6345 161.45 75.4652 161.962 75.4542 162.49C75.4621 162.845 75.3801 163.195 75.216 163.509C75.052 163.823 74.8111 164.09 74.5158 164.286C74.1848 164.495 73.806 164.617 73.4149 164.641C72.979 164.714 72.5504 164.774 72.1071 164.892C72.9716 165.032 73.8435 165.387 74.8705 164.988C75.3526 164.778 75.7627 164.432 76.0503 163.993C76.3379 163.553 76.4903 163.038 76.4886 162.513C76.499 162.164 76.5972 161.823 76.7742 161.522C76.9511 161.221 77.2011 160.97 77.5009 160.791C77.8373 160.585 78.2224 160.473 78.6166 160.466C79.0599 160.385 79.4811 160.325 79.9244 160.215C79.0673 160.074 78.2102 159.72 77.1684 160.074ZM128.72 214.212C128.394 214.431 128.012 214.554 127.619 214.567C127.183 214.655 126.755 214.7 126.311 214.825C127.176 214.966 128.048 215.328 129.075 214.936C129.215 214.882 129.349 214.813 129.474 214.729C129.474 214.242 129.511 213.732 129.525 213.207C129.368 213.617 129.086 213.969 128.72 214.212ZM56.6571 203.609C56.1583 203.79 55.7267 204.119 55.4203 204.552C55.1139 204.985 54.9473 205.502 54.9429 206.033C54.948 206.386 54.8632 206.735 54.6965 207.046C54.5298 207.358 54.2866 207.622 53.9897 207.813C53.6651 208.032 53.2869 208.157 52.8962 208.175C52.4603 208.257 52.0243 208.308 51.5884 208.434C52.4381 208.574 53.3174 208.929 54.3444 208.53C54.829 208.323 55.2418 207.978 55.531 207.538C55.8202 207.097 55.9729 206.582 55.9699 206.055C55.9805 205.705 56.0778 205.363 56.2532 205.06C56.4286 204.757 56.6766 204.502 56.9748 204.318C57.3177 204.117 57.7077 204.01 58.1053 204.008C58.5339 203.912 58.9624 203.868 59.3983 203.757C58.5339 203.609 57.6915 203.247 56.6571 203.609ZM109.398 118.837C108.901 119.022 108.471 119.353 108.165 119.787C107.859 120.221 107.691 120.737 107.684 121.268C107.692 121.622 107.609 121.972 107.442 122.284C107.275 122.596 107.03 122.859 106.731 123.049C106.411 123.265 106.038 123.39 105.652 123.411C105.209 123.485 104.766 123.544 104.337 123.655C105.194 123.81 106.073 124.165 107.086 123.751C107.572 123.55 107.988 123.209 108.28 122.77C108.573 122.332 108.728 121.817 108.726 121.29C108.728 120.939 108.822 120.594 108.998 120.289C109.174 119.985 109.427 119.731 109.731 119.554C110.071 119.367 110.451 119.266 110.839 119.259C111.268 119.17 111.711 119.126 112.14 119.007C111.275 118.837 110.44 118.52 109.398 118.837ZM18.324 205.87C17.8263 206.055 17.3963 206.386 17.0903 206.82C16.7844 207.254 16.6169 207.77 16.6098 208.301C16.6156 208.654 16.5312 209.003 16.3644 209.315C16.1976 209.627 15.954 209.89 15.6567 210.082C15.3297 210.294 14.9525 210.416 14.5631 210.436C14.1346 210.525 13.6912 210.569 13.2627 210.688C14.1124 210.835 14.9843 211.197 16.0113 210.798C16.4959 210.592 16.9087 210.247 17.1979 209.806C17.4871 209.366 17.6398 208.85 17.6369 208.323C17.648 207.973 17.7456 207.632 17.921 207.329C18.0963 207.026 18.3439 206.771 18.6417 206.587C18.9839 206.383 19.3739 206.273 19.7722 206.269C20.2008 206.18 20.6367 206.121 21.08 206.01C20.2008 205.87 19.3658 205.53 18.324 205.87ZM36.5374 160.059C36.0397 160.244 35.6097 160.575 35.3037 161.009C34.9977 161.443 34.8302 161.96 34.8232 162.49C34.829 162.844 34.7445 163.193 34.5777 163.504C34.4109 163.816 34.1674 164.08 33.8701 164.271C33.5431 164.483 33.1659 164.606 32.7765 164.626C32.348 164.714 31.9046 164.759 31.4761 164.877C32.3258 165.025 33.1977 165.387 34.2247 164.988C34.7093 164.781 35.1221 164.436 35.4113 163.996C35.7005 163.555 35.8532 163.039 35.8503 162.513C35.8608 162.163 35.9581 161.821 36.1335 161.518C36.3089 161.214 36.5569 160.96 36.8551 160.776C37.1973 160.572 37.5873 160.463 37.9856 160.458C38.4142 160.37 38.8501 160.311 39.2934 160.2C38.4289 160.067 37.5792 159.72 36.5374 160.067V160.059ZM124.745 175.458C124.247 175.643 123.817 175.974 123.511 176.408C123.205 176.841 123.038 177.358 123.031 177.889C123.037 178.242 122.952 178.591 122.785 178.903C122.618 179.214 122.375 179.478 122.078 179.669C121.751 179.882 121.373 180.004 120.984 180.024C120.555 180.113 120.112 180.157 119.684 180.275C120.533 180.423 121.405 180.785 122.432 180.386C122.917 180.179 123.33 179.834 123.619 179.394C123.908 178.954 124.061 178.438 124.058 177.911C124.068 177.561 124.166 177.219 124.341 176.916C124.516 176.613 124.764 176.358 125.063 176.174C125.405 175.97 125.795 175.861 126.193 175.857C126.622 175.768 127.058 175.709 127.501 175.598C126.622 175.465 125.787 175.118 124.745 175.465V175.458ZM61.2751 145.385C60.7876 145.185 60.2515 145.135 59.7354 145.242C59.2194 145.349 58.747 145.607 58.3787 145.984C58.1225 146.226 57.8095 146.399 57.4686 146.488C57.1277 146.577 56.7698 146.579 56.4281 146.494C56.0487 146.396 55.702 146.2 55.4232 145.925C55.0611 145.673 54.6843 145.407 54.3075 145.186C54.8247 145.925 55.1793 146.752 56.1621 147.24C56.6482 147.465 57.1914 147.537 57.7193 147.446C58.2473 147.355 58.735 147.105 59.1176 146.73C59.3629 146.475 59.67 146.287 60.009 146.185C60.3481 146.082 60.7078 146.069 61.0534 146.146C61.4319 146.223 61.7821 146.402 62.0657 146.664C62.4351 146.922 62.8046 147.188 63.174 147.402C62.642 146.701 62.28 145.858 61.2751 145.393V145.385ZM109.051 200.801C108.561 200.608 108.026 200.563 107.511 200.672C106.996 200.781 106.524 201.039 106.155 201.415C105.9 201.655 105.59 201.826 105.251 201.914C104.913 202.002 104.558 202.003 104.219 201.917C103.833 201.829 103.48 201.635 103.199 201.355C102.837 201.112 102.46 200.838 102.091 200.617C102.601 201.355 102.97 202.176 103.938 202.663C104.424 202.887 104.967 202.959 105.495 202.868C106.023 202.777 106.51 202.528 106.894 202.153C107.14 201.899 107.447 201.713 107.786 201.612C108.125 201.511 108.484 201.499 108.829 201.577C109.211 201.644 109.564 201.825 109.842 202.094C110.218 202.338 110.581 202.619 110.95 202.833C110.433 202.146 110.056 201.274 109.051 200.831V200.801ZM107.573 153.668C107.083 153.473 106.545 153.425 106.028 153.532C105.511 153.638 105.036 153.894 104.662 154.267C104.41 154.51 104.099 154.684 103.76 154.773C103.422 154.863 103.066 154.864 102.726 154.776C102.347 154.678 101.999 154.484 101.714 154.215C101.345 153.971 100.975 153.69 100.606 153.476C101.123 154.215 101.478 155.035 102.453 155.523C102.939 155.75 103.482 155.823 104.011 155.732C104.539 155.641 105.027 155.39 105.408 155.013C105.654 154.762 105.958 154.576 106.294 154.474C106.63 154.372 106.986 154.357 107.329 154.429C107.716 154.509 108.074 154.693 108.364 154.961C108.726 155.205 109.103 155.478 109.465 155.7C108.918 155.013 108.556 154.141 107.551 153.698L107.573 153.668ZM37.0768 219.17C36.5895 218.969 36.0531 218.918 35.5368 219.025C35.0205 219.132 34.5481 219.391 34.1804 219.768C33.9265 220.009 33.6157 220.181 33.2772 220.269C32.9386 220.357 32.5834 220.357 32.2445 220.271C31.8633 220.177 31.514 219.983 31.2323 219.709C30.8554 219.458 30.4934 219.192 30.1239 218.97C30.6338 219.709 30.9884 220.544 31.9711 221.032C32.4529 221.248 32.9884 221.315 33.5085 221.224C34.0286 221.133 34.5097 220.889 34.8897 220.522C35.1367 220.269 35.4438 220.083 35.7824 219.981C36.1209 219.879 36.4799 219.864 36.8256 219.938C37.2106 220.008 37.5672 220.188 37.8526 220.455C38.2294 220.707 38.5915 220.973 38.9609 221.194C38.4289 220.485 38.0817 219.598 37.0768 219.17ZM41.7096 128.613C41.5913 128.834 41.4805 129.056 41.3697 129.285C41.7053 129.372 42.0147 129.539 42.2711 129.773C42.6479 130.031 43.01 130.297 43.372 130.512C42.9874 129.748 42.4154 129.095 41.7096 128.613ZM79.2299 192.156C78.7424 191.956 78.2063 191.906 77.6902 192.013C77.1742 192.12 76.7017 192.378 76.3335 192.755C76.0795 192.996 75.7691 193.168 75.4308 193.258C75.0925 193.347 74.7371 193.349 74.3976 193.265C74.0153 193.168 73.6642 192.974 73.378 192.703C73.0011 192.445 72.6391 192.179 72.277 191.964C72.7795 192.703 73.1341 193.531 74.1168 194.018C74.598 194.237 75.1342 194.306 75.655 194.215C76.1758 194.124 76.657 193.878 77.0354 193.509C77.4261 193.122 77.9502 192.899 78.4999 192.887C79.0496 192.874 79.5832 193.073 79.9909 193.442C80.3678 193.701 80.7298 193.967 81.0992 194.181C80.5968 193.442 80.2348 192.57 79.2299 192.134V192.156ZM82.3553 81.2136C82.2044 80.8586 81.9762 80.5417 81.6873 80.2861C81.3985 80.0305 81.0562 79.8425 80.6855 79.7358C80.3604 79.9427 80.0279 80.1644 79.7028 80.3934L79.4146 80.6003C79.563 80.6301 79.714 80.6449 79.8653 80.6447C80.2165 80.6407 80.5631 80.7252 80.873 80.8905C81.183 81.0558 81.4463 81.2965 81.6386 81.5904C81.8599 81.9159 81.983 82.298 81.9933 82.6914C82.0894 83.1199 82.1337 83.5632 82.2445 83.9918C82.3923 83.0904 82.7617 82.2185 82.3553 81.1914V81.2136ZM56.6645 178.857C56.4547 178.374 56.1088 177.964 55.6691 177.675C55.2295 177.386 54.7152 177.232 54.1892 177.231C53.8407 177.223 53.5 177.126 53.1989 176.951C52.8978 176.775 52.6462 176.526 52.4677 176.226C52.2635 175.889 52.149 175.505 52.1352 175.11C52.0613 174.682 52.0022 174.239 51.8913 173.803C51.7509 174.667 51.3963 175.517 51.7509 176.559C51.936 177.054 52.2666 177.481 52.6992 177.784C53.1318 178.088 53.6461 178.253 54.1745 178.258C54.5294 178.259 54.8785 178.347 55.1906 178.516C55.5027 178.685 55.768 178.929 55.9626 179.226C56.1749 179.553 56.2972 179.93 56.3172 180.32C56.3911 180.748 56.4502 181.177 56.5684 181.62C56.7088 180.763 57.0635 179.884 56.6645 178.857ZM63.0854 121.18C62.8795 120.694 62.5346 120.281 62.094 119.992C61.6535 119.702 61.1371 119.55 60.6101 119.554C60.2596 119.551 59.916 119.456 59.6129 119.28C59.3098 119.104 59.0577 118.852 58.8811 118.549C58.6781 118.212 58.5684 117.827 58.5634 117.433C58.4747 117.005 58.4304 116.562 58.3048 116.118C58.1644 117.005 57.8098 117.84 58.1644 118.882C58.3502 119.379 58.6815 119.808 59.1152 120.114C59.5489 120.42 60.0647 120.588 60.5953 120.596C60.9479 120.59 61.2963 120.674 61.6077 120.839C61.9191 121.004 62.1835 121.246 62.376 121.542C62.5897 121.865 62.7122 122.24 62.7307 122.628C62.8194 123.071 62.8637 123.514 62.9819 123.943C63.1297 123.093 63.4917 122.214 63.0854 121.18ZM121.509 104.008C121.449 104.465 121.495 104.93 121.642 105.368C121.693 105.517 121.76 105.661 121.841 105.796C121.738 105.22 121.627 104.599 121.509 104.008ZM88.2073 135.654C87.9985 135.169 87.6506 134.756 87.2075 134.468C86.7643 134.18 86.2457 134.03 85.7172 134.036C85.3651 134.027 85.0209 133.929 84.7172 133.751C84.4134 133.572 84.16 133.32 83.9809 133.016C83.7842 132.68 83.6798 132.298 83.6779 131.908C83.5745 131.472 83.5302 131.036 83.4119 130.593C83.2789 131.472 82.9243 132.322 83.2789 133.356C83.4611 133.853 83.7896 134.282 84.2209 134.588C84.6523 134.895 85.1663 135.063 85.6951 135.071C86.0476 135.065 86.3956 135.149 86.7069 135.315C87.0183 135.48 87.2828 135.721 87.4758 136.016C87.6972 136.339 87.8204 136.719 87.8304 137.11C87.9191 137.553 87.9634 137.982 88.0891 138.425C88.2368 137.568 88.5989 136.667 88.2073 135.654ZM124.324 141.979C124.119 141.494 123.776 141.081 123.336 140.792C122.897 140.503 122.382 140.35 121.856 140.354C121.505 140.349 121.16 140.254 120.856 140.078C120.552 139.902 120.298 139.651 120.119 139.349C119.918 139.008 119.809 138.621 119.802 138.226C119.713 137.804 119.669 137.361 119.558 136.918C119.403 137.79 119.048 138.632 119.403 139.674C119.589 140.171 119.92 140.6 120.354 140.906C120.787 141.212 121.303 141.38 121.834 141.388C122.383 141.393 122.91 141.606 123.308 141.985C123.706 142.363 123.945 142.879 123.976 143.427C124.058 143.871 124.109 144.314 124.22 144.735C124.368 143.885 124.73 143.006 124.324 141.979ZM82.9908 222.79C82.7879 222.305 82.4446 221.89 82.005 221.601C81.5654 221.311 81.0493 221.159 80.5229 221.165C80.1737 221.156 79.8325 221.058 79.5314 220.881C79.2302 220.704 78.979 220.453 78.8013 220.153C78.5972 219.815 78.4827 219.431 78.4688 219.037C78.3949 218.608 78.3358 218.165 78.2176 217.736C78.0698 218.594 77.73 219.451 78.0698 220.485C78.2586 220.983 78.5929 221.412 79.0292 221.716C79.4655 222.02 79.9835 222.186 80.5155 222.192C80.8684 222.194 81.2154 222.282 81.5259 222.45C81.8365 222.617 82.101 222.858 82.2962 223.152C82.4635 223.405 82.5697 223.694 82.6066 223.995H83.1755C83.2096 223.584 83.1463 223.172 82.9908 222.79ZM35.1926 195.363C34.9897 194.877 34.6465 194.463 34.2069 194.174C33.7672 193.884 33.2512 193.732 32.7248 193.738C32.3823 193.725 32.0486 193.626 31.7542 193.45C31.4599 193.275 31.2144 193.028 31.0401 192.733C30.8319 192.397 30.7171 192.012 30.7076 191.617C30.6264 191.188 30.5746 190.745 30.4564 190.317C30.3086 191.174 29.9688 192.031 30.3087 193.065C30.4965 193.563 30.8306 193.993 31.2671 194.297C31.7036 194.602 32.2221 194.768 32.7543 194.772C33.1072 194.774 33.4542 194.862 33.7647 195.03C34.0753 195.197 34.3398 195.439 34.535 195.733C34.7472 196.059 34.8648 196.437 34.8749 196.826C34.9784 197.255 35.0227 197.691 35.1261 198.134C35.2444 197.269 35.599 196.398 35.1926 195.363ZM97.458 178.849C97.2527 178.365 96.9089 177.953 96.4698 177.663C96.0307 177.374 95.516 177.221 94.9902 177.224C94.6415 177.216 94.3005 177.12 93.9993 176.944C93.6981 176.768 93.4467 176.519 93.2686 176.219C93.0603 175.883 92.9456 175.498 92.9361 175.103C92.8548 174.674 92.8031 174.231 92.6849 173.795C92.5371 174.66 92.1972 175.509 92.5371 176.551C92.7253 177.049 93.0597 177.477 93.4963 177.78C93.9329 178.084 94.4512 178.248 94.9828 178.251C95.3364 178.253 95.6841 178.342 95.9948 178.511C96.3055 178.68 96.5696 178.923 96.7635 179.219C96.9778 179.544 97.0956 179.923 97.1034 180.312C97.2068 180.741 97.2512 181.169 97.3546 181.613C97.5393 180.763 97.8644 179.884 97.458 178.857V178.849ZM106.406 89.8733C105.92 89.6482 105.378 89.5757 104.85 89.6654C104.322 89.7551 103.834 90.0028 103.45 90.3757C103.064 90.7697 102.54 90.9983 101.989 91.0135C101.438 91.0286 100.902 90.8291 100.495 90.457C100.125 90.2058 99.756 89.925 99.3791 89.7181C99.889 90.457 100.266 91.2993 101.271 91.7426C101.758 91.9417 102.294 91.9911 102.81 91.8845C103.326 91.7779 103.798 91.5202 104.167 91.1441C104.419 90.9011 104.73 90.7267 105.069 90.6374C105.408 90.5482 105.764 90.5471 106.103 90.6343C106.491 90.7259 106.849 90.914 107.145 91.1811C107.507 91.4249 107.847 91.7057 108.238 91.92C107.751 91.1811 107.396 90.3683 106.406 89.8733Z" fill="white"/>
<path d="M110.1 99.0648C103.672 99.0648 95.3594 87.3831 92.9655 78.9008C92.8103 78.317 99.7262 58.1456 100.679 54.0079C100.871 53.1508 125.225 66.3102 125.225 66.3102C125.225 66.3102 120.666 74.3936 119.048 81.6198C118.915 82.2257 116.314 99.0278 110.1 99.0648Z" fill="#F7A9A0"/>
<path d="M125.226 66.3027C125.226 66.3027 120.667 74.3934 119.041 81.6197C119.041 81.7675 118.842 82.8167 118.524 84.3314C106.436 80.3414 100.318 70.9503 97.4512 64.5516C98.9289 59.9779 100.296 55.685 100.68 54.0078C100.88 53.158 125.226 66.3027 125.226 66.3027Z" fill="#263238"/>
<path d="M140.099 22.1548C140.099 22.1548 147.229 28.354 145.944 37.2723C144.658 46.1905 139.789 54.3699 138.917 54.5547C138.045 54.7394 140.099 22.1548 140.099 22.1548Z" fill="#263238"/>
<path d="M104.115 21.9774C98.2043 29.9056 93.7711 57.2885 98.0418 65.2758C104.263 76.8614 119.019 83.0089 130.028 74.5191C140.697 66.2732 145.892 30.4893 140.668 22.7532C133.006 11.3819 112.827 10.2662 104.115 21.9774Z" fill="#F7A9A0"/>
<path d="M133.095 49.3751C133.095 49.3086 133.213 49.5007 133.198 49.5746C132.666 51.3922 132.371 53.5645 133.878 54.599C133.922 54.599 133.878 54.7172 133.834 54.695C131.883 53.897 132.304 51.0154 133.095 49.3751Z" fill="#263238"/>
<path d="M135.222 47.8827C138.222 48.4073 136.944 54.3848 134.166 53.8898C131.387 53.3947 132.703 47.4394 135.222 47.8827Z" fill="#263238"/>
<path d="M116.75 63.2439C117.06 63.7907 117.319 64.5074 117.962 64.7586C118.641 64.9419 119.35 64.9822 120.045 64.8768C120.06 64.8743 120.075 64.8768 120.088 64.8839C120.101 64.8909 120.111 64.9021 120.117 64.9157C120.123 64.9293 120.125 64.9445 120.121 64.9589C120.117 64.9733 120.109 64.986 120.097 64.995C119.733 65.2818 119.298 65.4636 118.838 65.5209C118.379 65.5782 117.912 65.5088 117.489 65.3201C117.148 65.1145 116.875 64.8124 116.706 64.4522C116.536 64.0919 116.477 63.6895 116.536 63.2956C116.521 63.1552 116.669 63.1626 116.75 63.2439Z" fill="#263238"/>
<path d="M128.292 57.2738C128.292 57.2738 128.033 60.1111 127.723 61.4116C127.723 61.5298 124.08 60.355 119.972 60.7466C119.359 60.8057 119.477 60.3254 120.208 60.089C121.686 59.6235 123.496 59.2393 126.858 60.0225C127.036 59.6826 127.191 55.6409 127.398 55.6779C128.384 56.0033 129.323 56.4579 130.191 57.03C130.93 51.119 130.686 45.1636 131.491 39.2969C131.5 39.2551 131.522 39.2176 131.555 39.1906C131.588 39.1637 131.63 39.1489 131.672 39.1489C131.715 39.1489 131.756 39.1637 131.789 39.1906C131.822 39.2176 131.845 39.2551 131.853 39.2969C132.533 45.533 131.853 52.3455 131.255 58.4561C131.203 59.2171 128.765 57.6137 128.292 57.2738Z" fill="#263238"/>
<path d="M123.437 43.6563C122.595 43.7671 121.804 43.7228 120.969 43.7523C120.016 43.7523 119.27 43.9001 118.428 43.3681C118.214 43.195 118.063 42.9578 117.995 42.6916C117.927 42.4254 117.947 42.1445 118.051 41.8903C118.598 40.8116 119.75 40.4939 120.888 40.4126C122.033 40.2922 123.182 40.6031 124.11 41.2845C124.306 41.4536 124.449 41.6753 124.524 41.9233C124.598 42.1714 124.6 42.4356 124.53 42.6847C124.459 42.9339 124.319 43.1577 124.125 43.3298C123.932 43.5019 123.693 43.6152 123.437 43.6563Z" fill="#263238"/>
<path d="M138.481 40.6489C137.751 40.2678 137.043 39.846 136.361 39.3854C135.555 38.8904 134.883 38.5801 134.44 37.686C134.348 37.4181 134.348 37.1272 134.441 36.8595C134.533 36.5918 134.712 36.3626 134.95 36.2083C135.991 35.6098 137.166 35.9644 138.127 36.5186C139.15 37.0466 139.941 37.9369 140.343 39.016C140.423 39.2664 140.427 39.5345 140.357 39.7876C140.286 40.0406 140.143 40.2675 139.946 40.4407C139.748 40.6139 139.505 40.7259 139.245 40.7628C138.985 40.7998 138.719 40.7602 138.481 40.6489Z" fill="#263238"/>
<path d="M116.824 46.4935C117.393 46.3458 117.981 46.286 118.568 46.3162C119.173 46.3478 119.771 46.4673 120.341 46.6708C120.938 46.9005 121.486 47.2387 121.959 47.6683C122.444 48.1421 122.818 48.7174 123.053 49.353L123.482 50.5056L122.314 50.2175C121.492 50.0079 120.65 49.8914 119.802 49.8702C118.92 49.8255 118.041 50.0114 117.253 50.4096C117.844 49.6134 118.726 49.0824 119.706 48.9318C120.672 48.7497 121.665 48.7673 122.624 48.9835L121.923 49.8037C121.53 48.8844 120.834 48.1279 119.95 47.6609C118.964 47.1361 117.913 46.7436 116.824 46.4935Z" fill="#263238"/>
<path d="M119.588 51.8282C120.506 51.7272 121.408 51.5087 122.27 51.178C122.47 51.0745 123.26 50.6312 123.238 50.4391C123.203 49.9678 123.106 49.5032 122.95 49.0574C123.229 49.475 123.42 49.9451 123.511 50.4391C123.425 50.6912 123.283 50.9208 123.096 51.1112C122.91 51.3016 122.683 51.4481 122.433 51.54C121.529 51.8942 120.545 51.9939 119.588 51.8282Z" fill="#263238"/>
<path d="M125.292 60.6504C125.292 60.6504 122.787 63.3917 120.312 63.4434C117.467 63.5025 117.474 60.9534 120.74 59.9337C122.447 59.4091 125.292 60.6504 125.292 60.6504Z" fill="#263238"/>
<path d="M120.319 63.436C121.391 63.3558 122.417 62.9685 123.274 62.3203C122.824 61.3819 121.612 60.2514 118.413 61.4632C117.858 62.4829 118.523 63.4804 120.319 63.436Z" fill="#FF99BA"/>
<path d="M98.5368 47.698C101.61 49.1758 106.783 40.0506 108.393 36.4819C109.819 33.3416 112.457 23.0933 112.723 22.4062C112.989 21.719 125.373 33.748 133.848 32.6027C142.323 31.4575 148.854 24.9997 149.483 21.6156C150.111 18.2315 141.355 8.07192 132.688 6.306C124.021 4.54008 110.521 13.8426 110.521 13.8426C110.521 13.8426 115.258 9.66052 115.184 9.24674C115.11 8.83297 109.125 10.2295 107.485 14.0864C107.485 14.0864 109.361 9.21719 108.962 9.05464C108.563 8.89209 103.517 12.5495 104.012 15.9706C104.012 15.9706 98.2781 19.5911 97.0812 24.3347C95.8842 29.0783 94.931 45.9617 98.5368 47.698Z" fill="#263238"/>
<path d="M139.877 31.7825C137.232 32.5213 134.572 33.4228 131.75 33.3637C128.742 33.3045 125.839 32.1002 123.216 30.6372C120.591 29.1262 118.23 27.197 116.226 24.9256C114.445 22.9454 112.953 20.6623 111.009 18.8373C110.529 18.3866 109.775 19.0737 110.034 19.6205C112.576 25.0586 117.777 30.0683 123.12 32.6987C128.742 35.4695 134.498 34.9892 139.863 31.8563C139.929 31.8342 139.922 31.7751 139.877 31.7825Z" fill="#263238"/>
<path d="M102.091 46.2793C102.091 46.2793 99.0318 35.9349 94.532 36.7699C90.0323 37.6048 90.3795 51.1854 94.2882 54.3404C94.7617 54.7796 95.3192 55.1184 95.9271 55.3365C96.535 55.5546 97.1808 55.6475 97.8255 55.6095C98.4702 55.5716 99.1006 55.4036 99.6787 55.1156C100.257 54.8277 100.771 54.4258 101.189 53.9341L102.091 46.2793Z" fill="#F7A9A0"/>
<path d="M94.7314 40.6637C94.7172 40.6592 94.7019 40.6597 94.6879 40.665C94.674 40.6703 94.6623 40.6801 94.6546 40.6929C94.6469 40.7057 94.6438 40.7207 94.6456 40.7355C94.6475 40.7503 94.6543 40.764 94.6649 40.7745C97.3692 43.0872 98.049 46.5378 98.1968 49.9292C97.6574 48.4515 96.6008 47.4022 94.6797 47.9934C94.5763 47.9934 94.6132 48.1781 94.6797 48.1855C95.2883 48.1956 95.8789 48.3933 96.3708 48.7517C96.8628 49.1101 97.2321 49.6117 97.4283 50.1878C97.7465 51.1471 97.9595 52.1381 98.0638 53.1433C98.1229 53.4685 98.677 53.4906 98.677 53.1433V53.0695C100.118 49.1164 98.8765 42.4961 94.7314 40.6637Z" fill="#263238"/>
<path d="M127.93 67.6994C125.587 71.9667 123.631 76.435 122.085 81.051C121.716 82.2258 121.383 83.4006 121.125 84.5606C121.125 84.605 121.125 84.7158 121.065 84.8931C121.065 84.9596 121.065 85.0409 121.021 85.1296C120.932 85.6025 120.799 86.334 120.615 87.2354C120.611 87.2821 120.611 87.3291 120.615 87.3758C120.612 87.3929 120.612 87.4104 120.615 87.4275C120.618 87.408 120.618 87.3879 120.615 87.3684C116.58 79.1701 114.733 70.0685 115.25 60.946L116.979 61.8549L118.169 62.4829L119.329 63.0962L120.371 63.643L120.992 63.9681L121.989 64.5001L122.987 65.032L123.918 65.5271L124.775 65.9852L127.93 67.6994Z" fill="#F7A9A0"/>
<path d="M127.93 67.692C125.587 71.9592 123.631 76.4275 122.085 81.0435C121.716 82.2183 121.383 83.3931 121.125 84.5532C121.125 84.5975 121.125 84.7084 121.065 84.8857C121.065 84.9522 121.065 85.0335 121.021 85.1221C120.932 85.595 120.799 86.3265 120.615 87.2279C120.618 87.2722 120.618 87.3167 120.615 87.3609C116.58 79.1626 114.733 70.0611 115.25 60.9386L116.979 61.8474C117.378 62.0543 117.777 62.2612 118.169 62.4755L119.329 63.0887L120.371 63.6355L120.999 63.9754L121.996 64.5074C122.346 64.6847 122.679 64.862 122.994 65.0394L123.925 65.5344L124.782 65.9925L127.93 67.692Z" fill="#263238"/>
<path d="M144.311 19.0811C144.311 19.0811 152.165 25.9083 150.739 35.728C149.313 45.5477 143.964 54.5473 143.01 54.7542C142.057 54.9611 144.311 19.0811 144.311 19.0811Z" fill="#263238"/>
<path d="M144.695 52.6262C142.316 63.0444 138.34 72.7681 133.22 76.7211C130.024 79.2414 126.145 80.7446 122.085 81.0361C120.698 81.1311 119.304 81.0891 117.925 80.9105C115.752 74.4957 114.834 67.7226 115.221 60.9608C115.472 56.616 116.253 52.3182 117.548 48.1634C118.227 45.9913 119.041 43.8641 119.987 41.7942C119.878 41.4676 119.894 41.1124 120.031 40.7967C120.244 40.379 120.565 40.0266 120.962 39.7771C122.527 36.71 124.391 33.8045 126.526 31.1026C126.947 30.5559 127.383 30.0239 127.826 29.5066C128.063 29.2259 128.306 28.9525 128.565 28.6791C132.666 24.0802 137.533 20.2277 142.951 17.293C143.628 18.0118 144.25 18.7799 144.813 19.5909L144.931 19.7682C145.973 21.3125 146.638 23.8838 146.956 27.1053C147.643 33.8513 146.778 43.501 144.695 52.6262Z" fill="#F7A9A0"/>
<path d="M136.597 49.0649C136.597 48.991 136.73 49.1979 136.708 49.2791C136.124 51.2815 135.799 53.6755 137.446 54.806C137.498 54.8429 137.446 54.9464 137.402 54.9168C135.259 54.0301 135.725 50.8603 136.597 49.0649Z" fill="#263238"/>
<path d="M138.916 47.4099C142.219 47.9862 140.815 54.5622 137.749 54.0598C134.683 53.5574 136.16 46.9222 138.916 47.4099Z" fill="#263238"/>
<path d="M118.561 64.3227C118.901 64.9285 119.189 65.7117 119.898 65.9851C120.644 66.1921 121.425 66.2374 122.189 66.1181C122.206 66.1139 122.224 66.1158 122.239 66.1234C122.255 66.1311 122.267 66.1439 122.274 66.1598C122.281 66.1757 122.283 66.1936 122.278 66.2103C122.273 66.227 122.262 66.2414 122.248 66.2511C121.846 66.5595 121.368 66.7532 120.864 66.8117C120.361 66.8703 119.851 66.7915 119.389 66.5836C119.015 66.3584 118.716 66.0279 118.53 65.6336C118.343 65.2393 118.277 64.7987 118.339 64.367C118.347 64.2266 118.509 64.2266 118.561 64.3227Z" fill="#263238"/>
<path d="M131.313 57.7468C131.313 57.7468 131.018 60.8723 130.685 62.3057C130.648 62.4387 126.666 61.1382 122.151 61.5668C121.471 61.6259 121.597 61.1013 122.402 60.8279C124.013 60.3107 126.03 59.8895 129.747 60.754C129.939 60.3772 130.109 55.9291 130.338 55.9661C131.424 56.32 132.457 56.8169 133.412 57.4438C134.21 50.9491 133.958 44.3805 134.845 37.9226C134.845 37.8697 134.866 37.819 134.904 37.7816C134.941 37.7442 134.992 37.7231 135.045 37.7231C135.098 37.7231 135.148 37.7442 135.186 37.7816C135.223 37.819 135.244 37.8697 135.244 37.9226C135.983 44.7942 135.244 52.2865 134.587 59.0177C134.483 59.8895 131.823 58.1236 131.313 57.7468Z" fill="#263238"/>
<path d="M125.957 42.7473C125.055 42.8323 124.15 42.8693 123.245 42.8582C122.196 42.8582 121.368 43.0207 120.452 42.437C120.226 42.2777 120.062 42.0455 119.986 41.7794C119.878 41.4528 119.894 41.0976 120.031 40.7819C120.243 40.3641 120.565 40.0118 120.962 39.7623C121.64 39.382 122.401 39.1739 123.178 39.1564C124.44 39.0267 125.704 39.3718 126.725 40.1243C126.954 40.3074 127.123 40.5543 127.211 40.8336C127.299 41.1129 127.302 41.4121 127.219 41.6932C127.137 41.9743 126.973 42.2245 126.748 42.4122C126.523 42.5999 126.248 42.7165 125.957 42.7473Z" fill="#263238"/>
<path d="M142.53 39.4594C141.727 39.0398 140.947 38.576 140.195 38.0703C139.301 37.5236 138.533 37.1837 138.082 36.1936C137.983 35.9017 137.983 35.5849 138.083 35.2933C138.184 35.0016 138.378 34.7517 138.636 34.5828C139.782 33.9178 141.038 34.3094 142.139 34.9227C143.268 35.4991 144.14 36.4769 144.584 37.664C144.677 37.9406 144.686 38.2384 144.61 38.52C144.533 38.8017 144.375 39.0544 144.156 39.2464C143.936 39.4384 143.665 39.5611 143.375 39.599C143.086 39.6369 142.792 39.5884 142.53 39.4594Z" fill="#263238"/>
<path d="M118.679 45.8728C119.96 45.5505 121.309 45.62 122.551 46.0723C123.211 46.3234 123.817 46.6969 124.339 47.1732C124.877 47.7051 125.289 48.3517 125.543 49.0647L126.016 50.3282L124.73 50.0105C123.822 49.7906 122.894 49.6644 121.96 49.6337C120.988 49.5846 120.021 49.7883 119.152 50.2248C119.803 49.3419 120.773 48.7481 121.856 48.5697C122.917 48.3641 124.01 48.3842 125.063 48.6288L124.257 49.5746C123.821 48.5617 123.052 47.7278 122.078 47.2102C121.006 46.6229 119.864 46.1736 118.679 45.8728Z" fill="#263238"/>
<path d="M121.73 51.747C122.744 51.6351 123.739 51.3865 124.686 51.0081C124.908 50.9047 125.772 50.4096 125.75 50.2692C125.712 49.7476 125.605 49.2333 125.432 48.7397C125.735 49.2024 125.946 49.7192 126.053 50.2618C125.956 50.5389 125.799 50.7912 125.593 51.0006C125.388 51.2101 125.139 51.3716 124.863 51.4736C123.864 51.8489 122.78 51.9434 121.73 51.747Z" fill="#263238"/>
<path d="M128.004 61.4706C128.004 61.4706 125.248 64.4852 122.521 64.5444C119.388 64.6109 119.396 61.7957 122.987 60.68C124.878 60.0889 128.004 61.4706 128.004 61.4706Z" fill="#263238"/>
<path d="M122.529 64.5369C123.722 64.4494 124.865 64.0239 125.824 63.3104C125.322 62.2685 123.992 61.0272 120.467 62.3646C119.825 63.4877 120.556 64.5812 122.529 64.5369Z" fill="#FF99BA"/>
<path d="M154.64 18.4901C154.293 20.389 152.246 23.1746 149.084 25.6129C148.405 26.1452 147.697 26.6385 146.963 27.0906C145.934 27.7441 144.854 28.3148 143.734 28.7974C141.73 29.6888 139.611 30.2932 137.439 30.5929C134.698 30.9624 131.587 30.0831 128.572 28.6718C132.671 24.0763 137.536 20.2263 142.951 17.2931C145.994 15.6348 149.194 14.2834 152.505 13.2588C154.041 15.372 154.862 17.2931 154.64 18.4901Z" fill="#263238"/>
<path d="M144.089 29.7579L143.675 29.9944C138.163 33.0829 132.296 33.6223 126.533 31.0879C126.954 30.5412 127.39 30.0092 127.834 29.4919C130.112 30.6473 132.611 31.3047 135.163 31.4204C138.119 31.4795 140.904 30.6003 143.683 29.7949L144.059 29.6841C144.089 29.6693 144.089 29.7358 144.089 29.7579Z" fill="#263238"/>
<path d="M128.62 165.744L143.06 170.246L157.003 125.533L142.564 121.03L128.62 165.744Z" fill="#EBEBEB"/>
<path d="M187.299 2.89961C175.224 -0.865808 162.304 -0.966081 150.172 2.61147C138.041 6.18902 127.242 13.2837 119.143 22.9984C111.043 32.713 106.006 44.6113 104.669 57.1886C103.332 69.7659 105.754 82.4573 111.63 93.6579C117.505 104.858 126.57 114.065 137.679 120.114C148.787 126.162 161.439 128.781 174.036 127.639C186.632 126.497 198.607 121.645 208.446 113.697C218.285 105.749 225.546 95.0616 229.311 82.9868C231.812 74.9696 232.709 66.5383 231.951 58.1744C231.194 49.8105 228.795 41.6778 224.894 34.2408C220.993 26.8038 215.665 20.2082 209.214 14.8306C202.763 9.45304 195.316 5.39885 187.299 2.89961ZM218.974 79.7431C215.851 89.7751 209.822 98.6553 201.651 105.261C193.48 111.866 183.534 115.9 173.07 116.851C162.606 117.803 152.095 115.63 142.866 110.608C133.637 105.585 126.105 97.9384 121.223 88.6346C116.341 79.3309 114.327 68.7882 115.437 58.34C116.547 47.8918 120.731 38.0075 127.459 29.9373C134.187 21.8671 143.158 15.9735 153.236 13.0021C163.314 10.0307 174.047 10.1148 184.077 13.2439C197.525 17.4394 208.756 26.8041 215.3 39.2787C221.844 51.7533 223.166 66.3163 218.974 79.7653V79.7431Z" fill="#455A64"/>
<path d="M108.608 216.872L130.442 223.677L150.858 158.205L129.024 151.4L108.608 216.872Z" fill="#263238"/>
<path d="M69.4621 86.8215C26.777 115.837 -6.76077 181.672 8.39366 192.481C22.2329 202.331 85.4293 210.525 106.347 210.111C112.494 209.985 117.829 158.848 111.261 158.966C103.318 159.114 57.6326 154.606 56.8642 154.385C55.2239 153.904 77.5528 113.894 87.4242 95.7029C101.234 70.315 85.481 75.9231 69.4621 86.8215Z" fill="#F7A9A0"/>
<path d="M167.637 172.458C168.583 177.46 163.943 179.95 163.943 179.95C163.943 179.95 166.78 182.861 166.787 186.77C166.787 191.24 159.79 193.22 159.79 193.22C161.167 195.529 161.816 198.199 161.652 200.882C161.224 205.168 154.433 208.168 154.433 208.168C154.526 210.988 153.6 213.747 151.825 215.941C146.852 221.608 135.481 219.753 128.24 218.645C120.999 217.537 101.507 207.621 97.5986 206.084L104.308 159.535C104.308 159.535 138.178 155.264 146.505 157.769C153.51 159.897 166.573 166.82 167.637 172.458Z" fill="#F7A9A0"/>
<path d="M163.721 179.108C156.805 175.066 149.069 173.3 141.444 171.091C141.411 171.088 141.379 171.097 141.352 171.115C141.325 171.134 141.305 171.162 141.296 171.193C141.287 171.225 141.29 171.258 141.303 171.288C141.317 171.318 141.34 171.342 141.37 171.357C148.98 173.463 156.066 177.054 163.536 179.485C163.561 179.497 163.588 179.504 163.615 179.506C163.643 179.507 163.671 179.504 163.697 179.495C163.723 179.486 163.747 179.472 163.767 179.454C163.788 179.435 163.805 179.413 163.817 179.388C163.829 179.364 163.836 179.337 163.838 179.309C163.84 179.282 163.836 179.254 163.827 179.228C163.818 179.202 163.804 179.178 163.786 179.157C163.768 179.137 163.746 179.12 163.721 179.108Z" fill="#263238"/>
<path d="M159.716 192.563C158.07 191.801 156.331 191.257 154.544 190.944C152.657 190.501 150.766 190.087 148.869 189.703C145.072 188.964 141.259 188.262 137.424 187.693C137.254 187.693 137.173 187.922 137.35 187.959C141.133 188.698 144.909 189.555 148.655 190.486C150.532 190.949 152.404 191.442 154.271 191.964C156.002 192.53 157.792 192.902 159.605 193.072C159.663 193.067 159.718 193.044 159.762 193.005C159.806 192.967 159.836 192.915 159.848 192.858C159.86 192.801 159.854 192.742 159.831 192.689C159.807 192.636 159.767 192.591 159.716 192.563Z" fill="#263238"/>
<path d="M154.271 208.109C152.919 207.303 151.027 207.178 149.498 206.904C147.764 206.594 146.04 206.271 144.325 205.936C140.86 205.271 137.395 204.606 133.981 203.816C133.804 203.779 133.73 204.045 133.907 204.082C137.402 204.902 140.882 205.759 144.385 206.55C146.099 206.934 147.823 207.308 149.557 207.673C151.034 207.983 152.823 208.545 154.322 208.286C154.34 208.275 154.354 208.258 154.361 208.239C154.368 208.219 154.369 208.198 154.363 208.178C154.358 208.158 154.345 208.14 154.329 208.128C154.312 208.115 154.292 208.109 154.271 208.109Z" fill="#263238"/>
<path d="M57.9873 152.774C57.5883 152.323 79.8064 113.931 89.7074 93.3606C99.6084 72.7902 89.3306 71.8001 69.632 85.8167C48.5296 100.838 5.17955 145.858 1.74376 188.299C0.642826 202.05 98.0789 213.251 98.0789 213.251L102.468 156.601C102.468 156.601 58.6006 153.468 57.9873 152.774Z" fill="#FFC727"/>
<path d="M97.4583 178.856C97.2529 178.372 96.9091 177.96 96.47 177.671C96.0309 177.381 95.5162 177.228 94.9904 177.231C94.6418 177.223 94.3008 177.127 93.9996 176.951C93.6984 176.775 93.4469 176.526 93.2688 176.226C93.0606 175.89 92.9458 175.505 92.9363 175.11C92.8551 174.682 92.8033 174.238 92.6851 173.802C92.5373 174.667 92.1974 175.517 92.5373 176.558C92.7255 177.056 93.0599 177.484 93.4965 177.788C93.9331 178.091 94.4514 178.255 94.983 178.258C95.3367 178.26 95.6844 178.349 95.9951 178.518C96.3058 178.687 96.5698 178.93 96.7637 179.226C96.978 179.551 97.0959 179.93 97.1036 180.319C97.2071 180.748 97.2514 181.176 97.3548 181.62C97.5396 180.763 97.8647 179.883 97.4583 178.856ZM20.4522 149.789C20.2493 149.303 19.9061 148.889 19.4665 148.599C19.0268 148.31 18.5108 148.158 17.9844 148.163C17.636 148.154 17.2955 148.058 16.9946 147.882C16.6936 147.706 16.4419 147.457 16.2628 147.158C16.1359 146.96 16.0482 146.739 16.0042 146.508C15.8342 146.804 15.6717 147.099 15.5091 147.395C15.5058 147.424 15.5058 147.454 15.5091 147.484C15.6961 147.982 16.03 148.412 16.4667 148.717C16.9034 149.022 17.4223 149.187 17.9548 149.19C18.3077 149.192 18.6547 149.281 18.9652 149.448C19.2757 149.616 19.5403 149.857 19.7355 150.151C19.9476 150.477 20.0653 150.856 20.0754 151.244C20.1788 151.68 20.2232 152.109 20.334 152.552C20.5113 151.688 20.8586 150.816 20.4522 149.789ZM35.2298 195.37C35.0269 194.885 34.6837 194.47 34.2441 194.181C33.8044 193.891 33.2884 193.739 32.762 193.745C32.4124 193.737 32.0707 193.64 31.7693 193.463C31.4679 193.286 31.217 193.034 31.0404 192.733C30.8321 192.397 30.7173 192.012 30.7079 191.617C30.6266 191.188 30.5749 190.745 30.4567 190.316C30.3089 191.174 29.969 192.031 30.3089 193.065C30.4967 193.563 30.8309 193.993 31.2674 194.297C31.7039 194.602 32.2223 194.767 32.7546 194.772C33.1074 194.774 33.4544 194.862 33.765 195.03C34.0755 195.197 34.3401 195.438 34.5353 195.732C34.7474 196.059 34.8651 196.437 34.8752 196.826C34.9786 197.255 35.0229 197.69 35.1264 198.134C35.2446 197.269 35.5993 196.397 35.1929 195.363L35.2298 195.37ZM63.0856 121.179C62.8797 120.694 62.5348 120.281 62.0943 119.992C61.6537 119.702 61.1374 119.55 60.6103 119.554C60.2598 119.55 59.9162 119.456 59.6131 119.28C59.31 119.104 59.0579 118.852 58.8814 118.549C58.6783 118.212 58.5686 117.827 58.5636 117.433C58.475 117.005 58.4306 116.561 58.305 116.118C58.1646 117.005 57.81 117.84 58.1646 118.882C58.3504 119.379 58.6818 119.808 59.1154 120.114C59.5491 120.42 60.065 120.588 60.5956 120.596C60.9482 120.59 61.2965 120.673 61.6079 120.839C61.9194 121.004 62.1837 121.246 62.3763 121.541C62.5899 121.865 62.7125 122.24 62.7309 122.628C62.8196 123.071 62.8639 123.514 62.9821 123.943C63.1299 123.093 63.492 122.214 63.0856 121.179ZM56.6647 178.856C56.4549 178.374 56.109 177.963 55.6694 177.675C55.2297 177.386 54.7154 177.232 54.1895 177.231C53.841 177.223 53.5002 177.126 53.1991 176.95C52.8981 176.775 52.6465 176.525 52.4679 176.226C52.2637 175.889 52.1493 175.504 52.1354 175.11C52.0615 174.682 52.0024 174.238 51.8916 173.802C51.7512 174.667 51.3965 175.517 51.7512 176.558C51.9362 177.053 52.2668 177.481 52.6994 177.784C53.132 178.087 53.6464 178.253 54.1747 178.258C54.5296 178.259 54.8788 178.347 55.1909 178.516C55.503 178.685 55.7682 178.929 55.9628 179.226C56.1751 179.553 56.2975 179.93 56.3174 180.319C56.3913 180.748 56.4504 181.176 56.5687 181.62C56.7091 180.763 57.0637 179.883 56.6647 178.856ZM82.3556 81.1913C82.1483 80.7083 81.8026 80.2975 81.362 80.0108C80.9215 79.7241 80.4059 79.5744 79.8803 79.5805H79.6143L78.4617 80.1864C78.8801 80.4592 79.3662 80.6102 79.8655 80.6223C80.2168 80.6183 80.5634 80.7029 80.8733 80.8682C81.1832 81.0335 81.4465 81.2742 81.6389 81.5681C81.8601 81.8935 81.9832 82.2756 81.9935 82.669C82.0896 83.0976 82.1339 83.5409 82.2447 83.9694C82.3925 83.0902 82.762 82.2183 82.3556 81.1913ZM79.2301 192.134C78.7426 191.934 78.2065 191.884 77.6904 191.991C77.1744 192.097 76.702 192.356 76.3337 192.733C76.0798 192.973 75.7693 193.146 75.431 193.235C75.0927 193.324 74.7374 193.327 74.3978 193.242C74.0155 193.146 73.6644 192.952 73.3782 192.681C73.0014 192.422 72.6393 192.156 72.2773 191.942C72.7797 192.681 73.1344 193.508 74.1171 193.996C74.5983 194.215 75.1344 194.284 75.6552 194.193C76.176 194.102 76.6572 193.855 77.0356 193.486C77.4264 193.099 77.9504 192.877 78.5002 192.864C79.0499 192.852 79.5834 193.051 79.9912 193.42C80.368 193.678 80.73 193.944 81.0995 194.159C80.597 193.442 80.235 192.57 79.2301 192.134ZM41.4955 128.502C41.0079 128.303 40.472 128.253 39.9562 128.36C39.4403 128.466 38.9679 128.724 38.5991 129.1C38.3456 129.341 38.0351 129.515 37.6967 129.604C37.3582 129.693 37.0027 129.695 36.6632 129.61C36.2813 129.514 35.9319 129.317 35.651 129.041C35.2742 128.79 34.9121 128.524 34.5427 128.302C35.0525 129.041 35.4071 129.869 36.3899 130.356C36.876 130.582 37.4192 130.653 37.9471 130.562C38.4751 130.471 38.9628 130.222 39.3454 129.846C39.592 129.593 39.8991 129.406 40.2378 129.304C40.5764 129.202 40.9356 129.188 41.2812 129.263C41.6647 129.337 42.0201 129.516 42.3083 129.78C42.6851 130.039 43.0472 130.305 43.4092 130.519C42.8624 129.81 42.5004 128.93 41.4955 128.502ZM15.7973 176.012C15.3095 175.814 14.7738 175.765 14.2582 175.871C13.7426 175.978 13.2702 176.235 12.9009 176.61C12.6473 176.851 12.3369 177.025 11.9984 177.114C11.66 177.203 11.3045 177.205 10.965 177.12C10.5838 177.026 10.2345 176.832 9.95274 176.558C9.57591 176.3 9.21386 176.034 8.84442 175.82C9.35425 176.558 9.70891 177.386 10.6916 177.874C11.1728 178.093 11.709 178.161 12.2298 178.07C12.7506 177.979 13.2318 177.733 13.6102 177.364C13.8576 177.111 14.1648 176.926 14.5032 176.823C14.8416 176.721 15.2003 176.707 15.5461 176.78C15.9279 176.859 16.2822 177.038 16.5731 177.297C16.9499 177.556 17.312 177.822 17.674 178.036C17.1716 177.32 16.8022 176.448 15.7973 176.012ZM61.2753 145.393C60.7878 145.192 60.2517 145.143 59.7357 145.249C59.2196 145.356 58.7472 145.614 58.3789 145.991C58.1227 146.233 57.8098 146.406 57.4688 146.496C57.1279 146.585 56.7701 146.586 56.4283 146.501C56.0489 146.403 55.7022 146.207 55.4234 145.932C55.0614 145.681 54.6845 145.415 54.3077 145.193C54.8249 145.932 55.1796 146.759 56.1623 147.247C56.6484 147.472 57.1916 147.544 57.7196 147.453C58.2475 147.362 58.7352 147.112 59.1178 146.737C59.3632 146.482 59.6702 146.294 60.0093 146.192C60.3483 146.09 60.708 146.076 61.0537 146.154C61.165 146.174 61.274 146.207 61.3788 146.25L61.7187 145.629C61.58 145.534 61.4314 145.455 61.2753 145.393ZM36.5376 160.067C36.04 160.252 35.6099 160.583 35.3039 161.017C34.998 161.45 34.8305 161.967 34.8234 162.498C34.8293 162.851 34.7448 163.2 34.578 163.512C34.4112 163.823 34.1676 164.087 33.8703 164.278C33.5433 164.491 33.1661 164.613 32.7767 164.633C32.3482 164.722 31.9049 164.766 31.4763 164.884C32.326 165.032 33.1979 165.394 34.2249 164.995C34.7095 164.788 35.1223 164.443 35.4115 164.003C35.7007 163.563 35.8534 163.047 35.8505 162.52C35.861 162.17 35.9583 161.828 36.1337 161.525C36.3091 161.222 36.5571 160.967 36.8554 160.783C37.1975 160.579 37.5876 160.47 37.9858 160.466C38.4144 160.377 38.8503 160.318 39.2937 160.207C38.4292 160.067 37.5795 159.719 36.5376 160.067ZM59.8567 95.3482C59.3584 95.5322 58.9278 95.8631 58.6217 96.2972C58.3156 96.7312 58.1485 97.248 58.1425 97.7791C58.143 98.3304 57.9302 98.8605 57.5487 99.2585C57.1672 99.6565 56.6466 99.8916 56.0958 99.9145C55.6672 100.003 55.2239 100.047 54.7954 100.166C55.6451 100.313 56.5169 100.676 57.544 100.277C58.0292 100.071 58.4425 99.7257 58.7318 99.2852C59.0211 98.8447 59.1734 98.3283 59.1695 97.8013C59.1813 97.4515 59.2792 97.1101 59.4545 96.8072C59.6298 96.5044 59.877 96.2494 60.1744 96.0649C60.5165 95.861 60.9066 95.7513 61.3049 95.7472C61.7334 95.6585 62.1694 95.6068 62.6053 95.496C61.763 95.3482 60.9207 95.0083 59.8567 95.3482ZM56.6278 203.609C56.1289 203.79 55.6974 204.119 55.391 204.552C55.0846 204.985 54.918 205.502 54.9136 206.032C54.9217 206.327 54.8636 206.62 54.7436 206.89L55.7411 207.067C55.8793 206.748 55.9473 206.402 55.9406 206.055C55.9511 205.705 56.0485 205.363 56.2239 205.06C56.3993 204.756 56.6472 204.502 56.9455 204.318C57.2883 204.117 57.6784 204.01 58.076 204.008C58.5045 203.912 58.9331 203.867 59.369 203.757C58.5341 203.609 57.6918 203.247 56.6573 203.609H56.6278ZM77.1391 160.074C76.6443 160.259 76.2164 160.588 75.9108 161.019C75.6051 161.45 75.4359 161.962 75.4249 162.49C75.4327 162.844 75.3508 163.195 75.1867 163.509C75.0226 163.823 74.7818 164.09 74.4865 164.286C74.1555 164.495 73.7767 164.617 73.3856 164.64C72.9496 164.714 72.5211 164.773 72.0778 164.892C72.9422 165.032 73.8141 165.387 74.8412 164.988C75.3232 164.778 75.7334 164.432 76.021 163.992C76.3085 163.552 76.4609 163.038 76.4593 162.512C76.4697 162.163 76.5679 161.823 76.7448 161.522C76.9218 161.221 77.1717 160.97 77.4716 160.791C77.8079 160.585 78.1931 160.473 78.5873 160.466C79.0306 160.384 79.4518 160.325 79.8951 160.214C79.0676 160.074 78.2105 159.719 77.1686 160.074H77.1391ZM83.9368 104.725C84.1732 104.274 84.4097 103.831 84.6313 103.387C84.2892 103.762 84.0588 104.225 83.9663 104.725H83.9368ZM81.8384 107.325C81.4098 107.407 80.9665 107.458 80.5232 107.584C81.1052 107.728 81.6985 107.822 82.2965 107.865C82.4221 107.614 82.5551 107.362 82.6881 107.126C82.4284 107.24 82.1508 107.307 81.8679 107.325H81.8384Z" fill="white"/>
<path d="M38.7982 153.395C40.6602 153.653 91.6872 155.345 102.438 157.008C102.608 157.008 102.63 156.454 102.438 156.431C69.1883 151.998 40.6749 152.183 38.4435 152.345C35.8131 152.508 35.3181 152.914 38.7982 153.395Z" fill="#263238"/>
<path d="M58.305 153.343C58.305 153.239 66.4327 138.425 67.3046 137.612C68.1764 136.799 70.1493 134.886 70.999 133.992C72.691 132.174 74.2648 130.297 75.8903 128.406C76.0233 128.251 75.7943 128.029 75.6613 128.177C73.9914 129.95 72.159 131.583 70.334 133.179L67.6001 135.514C67.5336 135.558 75.3879 120.98 76.6662 118.386C76.7622 118.194 76.5627 118.069 76.4445 118.217C74.6934 120.684 58.7114 149.804 56.746 152.981C56.746 153.003 57.3371 153.173 58.305 153.343Z" fill="#263238"/>
<path d="M18.0952 198.599C33.7964 203.254 94.584 212.579 97.7243 213.096C97.7826 211.978 97.9434 210.867 98.2045 209.779C98.2045 209.66 98.4706 209.646 98.4779 209.779C98.6062 211.329 98.6506 212.886 98.6109 214.441C98.6109 214.7 38.7617 206.52 18.073 198.754C17.9844 198.718 17.9992 198.57 18.0952 198.599Z" fill="#263238"/>
<path d="M85.3328 207.399C85.972 203.52 86.4159 199.612 86.6627 195.688C87.0273 191.846 87.3647 188.004 87.675 184.162C88.2957 176.411 89.1158 168.645 89.234 160.828C89.234 160.791 89.2193 160.755 89.1929 160.729C89.1666 160.702 89.1309 160.688 89.0937 160.688C89.0564 160.688 89.0207 160.702 88.9944 160.729C88.9681 160.755 88.9533 160.791 88.9533 160.828C87.5568 168.549 86.9509 176.448 86.2711 184.258C85.9313 188.174 85.6456 192.095 85.414 196.021C85.072 199.813 84.9438 203.622 85.0298 207.429C85.0372 207.577 85.2958 207.555 85.3328 207.399Z" fill="#263238"/>
<path d="M273.88 179.736C273.894 188.588 271.091 197.215 265.878 204.37C261.663 210.174 256.029 214.799 249.515 217.802C243.001 220.806 235.825 222.087 228.674 221.523C221.523 220.959 214.637 218.569 208.674 214.583C202.711 210.596 197.871 205.145 194.618 198.752C191.364 192.36 189.806 185.239 190.092 178.071C190.378 170.904 192.499 163.93 196.252 157.817C200.005 151.704 205.264 146.657 211.525 143.158C217.787 139.659 224.842 137.826 232.015 137.834C233.158 137.834 234.296 137.878 235.429 137.967C241.917 138.481 248.195 140.505 253.76 143.878C259.362 147.289 264.09 151.959 267.57 157.518C271.721 164.183 273.908 171.884 273.88 179.736Z" fill="#455A64"/>
<path d="M241.023 199.515C240.498 200.927 241.378 200.993 241.437 201.57C241.496 202.146 241.437 203.269 239.737 204.976C238.038 206.683 235.215 206.321 234.624 207.03C234.033 207.739 233.043 210.724 231.669 211.722C230.294 212.719 230.028 212.136 228.034 212.542C226.039 212.948 224.509 215.542 223.925 216.768C223.342 217.995 224.044 220.056 222.632 220.115C221.221 220.175 220.578 217.123 219.285 215.483C218.17 214.004 217.444 212.268 217.172 210.436C216.766 208.493 217.408 204.444 217.172 202.863C216.936 201.281 212.739 198.429 211.187 196.523C209.635 194.617 207.552 190.715 207.67 189.422C207.845 188.168 208.47 187.021 209.429 186.193C210.13 185.661 209.835 185.373 209.953 184.9C210.071 184.428 210.692 184.317 210.781 183.726C210.869 183.135 210.426 181.383 209.835 181.088C209.244 180.792 208.837 181.79 208.49 181.612C208.143 181.435 207.079 180.209 206.673 180.09C206.266 179.972 206.377 180.829 205.786 179.736C205.195 178.642 204.907 175.805 204.441 175.302C203.976 174.8 203.614 176.13 202.505 175.302C201.397 174.475 200.917 172.901 200.451 172.665C199.986 172.428 199.335 172.724 198.848 171.785C198.36 170.847 199.276 169.14 198.848 169.317C198.419 169.495 197.51 170.847 197.281 169.554C197.052 168.261 198.449 163.916 198.22 161.574C198.026 159.099 198.823 156.649 200.436 154.762C200.436 154.762 200.665 153.476 200.902 152.648C201.138 151.821 206.185 148.54 206.769 147.602C207.014 147.078 207.155 146.51 207.182 145.932C214.373 140.638 223.072 137.789 232.001 137.804C233.144 137.804 234.282 137.849 235.415 137.937C235.448 137.993 235.488 138.045 235.533 138.092C236.036 138.743 236.59 139.149 238.075 139.703C239.56 140.257 239.915 140.952 239.597 141.536C239.457 141.779 239.251 141.979 239.003 142.109C238.754 142.24 238.473 142.298 238.193 142.274C237.602 142.311 237.055 142.001 236.427 142.393C235.799 142.784 235.179 144.897 234.358 145.016C233.538 145.134 232.09 143.132 231.772 142.548C231.455 141.964 232.511 140.708 232.001 140.124C231.491 139.541 230.679 139.651 229.349 139.533C228.019 139.415 224.915 139.925 225.041 140.435C225.167 140.944 229.585 140.353 229.703 141.373C229.822 142.393 226.452 144.114 225.869 143.959C225.285 143.804 224.494 142.784 223.652 142.666C222.81 142.548 222.086 143.25 221.546 143.331C221.007 143.412 220.364 142.747 219.544 142.903C218.724 143.058 218.524 143.76 218.066 144.033C217.608 144.306 216.588 144.306 216.5 144.934C216.411 145.562 217.793 145.917 218.14 146.301C218.487 146.686 217.711 148.03 218.066 148.304C218.421 148.577 220.608 146.656 221.155 146.191C221.701 145.725 222.174 143.686 223.371 143.723C224.568 143.76 224.938 145.755 225.322 145.939C225.706 146.124 226.578 145.466 227.871 145.74C229.164 146.013 230.088 148.836 230.295 149.693C230.501 150.55 231.078 151.414 230.605 151.769C230.132 152.124 228.026 151.533 227.753 150.986C227.479 150.439 229.157 149.619 229.046 149.419C228.812 149.261 228.542 149.163 228.261 149.135C227.98 149.107 227.696 149.149 227.435 149.257C226.933 149.567 226.696 150.203 226.149 150.358C225.603 150.513 224.154 148.88 223.763 149.338C223.371 149.796 224.154 151.296 224.546 151.651C224.938 152.006 226.378 152.198 226.497 152.589C226.615 152.981 225.521 153.838 224.191 153.764C222.861 153.69 221.768 152.671 221.236 153.099C220.704 153.528 220.999 154.666 220.645 155.057C220.29 155.449 218.376 155.175 217.438 156.188C216.5 157.2 216.071 158.729 215.133 159.594C214.194 160.458 213.758 159.357 212.51 160.569C211.261 161.781 211.032 164.485 211.032 165.424C211.032 166.362 211.032 167.108 210.714 166.99C210.272 166.607 209.97 166.086 209.857 165.512C209.739 165.002 210.13 164.138 210.13 163.828C210.13 163.517 208.328 161.914 207.271 161.751C206.214 161.589 205.276 162.49 204.493 163.081C203.71 163.672 202.276 163.591 201.796 164.101C201.316 164.611 200.894 169.111 201.286 170.167C201.678 171.224 202.188 171.224 203.436 170.677C204.685 170.13 203.983 169.074 204.729 169.303C205.065 169.428 205.353 169.653 205.557 169.948C205.76 170.242 205.869 170.592 205.867 170.95C205.867 171.578 204.389 173.064 204.574 173.492C204.759 173.921 206.052 173.418 206.687 173.61C207.323 173.802 207.626 174.194 207.426 175.827C207.227 177.46 207.345 178.679 208.283 179.211C209.222 179.743 209.761 178.472 210.16 178.62C210.559 178.768 211.158 179.736 211.749 179.677C212.34 179.617 212.037 179.093 213.152 178.738C214.268 178.384 213.891 178.154 214.091 177.445C214.13 177.265 214.208 177.095 214.318 176.947C214.429 176.8 214.569 176.677 214.731 176.588C214.893 176.499 215.072 176.446 215.256 176.432C215.44 176.418 215.624 176.443 215.798 176.507C216.537 176.861 216.027 177.386 216.086 177.985C216.145 178.583 217.497 178.627 218.554 178.982C219.61 179.337 220.194 178.982 222.307 179.721C224.42 180.46 224.524 182.536 225.418 182.891C226.312 183.245 229.238 182.654 231.329 184.184C233.42 185.713 232.851 188.528 233.908 189.356C234.964 190.183 238.895 191.292 240.425 191.573C241.954 191.853 242.183 190.834 243.417 191.1C244.651 191.366 245.353 191.75 245.767 193.449C246.143 194.971 241.555 198.104 241.023 199.515Z" fill="#FFC727"/>
<path d="M209.487 169.502C209.524 169.835 210.507 169.975 211.704 170.64C212.901 171.305 213.307 173.263 213.92 173.219C214.534 173.174 214.349 172.28 214.585 172.051C214.692 171.985 214.781 171.893 214.842 171.783C214.903 171.673 214.935 171.549 214.935 171.423C214.935 171.298 214.903 171.174 214.842 171.064C214.781 170.954 214.692 170.862 214.585 170.795C213.957 170.285 213.344 169.192 212.206 169.037C211.068 168.882 210.861 168.409 210.359 168.446C210.228 168.445 210.099 168.474 209.98 168.53C209.862 168.586 209.757 168.667 209.673 168.768C209.59 168.869 209.53 168.987 209.498 169.114C209.466 169.241 209.462 169.374 209.487 169.502Z" fill="#FFC727"/>
<path d="M215.945 172.79C215.768 173.271 215.945 173.61 217.194 173.928C218.442 174.246 219.625 173.61 219.233 173.359C218.841 173.108 218.25 173.219 218.494 172.79C218.738 172.362 218.649 171.734 217.63 171.852C216.61 171.97 216.1 172.362 215.945 172.79Z" fill="#FFC727"/>
<path d="M220.326 172.923C219.898 172.99 219.661 173.729 220.09 174.202C220.518 174.674 220.518 174.593 221.028 174.202C221.538 173.81 222.321 173.618 222.129 173.226C221.937 172.835 220.755 172.864 220.326 172.923Z" fill="#FFC727"/>
<path d="M223.733 174.527C223.925 173.936 224.908 174.527 225.337 175.14C225.506 175.485 225.594 175.864 225.594 176.248C225.594 176.633 225.506 177.012 225.337 177.357C225.1 178.029 224.945 178.834 224.398 178.495C223.852 178.155 224.435 177.246 224.354 176.692C224.273 176.138 223.571 175.007 223.733 174.527Z" fill="#FFC727"/>
<path d="M240.594 141.883C240.387 142.371 241.332 142.548 241.887 142.858C242.441 143.169 242.862 143.368 243.18 142.858C243.236 142.744 243.267 142.618 243.269 142.491C243.271 142.363 243.245 142.236 243.192 142.12C243.139 142.004 243.06 141.901 242.962 141.819C242.864 141.737 242.749 141.678 242.625 141.647C242.197 141.528 240.793 141.425 240.594 141.883Z" fill="#FFC727"/>
<path d="M247.991 146.457C248.353 146.841 248.966 146.775 249.402 147.321C249.838 147.868 249.675 148.799 250.222 149.08C250.769 149.361 251.16 149.08 251.197 148.688C251.234 148.297 250.414 147.321 250.495 147.122C250.577 146.922 251.626 147.395 251.862 147.986C252.099 148.577 251.626 149.39 252.18 149.553C252.734 149.715 252.609 149.006 252.845 148.814C253.081 148.622 253.584 148.74 253.547 148.267C253.359 147.545 252.948 146.901 252.372 146.427C251.863 145.988 251.262 145.667 250.614 145.489C250.259 145.389 249.887 145.365 249.523 145.42C249.158 145.475 248.81 145.607 248.5 145.807C248.064 146.183 247.769 146.228 247.991 146.457Z" fill="#FFC727"/>
<path d="M264.918 153.831C264.896 153.991 264.818 154.138 264.696 154.244C263.876 154.836 262.893 152.767 261.741 152.405C260.588 152.043 260.1 150.565 259.864 150.882C259.628 151.2 259.709 151.621 259.354 152.131C259 152.641 258.49 152.523 258.261 153.506C258.032 154.488 259.354 156.284 259.044 156.867C258.734 157.451 258.305 157.259 257.707 157.222C257.108 157.185 257.204 157.725 256.384 157.495C255.564 157.266 256.266 156.239 254.973 155.028C253.68 153.816 253.251 153.55 253.495 153.033C253.739 152.515 253.377 151.703 253.96 151.621C254.544 151.54 255.017 152.405 255.438 152.641C255.859 152.877 256.34 152.176 256.377 151.548C256.413 150.919 255.01 150.07 254.5 149.575C253.99 149.08 253.953 147.358 254.152 146.966C254.352 146.575 254.936 146.73 255.091 145.873C255.18 145.363 254.352 144.521 253.702 143.907C258.001 146.521 261.8 149.882 264.918 153.831Z" fill="#FFC727"/>
<path d="M270.762 188.913C270.88 187.664 270.252 187.583 270.88 185.277C271.071 184.366 271.068 183.425 270.872 182.515C270.676 181.605 270.291 180.746 269.743 179.994C269.277 179.485 268.265 179.64 267.437 180.15C266.61 180.659 267.201 181.051 266.654 181.243C266.107 181.435 265.561 181.125 265.051 181.169C264.541 181.214 264.068 182.492 262.974 182.455C261.881 182.418 261.179 180.852 260.351 179.736C259.524 178.62 257.847 177.918 257.3 176.551C256.753 175.184 257.81 173.064 257.573 171.46C257.337 169.857 256.288 170.212 256.095 169.31C255.903 168.409 256.251 168.837 256.524 167.98C256.797 167.123 256.214 166.65 256.76 165.165C257.307 163.68 258.29 162.948 258.054 162.269C257.817 161.589 257.078 160.503 257.034 159.727C256.99 158.951 257.773 158.988 259.25 157.887C260.728 156.786 261.127 156.867 262.265 157.259C263.08 157.56 263.917 157.795 264.77 157.961C265.435 158.079 266.336 159.801 266.61 159.727C266.883 159.653 266.92 159.136 267.038 158.397C267.113 158.072 267.283 157.776 267.526 157.547C271.941 164.631 274.141 172.87 273.846 181.211C273.552 189.553 270.775 197.616 265.871 204.37C269.868 198.319 270.644 190.191 270.762 188.913Z" fill="#FFC727"/>
<g opacity="0.3">
<path d="M117.556 48.1486C114.43 58.1793 114.349 68.9118 117.322 78.9888C120.296 89.0657 126.192 98.0344 134.263 104.761C142.334 111.487 152.219 115.668 162.667 116.776C173.115 117.884 183.657 115.869 192.96 110.985C202.262 106.101 209.907 98.5683 214.928 89.3391C219.949 80.1099 222.121 69.599 221.168 59.1357C220.214 48.6725 216.18 38.7269 209.574 30.5568C202.968 22.3867 194.087 16.3592 184.056 13.2365C170.608 9.05051 156.048 10.3768 143.577 16.9237C131.107 23.4706 121.747 34.7022 117.556 48.1486Z" fill="white"/>
<path d="M115.14 62.9854C114.909 76.9826 120.204 90.5068 129.878 100.626C139.552 110.745 152.824 116.643 166.817 117.042L115.14 62.9854Z" fill="#EBEBEB"/>
<path d="M143.048 17.2043L213.825 91.2843C216 87.6662 217.737 83.8017 218.997 79.7726C220.45 75.1577 221.253 70.3632 221.384 65.527L169.138 10.8499C160.04 10.6959 151.056 12.8841 143.048 17.2043Z" fill="#EBEBEB"/>
<path d="M119.389 43.1538L186.804 113.717C190.065 112.495 193.2 110.96 196.166 109.136L124.376 33.9917C122.405 36.8676 120.734 39.9376 119.389 43.1538Z" fill="#EBEBEB"/>
<path d="M136.9 21.0907L209.658 97.2545C210.064 96.752 210.463 96.2496 210.847 95.7324L138.437 19.9824C137.942 20.3371 137.44 20.6991 136.9 21.0907Z" fill="#EBEBEB"/>
<path d="M186.605 14.0936L218.901 47.8974C218.428 46.4196 217.874 44.8827 217.253 43.4198L190.986 15.926C189.577 15.2561 188.117 14.6453 186.605 14.0936Z" fill="#EBEBEB"/>
</g>
</svg>
