<svg width="586" height="600" viewBox="0 0 586 600" fill="none" xmlns="http://www.w3.org/2000/svg">
<path d="M0 518.262L73.1983 517.918L146.382 517.789L292.75 517.559L439.118 517.789L512.316 517.918L585.5 518.262L512.316 518.62L439.118 518.749L292.75 518.978L146.382 518.749L73.1983 518.62L0 518.262Z" fill="white" fill-opacity="0.5"/>
<path d="M422.521 311.881C452.237 311.881 476.327 287.792 476.327 258.076C476.327 228.359 452.237 204.27 422.521 204.27C392.805 204.27 368.715 228.359 368.715 258.076C368.715 287.792 392.805 311.881 422.521 311.881Z" fill="#FFC727"/>
<path opacity="0.3" d="M422.521 311.881C452.237 311.881 476.327 287.792 476.327 258.076C476.327 228.359 452.237 204.27 422.521 204.27C392.805 204.27 368.715 228.359 368.715 258.076C368.715 287.792 392.805 311.881 422.521 311.881Z" fill="white"/>
<path d="M423.022 321.8C410.423 321.803 398.107 318.069 387.63 311.071C377.153 304.074 368.987 294.126 364.164 282.486C359.341 270.847 358.078 258.039 360.536 245.682C362.993 233.325 369.06 221.974 377.969 213.065C386.877 204.156 398.228 198.089 410.585 195.632C422.942 193.175 435.751 194.438 447.39 199.26C459.029 204.083 468.977 212.249 475.975 222.726C482.973 233.203 486.706 245.52 486.704 258.119C486.685 275.002 479.969 291.189 468.031 303.127C456.092 315.066 439.906 321.781 423.022 321.8ZM423.022 195.857C410.708 195.854 398.668 199.503 388.427 206.343C378.187 213.182 370.204 222.905 365.489 234.282C360.775 245.659 359.54 258.178 361.94 270.257C364.341 282.335 370.27 293.431 378.977 302.14C387.684 310.849 398.778 316.78 410.856 319.184C422.934 321.587 435.454 320.355 446.832 315.643C458.209 310.931 467.934 302.951 474.776 292.711C481.618 282.472 485.27 270.434 485.27 258.119C485.27 241.602 478.715 225.76 467.044 214.072C455.372 202.385 439.54 195.808 423.022 195.785V195.857Z" fill="#FFC727"/>
<path d="M182.652 119.426C210.647 109.457 225.26 78.6826 215.291 50.6883C205.323 22.694 174.548 8.08106 146.554 18.0494C118.56 28.0177 103.947 58.7925 113.915 86.7868C123.883 114.781 154.658 129.394 182.652 119.426Z" fill="#FFC727"/>
<path opacity="0.3" d="M182.652 119.426C210.647 109.457 225.26 78.6826 215.291 50.6883C205.323 22.694 174.548 8.08106 146.554 18.0494C118.56 28.0177 103.947 58.7925 113.915 86.7868C123.883 114.781 154.658 129.394 182.652 119.426Z" fill="white"/>
<path d="M164.599 130.111C152.458 130.111 140.589 126.511 130.494 119.766C120.398 113.02 112.53 103.433 107.884 92.2156C103.238 80.9984 102.022 68.6553 104.391 56.7472C106.759 44.8391 112.606 33.9009 121.191 25.3156C129.776 16.7303 140.715 10.8837 152.623 8.51503C164.531 6.14636 176.874 7.36205 188.091 12.0084C199.308 16.6547 208.896 24.5229 215.641 34.6181C222.387 44.7133 225.987 56.5821 225.987 68.7234C225.972 84.9999 219.499 100.605 207.99 112.115C196.481 123.624 180.875 130.096 164.599 130.111ZM164.599 8.76877C152.741 8.76877 141.149 12.2851 131.29 18.873C121.43 25.4609 113.746 34.8245 109.208 45.7798C104.67 56.7351 103.483 68.79 105.796 80.42C108.11 92.0501 113.82 102.733 122.205 111.118C130.589 119.503 141.272 125.213 152.902 127.526C164.532 129.839 176.587 128.652 187.543 124.114C198.498 119.577 207.862 111.892 214.449 102.032C221.037 92.173 224.554 80.5814 224.554 68.7234C224.535 52.8283 218.212 37.5896 206.972 26.35C195.733 15.1105 180.494 8.78773 164.599 8.76877Z" fill="#FFC727"/>
<path d="M561.452 183.08C563.94 167.837 553.6 153.464 538.358 150.977C523.116 148.489 508.743 158.828 506.255 174.07C503.767 189.313 514.107 203.685 529.349 206.173C544.591 208.661 558.964 198.322 561.452 183.08Z" fill="#FFC727"/>
<path opacity="0.3" d="M561.452 183.08C563.94 167.837 553.6 153.464 538.358 150.977C523.116 148.489 508.743 158.828 506.255 174.07C503.767 189.313 514.107 203.685 529.349 206.173C544.591 208.661 558.964 198.322 561.452 183.08Z" fill="white"/>
<path d="M533.888 215.607C526.568 215.607 519.413 213.437 513.327 209.37C507.241 205.304 502.498 199.524 499.697 192.762C496.896 186 496.163 178.559 497.591 171.38C499.019 164.201 502.544 157.607 507.719 152.431C512.895 147.256 519.489 143.731 526.668 142.303C533.846 140.875 541.287 141.608 548.05 144.409C554.812 147.21 560.592 151.953 564.658 158.039C568.725 164.125 570.895 171.28 570.895 178.6C570.88 188.41 566.976 197.814 560.039 204.751C553.102 211.688 543.698 215.592 533.888 215.607ZM533.888 143.025C526.852 143.025 519.974 145.112 514.123 149.021C508.273 152.93 503.714 158.486 501.021 164.986C498.329 171.486 497.624 178.639 498.997 185.54C500.369 192.441 503.757 198.779 508.733 203.755C513.708 208.73 520.047 212.118 526.947 213.49C533.848 214.863 541.001 214.159 547.501 211.466C554.002 208.774 559.558 204.214 563.467 198.364C567.375 192.514 569.462 185.636 569.462 178.6C569.45 169.168 565.699 160.126 559.03 153.457C552.361 146.788 543.319 143.037 533.888 143.025Z" fill="#FFC727"/>
<path d="M184.362 318.059C195.282 307.138 195.282 289.433 184.362 278.512C173.441 267.592 155.736 267.592 144.815 278.512C133.895 289.433 133.895 307.138 144.815 318.059C155.736 328.979 173.441 328.979 184.362 318.059Z" fill="#FFC727"/>
<path opacity="0.3" d="M184.362 318.059C195.282 307.138 195.282 289.433 184.362 278.512C173.441 267.592 155.736 267.592 144.815 278.512C133.895 289.433 133.895 307.138 144.815 318.059C155.736 328.979 173.441 328.979 184.362 318.059Z" fill="white"/>
<path d="M164.6 334.241C157.487 334.241 150.534 332.132 144.62 328.18C138.707 324.229 134.097 318.613 131.376 312.042C128.654 305.47 127.942 298.24 129.329 291.264C130.717 284.288 134.142 277.88 139.171 272.851C144.2 267.822 150.608 264.397 157.584 263.009C164.56 261.622 171.79 262.334 178.361 265.056C184.932 267.778 190.549 272.387 194.5 278.301C198.452 284.214 200.561 291.167 200.561 298.28C200.553 307.815 196.762 316.957 190.02 323.7C183.277 330.442 174.135 334.233 164.6 334.241ZM164.6 263.752C157.771 263.752 151.095 265.777 145.417 269.571C139.739 273.365 135.313 278.757 132.7 285.066C130.086 291.376 129.403 298.318 130.735 305.016C132.067 311.714 135.356 317.866 140.185 322.695C145.013 327.524 151.166 330.812 157.863 332.144C164.561 333.477 171.504 332.793 177.813 330.179C184.122 327.566 189.515 323.141 193.309 317.462C197.103 311.784 199.128 305.109 199.128 298.28C199.116 289.126 195.475 280.35 189.002 273.877C182.529 267.404 173.753 263.763 164.6 263.752Z" fill="#FFC727"/>
<path d="M292.751 68.7377C308.195 68.7377 320.714 56.218 320.714 40.7741C320.714 25.3303 308.195 12.8105 292.751 12.8105C277.307 12.8105 264.787 25.3303 264.787 40.7741C264.787 56.218 277.307 68.7377 292.751 68.7377Z" fill="#FFC727"/>
<path opacity="0.3" d="M292.751 68.7377C308.195 68.7377 320.714 56.218 320.714 40.7741C320.714 25.3303 308.195 12.8105 292.751 12.8105C277.307 12.8105 264.787 25.3303 264.787 40.7741C264.787 56.218 277.307 68.7377 292.751 68.7377Z" fill="white"/>
<path d="M292.75 77.4664C285.493 77.4664 278.399 75.3145 272.365 71.2827C266.331 67.2509 261.628 61.5203 258.851 54.8157C256.074 48.111 255.347 40.7334 256.763 33.6158C258.178 26.4982 261.673 19.9602 266.805 14.8287C271.936 9.69723 278.474 6.20262 285.592 4.78684C292.709 3.37106 300.087 4.09769 306.791 6.87484C313.496 9.65199 319.227 14.3549 323.258 20.389C327.29 26.423 329.442 33.5171 329.442 40.7741C329.431 50.502 325.561 59.8283 318.683 66.7069C311.804 73.5856 302.478 77.455 292.75 77.4664ZM292.75 5.5151C285.776 5.5151 278.959 7.58301 273.161 11.4573C267.363 15.3316 262.844 20.8383 260.175 27.2811C257.506 33.7238 256.808 40.8132 258.168 47.6528C259.529 54.4924 262.887 60.775 267.818 65.706C272.749 70.6371 279.032 73.9952 285.871 75.3556C292.711 76.7161 299.8 76.0179 306.243 73.3492C312.686 70.6805 318.192 66.1613 322.067 60.363C325.941 54.5647 328.009 47.7477 328.009 40.7741C327.998 31.4263 324.279 22.4647 317.669 15.8548C311.059 9.24491 302.098 5.52648 292.75 5.5151Z" fill="#FFC727"/>
<path d="M152.836 208.392C158.555 172.367 133.986 138.526 97.9612 132.808C61.936 127.089 28.0959 151.657 22.3771 187.682C16.6584 223.708 41.2267 257.548 77.2519 263.267C113.277 268.985 147.117 244.417 152.836 208.392Z" fill="#FFC727"/>
<path opacity="0.3" d="M152.836 208.392C158.555 172.367 133.986 138.526 97.9612 132.808C61.936 127.089 28.0959 151.657 22.3771 187.682C16.6584 223.708 41.2267 257.548 77.2519 263.267C113.277 268.985 147.117 244.417 152.836 208.392Z" fill="white"/>
<path d="M87.6031 272.552C72.8622 272.552 58.4523 268.181 46.1957 259.991C33.9391 251.802 24.3863 240.161 18.7452 226.543C13.1041 212.924 11.6281 197.938 14.5039 183.48C17.3797 169.023 24.4781 155.743 34.9015 145.319C45.3249 134.896 58.6051 127.797 73.0627 124.922C87.5204 122.046 102.506 123.522 116.125 129.163C129.744 134.804 141.384 144.357 149.574 156.613C157.763 168.87 162.134 183.28 162.134 198.021C162.134 217.788 154.282 236.745 140.305 250.722C126.327 264.7 107.37 272.552 87.6031 272.552ZM87.6031 124.923C73.1457 124.923 59.0129 129.21 46.992 137.242C34.9711 145.274 25.602 156.69 20.0694 170.047C14.5367 183.404 13.0892 198.102 15.9097 212.281C18.7302 226.461 25.6921 239.486 35.915 249.709C46.1379 259.932 59.1628 266.894 73.3424 269.714C87.522 272.535 102.22 271.087 115.576 265.555C128.933 260.022 140.35 250.653 148.382 238.632C156.414 226.611 160.701 212.478 160.701 198.021C160.69 178.641 152.983 160.06 139.276 146.361C125.569 132.661 106.982 124.966 87.6031 124.966V124.923Z" fill="#FFC727"/>
<path d="M436.108 153.99C472.584 153.99 502.154 124.42 502.154 87.9439C502.154 51.4676 472.584 21.8977 436.108 21.8977C399.632 21.8977 370.062 51.4676 370.062 87.9439C370.062 124.42 399.632 153.99 436.108 153.99Z" fill="#FFC727"/>
<path opacity="0.3" d="M436.194 154.334C472.67 154.334 502.24 124.764 502.24 88.2879C502.24 51.8116 472.67 22.2417 436.194 22.2417C399.718 22.2417 370.148 51.8116 370.148 88.2879C370.148 124.764 399.718 154.334 436.194 154.334Z" fill="white"/>
<path d="M436.08 163.808C421.075 163.811 406.406 159.364 393.928 151.03C381.45 142.695 371.724 130.848 365.98 116.986C360.236 103.124 358.732 87.8694 361.657 73.1523C364.583 58.4351 371.807 44.916 382.416 34.3048C393.025 23.6936 406.543 16.4668 421.26 13.5384C435.976 10.61 451.231 12.1115 465.094 17.8531C478.957 23.5946 490.807 33.3183 499.143 45.7945C507.48 58.2706 511.93 72.9387 511.93 87.9439C511.903 108.054 503.904 127.332 489.685 141.554C475.467 155.775 456.19 163.778 436.08 163.808ZM436.08 13.5272C421.358 13.5244 406.965 17.8877 394.723 26.0652C382.48 34.2426 372.938 45.867 367.303 59.4681C361.668 73.0691 360.193 88.0359 363.064 102.475C365.935 116.915 373.025 130.179 383.435 140.589C393.845 150.999 407.109 158.088 421.548 160.96C435.988 163.831 450.954 162.356 464.556 156.721C478.157 151.085 489.781 141.543 497.958 129.301C506.136 117.059 510.499 102.666 510.496 87.9439C510.466 68.2167 502.616 49.3061 488.667 35.3569C474.718 21.4076 455.807 13.5576 436.08 13.5272Z" fill="#FFC727"/>
<path d="M161.389 198.049C167.796 197.863 174.203 197.705 180.61 197.619C187.016 197.533 193.509 197.419 199.844 197.419L199.5 197.519L216.456 186.425L233.512 175.489C239.246 171.82 244.979 168.323 250.712 164.654C256.445 160.984 262.178 157.487 267.912 153.99C262.331 157.812 256.737 161.601 251.128 165.356C245.495 169.083 239.905 172.866 234.229 176.55L217.273 187.629L200.188 198.537L200.031 198.637H199.844C193.438 198.637 187.031 198.494 180.61 198.422C174.188 198.35 167.796 198.221 161.389 198.049Z" fill="#FFC727"/>
<path d="M182.387 266.991C187.317 260.876 192.286 254.784 197.293 248.717C202.309 242.654 207.326 236.591 212.371 230.585L227.564 212.54L242.872 194.61L243.058 194.38H243.33L263.669 194.61L273.845 194.782L284.022 194.997L273.845 195.226L263.669 195.398L243.33 195.613L243.803 195.398L228.639 213.458L213.346 231.402C208.258 237.408 203.098 243.327 197.952 249.276C192.807 255.224 187.532 261.115 182.387 266.991Z" fill="#FFC727"/>
<path d="M209.204 110.504C213.174 114.101 217.058 117.771 220.899 121.483C224.74 125.195 228.539 128.95 232.366 132.691L231.878 132.491C235.161 132.491 238.443 132.491 241.725 132.491L251.586 132.577C258.151 132.706 264.715 132.835 271.28 133.164C264.715 133.494 258.151 133.623 251.586 133.752L241.725 133.838C238.443 133.838 235.161 133.838 231.878 133.838H231.577L231.391 133.637C227.65 129.81 223.852 126.055 220.183 122.171C216.513 118.287 212.801 114.474 209.204 110.504Z" fill="#FFC727"/>
<path d="M292.75 76.7068C293.051 80.6627 293.18 84.6186 293.295 88.5745C293.409 92.5303 293.452 96.5006 293.467 100.456C293.481 104.412 293.467 108.368 293.295 112.338L293.108 118.272C292.979 120.25 292.908 122.228 292.75 124.206C292.592 122.228 292.521 120.25 292.392 118.272L292.205 112.338C292.062 108.368 292.048 104.412 292.033 100.456C292.019 96.5006 292.033 92.5303 292.205 88.5745C292.377 84.6186 292.449 80.7057 292.75 76.7068Z" fill="#FFC727"/>
<path d="M312.028 182.297C327.494 182.011 342.959 181.867 358.424 181.753L404.82 181.581L451.215 181.753L474.406 181.953L497.597 182.297L474.406 182.656L451.215 182.856L404.82 183.014L358.424 182.856C342.916 182.77 327.494 182.598 312.028 182.297Z" fill="#FFC727"/>
<path d="M364.272 235.358C357.765 235.645 351.243 235.788 344.736 235.903H344.507L344.335 235.717C340.88 232.004 337.526 228.177 334.13 224.408C330.733 220.638 327.393 216.811 324.096 212.941L319.08 207.208L314.149 201.475C310.838 197.62 307.599 193.707 304.389 189.765C307.915 193.415 311.393 197.118 314.823 200.873L319.997 206.463L325.085 212.196C328.468 215.98 331.879 219.735 335.204 223.577C338.53 227.418 341.927 231.202 345.238 235.043L344.836 234.857C351.243 234.943 357.765 235.086 364.272 235.358Z" fill="#FFC727"/>
<path d="M361.821 99.2811C357.521 99.4961 353.092 99.6538 348.735 99.7398C344.378 99.8258 340.02 99.9261 335.663 99.9405L336.122 99.7541C333.728 102.062 331.378 104.412 328.955 106.663L321.703 113.485C316.83 117.986 311.928 122.472 306.897 126.815C311.441 121.97 316.142 117.283 320.857 112.596L328.024 105.659C330.389 103.337 332.84 101.087 335.19 98.7938L335.377 98.6218H335.649C339.949 98.6218 344.363 98.6218 348.72 98.8082C353.078 98.9945 357.464 99.0518 361.821 99.2811Z" fill="#FFC727"/>
<path d="M325.558 157.831C323.064 179.202 309.333 183.129 307.04 188.833C305.875 192.416 304.918 196.062 304.173 199.755H281.857C281.118 196.056 280.161 192.405 278.99 188.819C276.711 183.086 262.966 179.202 260.472 157.831C258.824 143.785 269.387 121.612 293.008 121.612C316.629 121.612 327.149 143.785 325.558 157.831Z" fill="#FFC727"/>
<path d="M281.617 165.542L280.208 165.805L286.843 201.324L288.252 201.061L281.617 165.542Z" fill="white"/>
<path d="M304.468 165.586L297.828 201.104L299.237 201.368L305.877 165.85L304.468 165.586Z" fill="white"/>
<path d="M293.022 177.582C291.245 177.582 289.454 176.149 287.977 173.64C287.977 173.554 287.877 173.468 287.834 173.368C287.603 173.658 287.314 173.897 286.986 174.07C286.658 174.242 286.298 174.345 285.928 174.371C282.531 174.371 281.169 167.42 281.112 167.205L281.828 167.062C282.172 168.925 283.591 173.726 285.928 173.726C286.239 173.684 286.537 173.576 286.804 173.411C287.071 173.246 287.299 173.026 287.476 172.766C286.042 169.899 285.254 166.101 286.286 164.31C286.442 164.018 286.676 163.775 286.962 163.608C287.248 163.441 287.575 163.356 287.906 163.364C288.291 163.351 288.673 163.445 289.009 163.634C289.345 163.824 289.623 164.102 289.812 164.439C290.858 166.273 290.084 169.871 288.766 172.164C288.633 172.398 288.484 172.623 288.321 172.838L288.608 173.354C289.382 174.687 290.987 176.937 293.022 176.937C294.384 176.937 295.746 175.862 296.878 173.898L297.136 173.44C295.784 171.739 295.064 169.621 295.101 167.449C295.101 164.926 296.061 163.364 297.609 163.364C297.908 163.369 298.199 163.456 298.452 163.615C298.705 163.774 298.909 164 299.042 164.267C300.031 165.987 299.501 170.086 297.953 173.325C298.535 173.874 299.303 174.181 300.103 174.185C302.11 174.185 303.887 169.34 304.403 167.477L305.105 167.664C304.89 168.409 303.013 174.902 300.103 174.902C299.19 174.891 298.311 174.556 297.623 173.956L297.451 174.257C296.176 176.478 294.585 177.654 292.979 177.654L293.022 177.582ZM297.609 164.009C296.29 164.009 295.817 165.829 295.817 167.377C295.806 169.272 296.381 171.125 297.466 172.68C298.799 169.742 299.3 166.001 298.469 164.553C298.391 164.391 298.269 164.254 298.117 164.158C297.965 164.061 297.789 164.01 297.609 164.009ZM287.906 164.009C287.701 163.999 287.499 164.05 287.323 164.154C287.147 164.259 287.006 164.412 286.917 164.596C286.143 165.929 286.644 169.168 287.963 172.035L288.135 171.734C289.339 169.656 290.07 166.259 289.181 164.725C289.06 164.496 288.876 164.306 288.649 164.179C288.423 164.052 288.165 163.993 287.906 164.009Z" fill="white"/>
<path d="M306.796 198.809H279.249V204.198H306.796V198.809Z" fill="#263238"/>
<path d="M306.796 205.058H279.249V210.447H306.796V205.058Z" fill="#263238"/>
<path d="M306.796 211.322H279.249V216.711H306.796V211.322Z" fill="#263238"/>
<path d="M347.359 342.626C347.418 342.921 347.37 343.228 347.223 343.491C347.075 343.754 346.839 343.956 346.556 344.059L341.754 344.891C336.021 333.252 330.13 324.151 331.807 327.763C334.373 333.462 336.129 339.493 337.025 345.679C334.918 346.023 329.987 346.783 327.522 347.112C321.201 326.243 314.479 310.979 315.367 315.823C318.936 335.302 318.607 341.723 318.148 348.588C295.215 352.1 265.116 356.343 243.187 358.908C239.245 347.442 235.504 334.929 235.218 335.861C233.039 342.798 233.383 352.516 234.214 359.94C227.234 360.7 221.659 361.173 218.233 361.287C218.233 361.287 215.367 351.57 214.779 348.388C213.156 340.149 212.977 331.691 214.249 323.391C215.582 314.92 218.706 307.238 221.616 299.383C221.608 299.326 221.608 299.269 221.616 299.212C223.541 294.072 224.873 288.729 225.586 283.288C225.596 283.245 225.596 283.201 225.586 283.159C226.052 279.192 226.181 275.193 225.973 271.205C225.242 256.6 231.376 243.256 243.688 238.125C264.887 211.394 290.27 219.119 299.802 236.978C300.719 238.712 301.651 240.719 302.582 242.926C306.065 251.053 309.591 261.702 312.615 269.915C312.615 269.915 312.615 269.915 312.615 270.001C313.773 273.218 315.123 276.362 316.657 279.418C324.813 294.023 339.762 301.189 347.359 342.626Z" fill="#263238"/>
<path d="M238.729 242.625C230.918 248.158 226.604 255.525 226.575 266.217C226.575 272.481 226.905 278.543 225.385 284.592C223.866 290.64 220.784 296.144 217.66 301.462C212.672 309.889 209.49 318.102 209.82 328.594C210.149 339.086 212.127 351.656 216.642 361.158C216.642 361.158 216.757 361.158 216.728 361.158C212.815 351.441 211.081 337.624 211.497 326.989C211.941 315.322 217.158 307.467 222.332 298.093C226.519 290.657 228.702 282.261 228.668 273.727C228.668 268.424 227.937 262.992 229.313 257.861C230.961 251.726 235.203 247.498 239.46 243.7C240.034 243.127 239.331 242.209 238.729 242.625Z" fill="#263238"/>
<path d="M332.882 294.295C325.974 286.67 318.979 280.292 314.25 270.445C309.95 261.473 306.997 251.812 302.669 242.869C302.657 242.84 302.635 242.817 302.607 242.805C302.578 242.793 302.547 242.793 302.518 242.804C302.49 242.816 302.467 242.838 302.455 242.866C302.443 242.894 302.442 242.926 302.454 242.955C309.391 258.95 312.358 275.49 323.953 288.347C330.288 295.327 336.537 301.748 341.153 310.42C345.922 319.552 349.037 329.456 350.354 339.673C350.354 340.046 350.842 339.974 350.827 339.673C350.354 322.911 344.002 306.848 332.882 294.295Z" fill="#263238"/>
<path d="M316.17 353.333C361.476 400.818 417.805 500.059 406.668 519.795C394.256 541.782 328.926 474.188 330.976 470.949C332.725 468.211 310.15 408.457 293.71 364.756C277.27 321.055 304.976 341.522 316.17 353.333Z" fill="#F7A9A0"/>
<path d="M371.682 410.192L306.639 421.916C306.639 421.916 290.399 375.821 287.175 350.251C285.369 335.918 293.796 335.316 304.374 342.941C341.482 369.586 371.682 410.192 371.682 410.192Z" fill="#FFC727"/>
<path d="M295.187 365.2C295.187 365.441 295.115 365.677 294.981 365.877C294.847 366.078 294.657 366.234 294.435 366.326C294.212 366.418 293.967 366.442 293.731 366.395C293.494 366.348 293.277 366.232 293.107 366.062C292.936 365.891 292.82 365.674 292.773 365.438C292.726 365.202 292.751 364.957 292.843 364.734C292.935 364.512 293.091 364.321 293.291 364.187C293.492 364.053 293.727 363.982 293.968 363.982C294.291 363.982 294.601 364.11 294.83 364.339C295.058 364.567 295.187 364.877 295.187 365.2ZM314.278 363.982C314.037 363.982 313.802 364.053 313.601 364.187C313.401 364.321 313.245 364.512 313.153 364.734C313.06 364.957 313.036 365.202 313.083 365.438C313.13 365.674 313.246 365.891 313.417 366.062C313.587 366.232 313.804 366.348 314.04 366.395C314.277 366.442 314.522 366.418 314.744 366.326C314.967 366.234 315.157 366.078 315.291 365.877C315.425 365.677 315.496 365.441 315.496 365.2C315.496 365.038 315.464 364.877 315.401 364.727C315.338 364.578 315.246 364.442 315.129 364.329C315.013 364.215 314.876 364.126 314.724 364.066C314.573 364.007 314.412 363.978 314.249 363.982H314.278ZM304.13 348.216C303.889 348.216 303.654 348.287 303.454 348.421C303.253 348.555 303.097 348.745 303.005 348.968C302.913 349.191 302.888 349.435 302.935 349.672C302.982 349.908 303.099 350.125 303.269 350.296C303.439 350.466 303.656 350.582 303.893 350.629C304.129 350.676 304.374 350.652 304.597 350.56C304.819 350.467 305.009 350.311 305.143 350.111C305.277 349.911 305.349 349.675 305.349 349.434C305.334 349.121 305.199 348.826 304.972 348.609C304.745 348.393 304.444 348.273 304.13 348.273V348.216ZM314.249 395.658C314.008 395.658 313.773 395.729 313.573 395.863C313.372 395.997 313.216 396.187 313.124 396.41C313.032 396.633 313.007 396.878 313.055 397.114C313.102 397.35 313.218 397.567 313.388 397.738C313.558 397.908 313.775 398.024 314.012 398.071C314.248 398.118 314.493 398.094 314.716 398.002C314.938 397.909 315.129 397.753 315.262 397.553C315.396 397.353 315.468 397.117 315.468 396.876C315.468 396.553 315.339 396.243 315.111 396.015C314.882 395.786 314.573 395.658 314.249 395.658ZM334.559 395.658C334.318 395.658 334.083 395.729 333.882 395.863C333.682 395.997 333.526 396.187 333.434 396.41C333.341 396.633 333.317 396.878 333.364 397.114C333.411 397.35 333.527 397.567 333.698 397.738C333.868 397.908 334.085 398.024 334.322 398.071C334.558 398.118 334.803 398.094 335.025 398.002C335.248 397.909 335.438 397.753 335.572 397.553C335.706 397.353 335.777 397.117 335.777 396.876C335.778 396.558 335.653 396.252 335.431 396.025C335.209 395.797 334.906 395.665 334.588 395.658H334.559ZM354.869 395.658C354.628 395.658 354.392 395.729 354.192 395.863C353.992 395.997 353.836 396.187 353.743 396.41C353.651 396.633 353.627 396.878 353.674 397.114C353.721 397.35 353.837 397.567 354.007 397.738C354.178 397.908 354.395 398.024 354.631 398.071C354.868 398.118 355.113 398.094 355.335 398.002C355.558 397.909 355.748 397.753 355.882 397.553C356.016 397.353 356.087 397.117 356.087 396.876C356.087 396.558 355.963 396.252 355.741 396.025C355.518 395.797 355.216 395.665 354.898 395.658H354.869ZM304.102 379.892C303.861 379.892 303.625 379.963 303.425 380.097C303.224 380.231 303.068 380.421 302.976 380.644C302.884 380.866 302.86 381.111 302.907 381.348C302.954 381.584 303.07 381.801 303.24 381.971C303.411 382.142 303.628 382.258 303.864 382.305C304.1 382.352 304.345 382.328 304.568 382.235C304.791 382.143 304.981 381.987 305.115 381.787C305.249 381.586 305.32 381.351 305.32 381.11C305.302 380.803 305.17 380.514 304.95 380.299C304.73 380.084 304.438 379.959 304.13 379.949L304.102 379.892ZM324.397 379.892C324.156 379.892 323.921 379.963 323.72 380.097C323.52 380.231 323.364 380.421 323.272 380.644C323.179 380.866 323.155 381.111 323.202 381.348C323.249 381.584 323.365 381.801 323.536 381.971C323.706 382.142 323.923 382.258 324.159 382.305C324.396 382.352 324.641 382.328 324.863 382.235C325.086 382.143 325.276 381.987 325.41 381.787C325.544 381.586 325.615 381.351 325.615 381.11C325.598 380.803 325.466 380.514 325.246 380.299C325.026 380.084 324.733 379.959 324.426 379.949L324.397 379.892ZM344.707 379.892C344.466 379.892 344.23 379.963 344.03 380.097C343.83 380.231 343.674 380.421 343.581 380.644C343.489 380.866 343.465 381.111 343.512 381.348C343.559 381.584 343.675 381.801 343.845 381.971C344.016 382.142 344.233 382.258 344.469 382.305C344.706 382.352 344.951 382.328 345.173 382.235C345.396 382.143 345.586 381.987 345.72 381.787C345.854 381.586 345.925 381.351 345.925 381.11C345.908 380.803 345.776 380.514 345.556 380.299C345.335 380.084 345.043 379.959 344.736 379.949L344.707 379.892ZM304.102 411.582C303.781 411.58 303.473 411.704 303.242 411.926C303.471 412.657 303.715 413.359 303.93 414.004H304.102C304.261 414.004 304.419 413.972 304.566 413.911C304.713 413.85 304.846 413.76 304.958 413.646C305.07 413.533 305.158 413.399 305.218 413.251C305.278 413.103 305.308 412.945 305.306 412.786C305.295 412.48 305.166 412.191 304.948 411.977C304.729 411.764 304.436 411.643 304.13 411.639L304.102 411.582ZM324.397 411.582C324.153 411.579 323.913 411.649 323.708 411.782C323.504 411.916 323.344 412.108 323.248 412.333C323.153 412.558 323.126 412.806 323.172 413.046C323.218 413.286 323.334 413.507 323.506 413.681C323.678 413.855 323.897 413.973 324.137 414.022C324.376 414.071 324.625 414.047 324.851 413.954C325.077 413.862 325.271 413.704 325.407 413.501C325.543 413.298 325.615 413.059 325.615 412.814C325.605 412.502 325.476 412.206 325.255 411.985C325.034 411.764 324.738 411.635 324.426 411.625L324.397 411.582ZM344.707 411.582C344.463 411.579 344.223 411.649 344.018 411.782C343.814 411.916 343.653 412.108 343.558 412.333C343.462 412.558 343.436 412.806 343.482 413.046C343.528 413.286 343.644 413.507 343.816 413.681C343.988 413.855 344.207 413.973 344.447 414.022C344.686 414.071 344.935 414.047 345.161 413.954C345.387 413.862 345.58 413.704 345.716 413.501C345.853 413.298 345.925 413.059 345.925 412.814C345.915 412.502 345.786 412.206 345.565 411.985C345.344 411.764 345.048 411.635 344.736 411.625L344.707 411.582Z" fill="white"/>
<path d="M307.083 411.252C316.944 408.629 343.89 402.265 361.95 400.416C362.064 400.416 362.15 400.818 362.036 400.846C347.258 404.644 317.274 410.091 307.226 411.868C307.083 411.897 306.868 411.309 307.083 411.252Z" fill="#263238"/>
<path opacity="0.1" d="M362.981 411.768L306.639 421.901C306.639 421.901 290.414 375.807 287.189 350.237C286.028 341.064 289.081 337.524 294.198 338.154L362.981 411.768Z" fill="black"/>
<path d="M342.6 517.775H177.771C177.771 517.775 192.778 402.767 245.881 342.282C260.214 325.971 286.2 330.816 298.483 341.838C302.822 346.047 306.823 350.59 310.451 355.425C321.616 369.758 339.848 404.229 341.553 413.545C344.42 428.953 330.746 445.594 330.746 445.594L342.6 517.775Z" fill="#FFC727"/>
<path d="M274.877 333.524C274.877 333.765 274.806 334.001 274.672 334.201C274.538 334.402 274.348 334.558 274.125 334.65C273.903 334.742 273.658 334.766 273.421 334.719C273.185 334.672 272.968 334.556 272.798 334.386C272.627 334.216 272.511 333.998 272.464 333.762C272.417 333.526 272.441 333.281 272.534 333.058C272.626 332.836 272.782 332.645 272.982 332.511C273.183 332.378 273.418 332.306 273.659 332.306C273.982 332.306 274.292 332.435 274.521 332.663C274.749 332.891 274.877 333.201 274.877 333.524ZM233.054 363.982C232.813 363.982 232.577 364.053 232.377 364.187C232.177 364.321 232.021 364.511 231.928 364.734C231.836 364.957 231.812 365.202 231.859 365.438C231.906 365.674 232.022 365.891 232.192 366.062C232.363 366.232 232.58 366.348 232.816 366.395C233.053 366.442 233.298 366.418 233.52 366.326C233.743 366.234 233.933 366.077 234.067 365.877C234.201 365.677 234.272 365.441 234.272 365.2C234.272 365.04 234.241 364.882 234.179 364.734C234.118 364.586 234.029 364.452 233.915 364.339C233.802 364.226 233.668 364.136 233.52 364.075C233.372 364.013 233.214 363.982 233.054 363.982ZM253.364 363.982C253.123 363.982 252.887 364.053 252.687 364.187C252.486 364.321 252.33 364.511 252.238 364.734C252.146 364.957 252.122 365.202 252.169 365.438C252.216 365.674 252.332 365.891 252.502 366.062C252.673 366.232 252.89 366.348 253.126 366.395C253.362 366.442 253.607 366.418 253.83 366.326C254.053 366.234 254.243 366.077 254.377 365.877C254.511 365.677 254.582 365.441 254.582 365.2C254.582 364.877 254.454 364.567 254.225 364.339C253.997 364.11 253.687 363.982 253.364 363.982ZM273.659 363.982C273.418 363.982 273.183 364.053 272.982 364.187C272.782 364.321 272.626 364.511 272.534 364.734C272.441 364.957 272.417 365.202 272.464 365.438C272.511 365.674 272.627 365.891 272.798 366.062C272.968 366.232 273.185 366.348 273.421 366.395C273.658 366.442 273.903 366.418 274.125 366.326C274.348 366.234 274.538 366.077 274.672 365.877C274.806 365.677 274.877 365.441 274.877 365.2C274.877 365.04 274.846 364.882 274.785 364.734C274.723 364.586 274.634 364.452 274.521 364.339C274.407 364.226 274.273 364.136 274.125 364.075C273.978 364.013 273.819 363.982 273.659 363.982ZM293.969 363.982C293.728 363.982 293.492 364.053 293.292 364.187C293.092 364.321 292.936 364.511 292.843 364.734C292.751 364.957 292.727 365.202 292.774 365.438C292.821 365.674 292.937 365.891 293.107 366.062C293.278 366.232 293.495 366.348 293.731 366.395C293.968 366.442 294.213 366.418 294.435 366.326C294.658 366.234 294.848 366.077 294.982 365.877C295.116 365.677 295.187 365.441 295.187 365.2C295.187 365.04 295.156 364.882 295.094 364.734C295.033 364.586 294.943 364.452 294.83 364.339C294.717 364.226 294.583 364.136 294.435 364.075C294.287 364.013 294.129 363.982 293.969 363.982ZM314.279 363.982C314.038 363.982 313.802 364.053 313.602 364.187C313.401 364.321 313.245 364.511 313.153 364.734C313.061 364.957 313.037 365.202 313.084 365.438C313.131 365.674 313.247 365.891 313.417 366.062C313.588 366.232 313.805 366.348 314.041 366.395C314.277 366.442 314.522 366.418 314.745 366.326C314.968 366.234 315.158 366.077 315.292 365.877C315.426 365.677 315.497 365.441 315.497 365.2C315.497 365.038 315.465 364.877 315.402 364.727C315.339 364.578 315.246 364.442 315.13 364.329C315.014 364.215 314.876 364.126 314.725 364.066C314.574 364.007 314.412 363.978 314.25 363.982H314.279ZM243.202 348.216C242.961 348.216 242.725 348.287 242.525 348.421C242.324 348.555 242.168 348.745 242.076 348.968C241.984 349.19 241.96 349.435 242.007 349.672C242.054 349.908 242.17 350.125 242.34 350.295C242.511 350.466 242.728 350.582 242.964 350.629C243.2 350.676 243.445 350.652 243.668 350.56C243.89 350.467 244.081 350.311 244.215 350.111C244.348 349.911 244.42 349.675 244.42 349.434C244.405 349.121 244.27 348.826 244.043 348.609C243.817 348.393 243.515 348.273 243.202 348.273V348.216ZM263.511 348.216C263.27 348.216 263.035 348.287 262.835 348.421C262.634 348.555 262.478 348.745 262.386 348.968C262.294 349.19 262.27 349.435 262.317 349.672C262.364 349.908 262.48 350.125 262.65 350.295C262.82 350.466 263.037 350.582 263.274 350.629C263.51 350.676 263.755 350.652 263.978 350.56C264.2 350.467 264.391 350.311 264.524 350.111C264.658 349.911 264.73 349.675 264.73 349.434C264.715 349.121 264.58 348.826 264.353 348.609C264.126 348.393 263.825 348.273 263.511 348.273V348.216ZM283.821 348.216C283.58 348.216 283.345 348.287 283.144 348.421C282.944 348.555 282.788 348.745 282.696 348.968C282.603 349.19 282.579 349.435 282.626 349.672C282.673 349.908 282.789 350.125 282.96 350.295C283.13 350.466 283.347 350.582 283.584 350.629C283.82 350.676 284.065 350.652 284.287 350.56C284.51 350.467 284.7 350.311 284.834 350.111C284.968 349.911 285.039 349.675 285.039 349.434C285.025 349.121 284.89 348.826 284.663 348.609C284.436 348.393 284.135 348.273 283.821 348.273V348.216ZM305.321 349.004L304.819 348.388C304.588 348.252 304.318 348.197 304.052 348.23C303.786 348.263 303.538 348.383 303.347 348.571C303.156 348.759 303.033 349.005 302.996 349.271C302.959 349.536 303.011 349.807 303.143 350.04C303.275 350.273 303.481 350.456 303.728 350.561C303.975 350.665 304.249 350.685 304.509 350.618C304.768 350.55 304.998 350.399 305.163 350.188C305.328 349.976 305.419 349.716 305.421 349.448C305.398 349.298 305.339 349.155 305.249 349.033L305.321 349.004ZM212.816 395.6H212.644C212.371 396.231 212.085 396.862 211.813 397.478C211.931 397.651 212.092 397.791 212.281 397.884C212.469 397.976 212.679 398.018 212.888 398.006C213.098 397.994 213.301 397.928 213.477 397.814C213.654 397.701 213.798 397.543 213.896 397.357C213.994 397.172 214.042 396.964 214.036 396.754C214.029 396.544 213.969 396.339 213.86 396.159C213.752 395.98 213.598 395.831 213.415 395.728C213.232 395.625 213.026 395.571 212.816 395.572V395.6ZM233.126 395.6C232.885 395.6 232.649 395.672 232.449 395.806C232.248 395.94 232.092 396.13 232 396.352C231.908 396.575 231.884 396.82 231.931 397.056C231.978 397.293 232.094 397.51 232.264 397.68C232.435 397.851 232.652 397.967 232.888 398.014C233.124 398.061 233.369 398.036 233.592 397.944C233.814 397.852 234.005 397.696 234.139 397.496C234.272 397.295 234.344 397.06 234.344 396.819C234.337 396.657 234.297 396.499 234.228 396.353C234.159 396.207 234.062 396.076 233.942 395.968C233.822 395.86 233.681 395.777 233.529 395.724C233.377 395.671 233.215 395.648 233.054 395.658L233.126 395.6ZM253.435 395.6C253.194 395.6 252.959 395.672 252.759 395.806C252.558 395.94 252.402 396.13 252.31 396.352C252.218 396.575 252.193 396.82 252.24 397.056C252.287 397.293 252.404 397.51 252.574 397.68C252.744 397.851 252.961 397.967 253.198 398.014C253.434 398.061 253.679 398.036 253.902 397.944C254.124 397.852 254.314 397.696 254.448 397.496C254.582 397.295 254.654 397.06 254.654 396.819C254.646 396.657 254.607 396.499 254.538 396.353C254.469 396.207 254.372 396.076 254.252 395.968C254.132 395.86 253.991 395.777 253.839 395.724C253.686 395.671 253.525 395.648 253.364 395.658L253.435 395.6ZM273.731 395.6C273.49 395.6 273.254 395.672 273.054 395.806C272.854 395.94 272.697 396.13 272.605 396.352C272.513 396.575 272.489 396.82 272.536 397.056C272.583 397.293 272.699 397.51 272.869 397.68C273.04 397.851 273.257 397.967 273.493 398.014C273.729 398.061 273.974 398.036 274.197 397.944C274.42 397.852 274.61 397.696 274.744 397.496C274.878 397.295 274.949 397.06 274.949 396.819C274.942 396.657 274.902 396.499 274.833 396.353C274.764 396.207 274.667 396.076 274.547 395.968C274.427 395.86 274.287 395.777 274.134 395.724C273.982 395.671 273.82 395.648 273.659 395.658L273.731 395.6ZM294.041 395.6C293.8 395.6 293.564 395.672 293.364 395.806C293.163 395.94 293.007 396.13 292.915 396.352C292.823 396.575 292.799 396.82 292.846 397.056C292.893 397.293 293.009 397.51 293.179 397.68C293.349 397.851 293.567 397.967 293.803 398.014C294.039 398.061 294.284 398.036 294.507 397.944C294.729 397.852 294.92 397.696 295.054 397.496C295.187 397.295 295.259 397.06 295.259 396.819C295.252 396.657 295.212 396.499 295.143 396.353C295.074 396.207 294.977 396.076 294.857 395.968C294.737 395.86 294.596 395.777 294.444 395.724C294.292 395.671 294.13 395.648 293.969 395.658L294.041 395.6ZM314.35 395.6C314.109 395.6 313.874 395.672 313.674 395.806C313.473 395.94 313.317 396.13 313.225 396.352C313.133 396.575 313.108 396.82 313.155 397.056C313.202 397.293 313.318 397.51 313.489 397.68C313.659 397.851 313.876 397.967 314.113 398.014C314.349 398.061 314.594 398.036 314.817 397.944C315.039 397.852 315.229 397.696 315.363 397.496C315.497 397.295 315.569 397.06 315.569 396.819C315.562 396.655 315.521 396.494 315.45 396.346C315.38 396.198 315.28 396.066 315.157 395.957C315.033 395.849 314.89 395.767 314.734 395.715C314.578 395.664 314.414 395.644 314.25 395.658L314.35 395.6ZM334.416 395.6C334.155 395.662 333.922 395.81 333.755 396.021C333.589 396.232 333.498 396.493 333.499 396.761C333.499 397.086 333.627 397.397 333.855 397.628C334.083 397.859 334.393 397.99 334.717 397.994C334.983 397.994 335.242 397.903 335.448 397.736C334.99 397.134 334.646 396.432 334.316 395.715L334.416 395.6ZM223.021 379.834C222.78 379.834 222.544 379.906 222.344 380.039C222.144 380.173 221.988 380.364 221.895 380.586C221.803 380.809 221.779 381.054 221.826 381.29C221.873 381.526 221.989 381.744 222.159 381.914C222.33 382.084 222.547 382.2 222.783 382.247C223.02 382.294 223.264 382.27 223.487 382.178C223.71 382.086 223.9 381.93 224.034 381.729C224.168 381.529 224.239 381.293 224.239 381.052C224.207 380.728 224.046 380.429 223.794 380.222C223.541 380.015 223.217 379.917 222.892 379.949L223.021 379.834ZM243.331 379.834C243.09 379.834 242.854 379.906 242.654 380.039C242.453 380.173 242.297 380.364 242.205 380.586C242.113 380.809 242.089 381.054 242.136 381.29C242.183 381.526 242.299 381.744 242.469 381.914C242.64 382.084 242.857 382.2 243.093 382.247C243.329 382.294 243.574 382.27 243.797 382.178C244.019 382.086 244.21 381.93 244.344 381.729C244.477 381.529 244.549 381.293 244.549 381.052C244.516 380.728 244.356 380.429 244.104 380.222C243.851 380.015 243.527 379.917 243.202 379.949L243.331 379.834ZM263.64 379.834C263.399 379.834 263.164 379.906 262.964 380.039C262.763 380.173 262.607 380.364 262.515 380.586C262.423 380.809 262.399 381.054 262.446 381.29C262.493 381.526 262.609 381.744 262.779 381.914C262.949 382.084 263.166 382.2 263.403 382.247C263.639 382.294 263.884 382.27 264.107 382.178C264.329 382.086 264.52 381.93 264.653 381.729C264.787 381.529 264.859 381.293 264.859 381.052C264.826 380.728 264.666 380.429 264.413 380.222C264.161 380.015 263.836 379.917 263.511 379.949L263.64 379.834ZM283.95 379.834C283.709 379.834 283.474 379.906 283.273 380.039C283.073 380.173 282.917 380.364 282.825 380.586C282.732 380.809 282.708 381.054 282.755 381.29C282.802 381.526 282.918 381.744 283.089 381.914C283.259 382.084 283.476 382.2 283.712 382.247C283.949 382.294 284.194 382.27 284.416 382.178C284.639 382.086 284.829 381.93 284.963 381.729C285.097 381.529 285.168 381.293 285.168 381.052C285.136 380.728 284.976 380.429 284.723 380.222C284.471 380.015 284.146 379.917 283.821 379.949L283.95 379.834ZM304.26 379.834C304.019 379.834 303.783 379.906 303.583 380.039C303.383 380.173 303.227 380.364 303.134 380.586C303.042 380.809 303.018 381.054 303.065 381.29C303.112 381.526 303.228 381.744 303.398 381.914C303.569 382.084 303.786 382.2 304.022 382.247C304.259 382.294 304.504 382.27 304.726 382.178C304.949 382.086 305.139 381.93 305.273 381.729C305.407 381.529 305.478 381.293 305.478 381.052C305.446 380.728 305.285 380.429 305.033 380.222C304.78 380.015 304.456 379.917 304.131 379.949L304.26 379.834ZM324.555 379.834C324.314 379.834 324.079 379.906 323.879 380.039C323.678 380.173 323.522 380.364 323.43 380.586C323.338 380.809 323.313 381.054 323.36 381.29C323.407 381.526 323.524 381.744 323.694 381.914C323.864 382.084 324.081 382.2 324.318 382.247C324.554 382.294 324.799 382.27 325.022 382.178C325.244 382.086 325.435 381.93 325.568 381.729C325.702 381.529 325.774 381.293 325.774 381.052C325.741 380.728 325.581 380.429 325.328 380.222C325.076 380.015 324.751 379.917 324.426 379.949L324.555 379.834ZM212.873 427.219C212.632 427.219 212.397 427.29 212.196 427.424C211.996 427.558 211.84 427.748 211.748 427.971C211.655 428.194 211.631 428.439 211.678 428.675C211.725 428.911 211.841 429.128 212.012 429.299C212.182 429.469 212.399 429.585 212.635 429.632C212.872 429.679 213.117 429.655 213.339 429.563C213.562 429.471 213.752 429.314 213.886 429.114C214.02 428.914 214.091 428.678 214.091 428.437C214.077 428.276 214.031 428.118 213.955 427.975C213.879 427.832 213.775 427.705 213.65 427.602C213.524 427.499 213.38 427.423 213.224 427.376C213.069 427.33 212.905 427.316 212.744 427.334L212.873 427.219ZM233.183 427.219C232.942 427.219 232.706 427.29 232.506 427.424C232.306 427.558 232.15 427.748 232.057 427.971C231.965 428.194 231.941 428.439 231.988 428.675C232.035 428.911 232.151 429.128 232.321 429.299C232.492 429.469 232.709 429.585 232.945 429.632C233.182 429.679 233.427 429.655 233.649 429.563C233.872 429.471 234.062 429.314 234.196 429.114C234.33 428.914 234.401 428.678 234.401 428.437C234.387 428.276 234.341 428.118 234.265 427.975C234.189 427.832 234.085 427.705 233.96 427.602C233.834 427.499 233.689 427.423 233.534 427.376C233.378 427.33 233.215 427.316 233.054 427.334L233.183 427.219ZM253.493 427.219C253.252 427.219 253.016 427.29 252.816 427.424C252.616 427.558 252.459 427.748 252.367 427.971C252.275 428.194 252.251 428.439 252.298 428.675C252.345 428.911 252.461 429.128 252.631 429.299C252.802 429.469 253.019 429.585 253.255 429.632C253.491 429.679 253.736 429.655 253.959 429.563C254.182 429.471 254.372 429.314 254.506 429.114C254.64 428.914 254.711 428.678 254.711 428.437C254.697 428.276 254.65 428.118 254.574 427.975C254.499 427.832 254.395 427.705 254.269 427.602C254.144 427.499 253.999 427.423 253.844 427.376C253.688 427.33 253.525 427.316 253.364 427.334L253.493 427.219ZM273.788 427.219C273.547 427.219 273.312 427.29 273.111 427.424C272.911 427.558 272.755 427.748 272.663 427.971C272.57 428.194 272.546 428.439 272.593 428.675C272.64 428.911 272.756 429.128 272.927 429.299C273.097 429.469 273.314 429.585 273.55 429.632C273.787 429.679 274.032 429.655 274.254 429.563C274.477 429.471 274.667 429.314 274.801 429.114C274.935 428.914 275.006 428.678 275.006 428.437C274.992 428.276 274.946 428.118 274.87 427.975C274.794 427.832 274.69 427.705 274.565 427.602C274.439 427.499 274.295 427.423 274.139 427.376C273.984 427.33 273.82 427.316 273.659 427.334L273.788 427.219ZM294.098 427.219C293.857 427.219 293.621 427.29 293.421 427.424C293.221 427.558 293.065 427.748 292.972 427.971C292.88 428.194 292.856 428.439 292.903 428.675C292.95 428.911 293.066 429.128 293.236 429.299C293.407 429.469 293.624 429.585 293.86 429.632C294.097 429.679 294.341 429.655 294.564 429.563C294.787 429.471 294.977 429.314 295.111 429.114C295.245 428.914 295.316 428.678 295.316 428.437C295.302 428.276 295.255 428.118 295.18 427.975C295.104 427.832 295 427.705 294.875 427.602C294.749 427.499 294.604 427.423 294.449 427.376C294.293 427.33 294.13 427.316 293.969 427.334L294.098 427.219ZM314.408 427.219C314.167 427.219 313.931 427.29 313.731 427.424C313.53 427.558 313.374 427.748 313.282 427.971C313.19 428.194 313.166 428.439 313.213 428.675C313.26 428.911 313.376 429.128 313.546 429.299C313.717 429.469 313.934 429.585 314.17 429.632C314.406 429.679 314.651 429.655 314.874 429.563C315.096 429.471 315.287 429.314 315.421 429.114C315.555 428.914 315.626 428.678 315.626 428.437C315.612 428.273 315.565 428.113 315.487 427.968C315.409 427.822 315.303 427.694 315.174 427.591C315.046 427.487 314.897 427.411 314.739 427.367C314.58 427.323 314.413 427.312 314.25 427.334L314.408 427.219ZM334.717 427.219C334.476 427.219 334.241 427.29 334.041 427.424C333.84 427.558 333.684 427.748 333.592 427.971C333.5 428.194 333.476 428.439 333.523 428.675C333.57 428.911 333.686 429.128 333.856 429.299C334.026 429.469 334.243 429.585 334.48 429.632C334.716 429.679 334.961 429.655 335.184 429.563C335.406 429.471 335.597 429.314 335.73 429.114C335.864 428.914 335.936 428.678 335.936 428.437C335.921 428.276 335.875 428.118 335.799 427.975C335.723 427.832 335.62 427.705 335.494 427.602C335.369 427.499 335.224 427.423 335.068 427.376C334.913 427.33 334.75 427.316 334.588 427.334L334.717 427.219ZM223.021 411.453C222.776 411.45 222.537 411.52 222.332 411.653C222.128 411.787 221.967 411.979 221.872 412.204C221.776 412.429 221.75 412.677 221.796 412.917C221.842 413.157 221.958 413.378 222.13 413.552C222.302 413.726 222.521 413.844 222.761 413.893C223 413.942 223.249 413.918 223.475 413.825C223.701 413.733 223.894 413.575 224.03 413.372C224.166 413.169 224.239 412.93 224.239 412.685C224.196 412.368 224.032 412.08 223.78 411.882C223.529 411.684 223.21 411.592 222.892 411.625L223.021 411.453ZM243.331 411.453C243.086 411.45 242.847 411.52 242.642 411.653C242.437 411.787 242.277 411.979 242.182 412.204C242.086 412.429 242.06 412.677 242.106 412.917C242.152 413.157 242.268 413.378 242.44 413.552C242.611 413.726 242.831 413.844 243.071 413.893C243.31 413.942 243.559 413.918 243.785 413.825C244.011 413.733 244.204 413.575 244.34 413.372C244.476 413.169 244.549 412.93 244.549 412.685C244.506 412.368 244.341 412.08 244.09 411.882C243.839 411.684 243.52 411.592 243.202 411.625L243.331 411.453ZM263.64 411.453C263.396 411.45 263.156 411.52 262.952 411.653C262.747 411.787 262.587 411.979 262.491 412.204C262.396 412.429 262.369 412.677 262.415 412.917C262.461 413.157 262.578 413.378 262.749 413.552C262.921 413.726 263.141 413.844 263.38 413.893C263.62 413.942 263.868 413.918 264.094 413.825C264.32 413.733 264.514 413.575 264.65 413.372C264.786 413.169 264.859 412.93 264.859 412.685C264.816 412.368 264.651 412.08 264.4 411.882C264.148 411.684 263.83 411.592 263.511 411.625L263.64 411.453ZM283.95 411.453C283.706 411.45 283.466 411.52 283.262 411.653C283.057 411.787 282.897 411.979 282.801 412.204C282.706 412.429 282.679 412.677 282.725 412.917C282.771 413.157 282.887 413.378 283.059 413.552C283.231 413.726 283.451 413.844 283.69 413.893C283.93 413.942 284.178 413.918 284.404 413.825C284.63 413.733 284.824 413.575 284.96 413.372C285.096 413.169 285.168 412.93 285.168 412.685C285.126 412.368 284.961 412.08 284.709 411.882C284.458 411.684 284.14 411.592 283.821 411.625L283.95 411.453ZM304.26 411.453C304.016 411.45 303.776 411.52 303.571 411.653C303.367 411.787 303.206 411.979 303.111 412.204C303.015 412.429 302.989 412.677 303.035 412.917C303.081 413.157 303.197 413.378 303.369 413.552C303.541 413.726 303.76 413.844 304 413.893C304.239 413.942 304.488 413.918 304.714 413.825C304.94 413.733 305.133 413.575 305.269 413.372C305.406 413.169 305.478 412.93 305.478 412.685C305.435 412.368 305.271 412.08 305.019 411.882C304.768 411.684 304.449 411.592 304.131 411.625L304.26 411.453ZM324.555 411.453C324.311 411.45 324.071 411.52 323.867 411.653C323.662 411.787 323.502 411.979 323.406 412.204C323.311 412.429 323.284 412.677 323.33 412.917C323.376 413.157 323.493 413.378 323.664 413.552C323.836 413.726 324.056 413.844 324.295 413.893C324.535 413.942 324.783 413.918 325.009 413.825C325.235 413.733 325.429 413.575 325.565 413.372C325.701 413.169 325.774 412.93 325.774 412.685C325.731 412.368 325.566 412.08 325.315 411.882C325.063 411.684 324.745 411.592 324.426 411.625L324.555 411.453ZM192.42 459.009C192.179 459.009 191.944 459.081 191.743 459.215C191.543 459.349 191.387 459.539 191.294 459.761C191.202 459.984 191.178 460.229 191.225 460.465C191.272 460.702 191.388 460.919 191.559 461.089C191.729 461.259 191.946 461.375 192.182 461.423C192.419 461.47 192.664 461.445 192.886 461.353C193.109 461.261 193.299 461.105 193.433 460.904C193.567 460.704 193.638 460.469 193.638 460.228C193.638 460.068 193.607 459.909 193.546 459.761C193.484 459.614 193.395 459.479 193.282 459.366C193.168 459.253 193.034 459.163 192.886 459.102C192.738 459.041 192.58 459.009 192.42 459.009ZM212.73 459.009C212.489 459.009 212.253 459.081 212.053 459.215C211.853 459.349 211.696 459.539 211.604 459.761C211.512 459.984 211.488 460.229 211.535 460.465C211.582 460.702 211.698 460.919 211.868 461.089C212.039 461.259 212.256 461.375 212.492 461.423C212.728 461.47 212.973 461.445 213.196 461.353C213.419 461.261 213.609 461.105 213.743 460.904C213.877 460.704 213.948 460.469 213.948 460.228C213.948 459.907 213.822 459.599 213.596 459.371C213.371 459.143 213.065 459.013 212.744 459.009H212.73ZM233.04 459.009C232.799 459.009 232.563 459.081 232.363 459.215C232.162 459.349 232.006 459.539 231.914 459.761C231.822 459.984 231.798 460.229 231.845 460.465C231.892 460.702 232.008 460.919 232.178 461.089C232.348 461.259 232.566 461.375 232.802 461.423C233.038 461.47 233.283 461.445 233.506 461.353C233.728 461.261 233.919 461.105 234.053 460.904C234.186 460.704 234.258 460.469 234.258 460.228C234.258 459.907 234.132 459.599 233.906 459.371C233.681 459.143 233.375 459.013 233.054 459.009H233.04ZM253.349 459.009C253.108 459.009 252.873 459.081 252.673 459.215C252.472 459.349 252.316 459.539 252.224 459.761C252.132 459.984 252.107 460.229 252.154 460.465C252.201 460.702 252.318 460.919 252.488 461.089C252.658 461.259 252.875 461.375 253.112 461.423C253.348 461.47 253.593 461.445 253.816 461.353C254.038 461.261 254.228 461.105 254.362 460.904C254.496 460.704 254.568 460.469 254.568 460.228C254.568 459.907 254.441 459.599 254.216 459.371C253.991 459.143 253.684 459.013 253.364 459.009H253.349ZM273.645 459.009C273.404 459.009 273.168 459.081 272.968 459.215C272.768 459.349 272.611 459.539 272.519 459.761C272.427 459.984 272.403 460.229 272.45 460.465C272.497 460.702 272.613 460.919 272.783 461.089C272.954 461.259 273.171 461.375 273.407 461.423C273.643 461.47 273.888 461.445 274.111 461.353C274.334 461.261 274.524 461.105 274.658 460.904C274.792 460.704 274.863 460.469 274.863 460.228C274.863 459.907 274.737 459.599 274.511 459.371C274.286 459.143 273.98 459.013 273.659 459.009H273.645ZM293.955 459.009C293.714 459.009 293.478 459.081 293.278 459.215C293.077 459.349 292.921 459.539 292.829 459.761C292.737 459.984 292.713 460.229 292.76 460.465C292.807 460.702 292.923 460.919 293.093 461.089C293.263 461.259 293.481 461.375 293.717 461.423C293.953 461.47 294.198 461.445 294.421 461.353C294.643 461.261 294.834 461.105 294.968 460.904C295.101 460.704 295.173 460.469 295.173 460.228C295.173 459.907 295.046 459.599 294.821 459.371C294.596 459.143 294.29 459.013 293.969 459.009H293.955ZM314.264 459.009C314.023 459.009 313.788 459.081 313.587 459.215C313.387 459.349 313.231 459.539 313.139 459.761C313.047 459.984 313.022 460.229 313.069 460.465C313.116 460.702 313.232 460.919 313.403 461.089C313.573 461.259 313.79 461.375 314.027 461.423C314.263 461.47 314.508 461.445 314.731 461.353C314.953 461.261 315.143 461.105 315.277 460.904C315.411 460.704 315.483 460.469 315.483 460.228C315.483 460.066 315.451 459.907 315.389 459.758C315.326 459.609 315.235 459.474 315.121 459.361C315.006 459.248 314.87 459.158 314.721 459.098C314.571 459.038 314.411 459.007 314.25 459.009H314.264ZM202.582 443.243C202.341 443.243 202.106 443.315 201.905 443.448C201.705 443.582 201.549 443.773 201.457 443.995C201.364 444.218 201.34 444.463 201.387 444.699C201.434 444.935 201.55 445.152 201.721 445.323C201.891 445.493 202.108 445.609 202.344 445.656C202.581 445.703 202.826 445.679 203.048 445.587C203.271 445.495 203.461 445.339 203.595 445.138C203.729 444.938 203.8 444.702 203.8 444.461C203.779 444.154 203.644 443.867 203.421 443.655C203.198 443.442 202.904 443.321 202.596 443.315L202.582 443.243ZM222.878 443.243C222.637 443.243 222.401 443.315 222.201 443.448C222 443.582 221.844 443.773 221.752 443.995C221.66 444.218 221.636 444.463 221.683 444.699C221.73 444.935 221.846 445.152 222.016 445.323C222.186 445.493 222.404 445.609 222.64 445.656C222.876 445.703 223.121 445.679 223.344 445.587C223.566 445.495 223.757 445.339 223.891 445.138C224.024 444.938 224.096 444.702 224.096 444.461C224.078 444.153 223.943 443.864 223.72 443.651C223.496 443.438 223.2 443.318 222.892 443.315L222.878 443.243ZM243.187 443.243C242.946 443.243 242.711 443.315 242.51 443.448C242.31 443.582 242.154 443.773 242.062 443.995C241.97 444.218 241.945 444.463 241.992 444.699C242.039 444.935 242.155 445.152 242.326 445.323C242.496 445.493 242.713 445.609 242.95 445.656C243.186 445.703 243.431 445.679 243.654 445.587C243.876 445.495 244.066 445.339 244.2 445.138C244.334 444.938 244.406 444.702 244.406 444.461C244.387 444.153 244.253 443.864 244.03 443.651C243.806 443.438 243.51 443.318 243.202 443.315L243.187 443.243ZM263.497 443.243C263.256 443.243 263.021 443.315 262.82 443.448C262.62 443.582 262.464 443.773 262.372 443.995C262.279 444.218 262.255 444.463 262.302 444.699C262.349 444.935 262.465 445.152 262.636 445.323C262.806 445.493 263.023 445.609 263.259 445.656C263.496 445.703 263.741 445.679 263.963 445.587C264.186 445.495 264.376 445.339 264.51 445.138C264.644 444.938 264.715 444.702 264.715 444.461C264.697 444.153 264.563 443.864 264.339 443.651C264.116 443.438 263.82 443.318 263.511 443.315L263.497 443.243ZM283.807 443.243C283.566 443.243 283.33 443.315 283.13 443.448C282.93 443.582 282.773 443.773 282.681 443.995C282.589 444.218 282.565 444.463 282.612 444.699C282.659 444.935 282.775 445.152 282.945 445.323C283.116 445.493 283.333 445.609 283.569 445.656C283.806 445.703 284.05 445.679 284.273 445.587C284.496 445.495 284.686 445.339 284.82 445.138C284.954 444.938 285.025 444.702 285.025 444.461C285.007 444.153 284.873 443.864 284.649 443.651C284.426 443.438 284.13 443.318 283.821 443.315L283.807 443.243ZM304.117 443.243C303.876 443.243 303.64 443.315 303.44 443.448C303.239 443.582 303.083 443.773 302.991 443.995C302.899 444.218 302.875 444.463 302.922 444.699C302.969 444.935 303.085 445.152 303.255 445.323C303.426 445.493 303.643 445.609 303.879 445.656C304.115 445.703 304.36 445.679 304.583 445.587C304.805 445.495 304.996 445.339 305.13 445.138C305.263 444.938 305.335 444.702 305.335 444.461C305.317 444.153 305.182 443.864 304.959 443.651C304.735 443.438 304.44 443.318 304.131 443.315L304.117 443.243ZM324.412 443.243C324.171 443.243 323.936 443.315 323.735 443.448C323.535 443.582 323.379 443.773 323.286 443.995C323.194 444.218 323.17 444.463 323.217 444.699C323.264 444.935 323.38 445.152 323.551 445.323C323.721 445.493 323.938 445.609 324.174 445.656C324.411 445.703 324.656 445.679 324.878 445.587C325.101 445.495 325.291 445.339 325.425 445.138C325.559 444.938 325.63 444.702 325.63 444.461C325.612 444.153 325.478 443.864 325.254 443.651C325.031 443.438 324.735 443.318 324.426 443.315L324.412 443.243ZM192.42 490.685C192.179 490.685 191.944 490.757 191.743 490.89C191.543 491.024 191.387 491.215 191.294 491.437C191.202 491.66 191.178 491.905 191.225 492.141C191.272 492.377 191.388 492.594 191.559 492.765C191.729 492.935 191.946 493.051 192.182 493.098C192.419 493.145 192.664 493.121 192.886 493.029C193.109 492.937 193.299 492.781 193.433 492.58C193.567 492.38 193.638 492.144 193.638 491.903C193.638 491.58 193.51 491.27 193.282 491.042C193.053 490.813 192.743 490.685 192.42 490.685ZM212.73 490.685C212.489 490.685 212.253 490.757 212.053 490.89C211.853 491.024 211.696 491.215 211.604 491.437C211.512 491.66 211.488 491.905 211.535 492.141C211.582 492.377 211.698 492.594 211.868 492.765C212.039 492.935 212.256 493.051 212.492 493.098C212.728 493.145 212.973 493.121 213.196 493.029C213.419 492.937 213.609 492.781 213.743 492.58C213.877 492.38 213.948 492.144 213.948 491.903C213.948 491.583 213.822 491.275 213.596 491.047C213.371 490.819 213.065 490.689 212.744 490.685H212.73ZM233.04 490.685C232.799 490.685 232.563 490.757 232.363 490.89C232.162 491.024 232.006 491.215 231.914 491.437C231.822 491.66 231.798 491.905 231.845 492.141C231.892 492.377 232.008 492.594 232.178 492.765C232.348 492.935 232.566 493.051 232.802 493.098C233.038 493.145 233.283 493.121 233.506 493.029C233.728 492.937 233.919 492.781 234.053 492.58C234.186 492.38 234.258 492.144 234.258 491.903C234.258 491.583 234.132 491.275 233.906 491.047C233.681 490.819 233.375 490.689 233.054 490.685H233.04ZM253.349 490.685C253.108 490.685 252.873 490.757 252.673 490.89C252.472 491.024 252.316 491.215 252.224 491.437C252.132 491.66 252.107 491.905 252.154 492.141C252.201 492.377 252.318 492.594 252.488 492.765C252.658 492.935 252.875 493.051 253.112 493.098C253.348 493.145 253.593 493.121 253.816 493.029C254.038 492.937 254.228 492.781 254.362 492.58C254.496 492.38 254.568 492.144 254.568 491.903C254.568 491.583 254.441 491.275 254.216 491.047C253.991 490.819 253.684 490.689 253.364 490.685H253.349ZM273.645 490.685C273.404 490.685 273.168 490.757 272.968 490.89C272.768 491.024 272.611 491.215 272.519 491.437C272.427 491.66 272.403 491.905 272.45 492.141C272.497 492.377 272.613 492.594 272.783 492.765C272.954 492.935 273.171 493.051 273.407 493.098C273.643 493.145 273.888 493.121 274.111 493.029C274.334 492.937 274.524 492.781 274.658 492.58C274.792 492.38 274.863 492.144 274.863 491.903C274.863 491.583 274.737 491.275 274.511 491.047C274.286 490.819 273.98 490.689 273.659 490.685H273.645ZM293.955 490.685C293.714 490.685 293.478 490.757 293.278 490.89C293.077 491.024 292.921 491.215 292.829 491.437C292.737 491.66 292.713 491.905 292.76 492.141C292.807 492.377 292.923 492.594 293.093 492.765C293.263 492.935 293.481 493.051 293.717 493.098C293.953 493.145 294.198 493.121 294.421 493.029C294.643 492.937 294.834 492.781 294.968 492.58C295.101 492.38 295.173 492.144 295.173 491.903C295.173 491.583 295.046 491.275 294.821 491.047C294.596 490.819 294.29 490.689 293.969 490.685H293.955ZM314.264 490.685C314.023 490.685 313.788 490.757 313.587 490.89C313.387 491.024 313.231 491.215 313.139 491.437C313.047 491.66 313.022 491.905 313.069 492.141C313.116 492.377 313.232 492.594 313.403 492.765C313.573 492.935 313.79 493.051 314.027 493.098C314.263 493.145 314.508 493.121 314.731 493.029C314.953 492.937 315.143 492.781 315.277 492.58C315.411 492.38 315.483 492.144 315.483 491.903C315.483 491.742 315.451 491.583 315.389 491.434C315.326 491.285 315.235 491.15 315.121 491.037C315.006 490.924 314.87 490.834 314.721 490.774C314.571 490.713 314.411 490.683 314.25 490.685H314.264ZM334.574 490.685C334.333 490.685 334.098 490.757 333.897 490.89C333.697 491.024 333.541 491.215 333.449 491.437C333.356 491.66 333.332 491.905 333.379 492.141C333.426 492.377 333.542 492.594 333.713 492.765C333.883 492.935 334.1 493.051 334.336 493.098C334.573 493.145 334.818 493.121 335.04 493.029C335.263 492.937 335.453 492.781 335.587 492.58C335.721 492.38 335.792 492.144 335.792 491.903C335.792 491.583 335.666 491.275 335.441 491.047C335.215 490.819 334.909 490.689 334.588 490.685H334.574ZM202.596 474.991C202.355 474.991 202.12 475.062 201.92 475.196C201.719 475.33 201.563 475.52 201.471 475.743C201.379 475.965 201.355 476.21 201.402 476.446C201.449 476.683 201.565 476.9 201.735 477.07C201.905 477.241 202.122 477.357 202.359 477.404C202.595 477.451 202.84 477.427 203.063 477.334C203.285 477.242 203.476 477.086 203.609 476.886C203.743 476.685 203.815 476.45 203.815 476.209C203.811 475.887 203.681 475.579 203.454 475.351C203.226 475.124 202.918 474.994 202.596 474.991ZM222.892 474.991C222.651 474.991 222.415 475.062 222.215 475.196C222.015 475.33 221.859 475.52 221.766 475.743C221.674 475.965 221.65 476.21 221.697 476.446C221.744 476.683 221.86 476.9 222.03 477.07C222.201 477.241 222.418 477.357 222.654 477.404C222.891 477.451 223.135 477.427 223.358 477.334C223.581 477.242 223.771 477.086 223.905 476.886C224.039 476.685 224.11 476.45 224.11 476.209C224.11 475.886 223.982 475.576 223.753 475.347C223.525 475.119 223.215 474.991 222.892 474.991ZM243.202 474.991C242.961 474.991 242.725 475.062 242.525 475.196C242.324 475.33 242.168 475.52 242.076 475.743C241.984 475.965 241.96 476.21 242.007 476.446C242.054 476.683 242.17 476.9 242.34 477.07C242.511 477.241 242.728 477.357 242.964 477.404C243.2 477.451 243.445 477.427 243.668 477.334C243.89 477.242 244.081 477.086 244.215 476.886C244.348 476.685 244.42 476.45 244.42 476.209C244.42 475.886 244.292 475.576 244.063 475.347C243.835 475.119 243.525 474.991 243.202 474.991ZM263.511 474.991C263.27 474.991 263.035 475.062 262.835 475.196C262.634 475.33 262.478 475.52 262.386 475.743C262.294 475.965 262.27 476.21 262.317 476.446C262.364 476.683 262.48 476.9 262.65 477.07C262.82 477.241 263.037 477.357 263.274 477.404C263.51 477.451 263.755 477.427 263.978 477.334C264.2 477.242 264.391 477.086 264.524 476.886C264.658 476.685 264.73 476.45 264.73 476.209C264.73 475.886 264.601 475.576 264.373 475.347C264.144 475.119 263.835 474.991 263.511 474.991ZM283.821 474.991C283.58 474.991 283.345 475.062 283.144 475.196C282.944 475.33 282.788 475.52 282.696 475.743C282.603 475.965 282.579 476.21 282.626 476.446C282.673 476.683 282.789 476.9 282.96 477.07C283.13 477.241 283.347 477.357 283.584 477.404C283.82 477.451 284.065 477.427 284.287 477.334C284.51 477.242 284.7 477.086 284.834 476.886C284.968 476.685 285.039 476.45 285.039 476.209C285.039 475.886 284.911 475.576 284.683 475.347C284.454 475.119 284.144 474.991 283.821 474.991ZM304.131 474.991C303.89 474.991 303.654 475.062 303.454 475.196C303.254 475.33 303.098 475.52 303.005 475.743C302.913 475.965 302.889 476.21 302.936 476.446C302.983 476.683 303.099 476.9 303.269 477.07C303.44 477.241 303.657 477.357 303.893 477.404C304.13 477.451 304.375 477.427 304.597 477.334C304.82 477.242 305.01 477.086 305.144 476.886C305.278 476.685 305.349 476.45 305.349 476.209C305.349 475.886 305.221 475.576 304.992 475.347C304.764 475.119 304.454 474.991 304.131 474.991ZM324.426 474.991C324.185 474.991 323.95 475.062 323.75 475.196C323.549 475.33 323.393 475.52 323.301 475.743C323.209 475.965 323.184 476.21 323.231 476.446C323.279 476.683 323.395 476.9 323.565 477.07C323.735 477.241 323.952 477.357 324.189 477.404C324.425 477.451 324.67 477.427 324.893 477.334C325.115 477.242 325.306 477.086 325.439 476.886C325.573 476.685 325.645 476.45 325.645 476.209C325.645 475.886 325.516 475.576 325.288 475.347C325.059 475.119 324.75 474.991 324.426 474.991ZM182.287 506.695C182.046 506.695 181.81 506.766 181.61 506.9C181.409 507.034 181.253 507.224 181.161 507.447C181.069 507.67 181.045 507.915 181.092 508.151C181.139 508.387 181.255 508.604 181.425 508.775C181.596 508.945 181.813 509.061 182.049 509.108C182.285 509.155 182.53 509.131 182.753 509.039C182.976 508.947 183.166 508.79 183.3 508.59C183.434 508.39 183.505 508.154 183.505 507.913C183.505 507.753 183.473 507.595 183.412 507.447C183.351 507.299 183.261 507.165 183.148 507.052C183.035 506.939 182.901 506.849 182.753 506.788C182.605 506.726 182.447 506.695 182.287 506.695ZM202.596 506.695C202.355 506.695 202.12 506.766 201.92 506.9C201.719 507.034 201.563 507.224 201.471 507.447C201.379 507.67 201.355 507.915 201.402 508.151C201.449 508.387 201.565 508.604 201.735 508.775C201.905 508.945 202.122 509.061 202.359 509.108C202.595 509.155 202.84 509.131 203.063 509.039C203.285 508.947 203.476 508.79 203.609 508.59C203.743 508.39 203.815 508.154 203.815 507.913C203.811 507.591 203.681 507.284 203.454 507.056C203.226 506.828 202.918 506.699 202.596 506.695ZM222.892 506.695C222.651 506.695 222.415 506.766 222.215 506.9C222.015 507.034 221.859 507.224 221.766 507.447C221.674 507.67 221.65 507.915 221.697 508.151C221.744 508.387 221.86 508.604 222.03 508.775C222.201 508.945 222.418 509.061 222.654 509.108C222.891 509.155 223.135 509.131 223.358 509.039C223.581 508.947 223.771 508.79 223.905 508.59C224.039 508.39 224.11 508.154 224.11 507.913C224.11 507.753 224.079 507.595 224.017 507.447C223.956 507.299 223.866 507.165 223.753 507.052C223.64 506.939 223.506 506.849 223.358 506.788C223.21 506.726 223.052 506.695 222.892 506.695ZM243.202 506.695C242.961 506.695 242.725 506.766 242.525 506.9C242.324 507.034 242.168 507.224 242.076 507.447C241.984 507.67 241.96 507.915 242.007 508.151C242.054 508.387 242.17 508.604 242.34 508.775C242.511 508.945 242.728 509.061 242.964 509.108C243.2 509.155 243.445 509.131 243.668 509.039C243.89 508.947 244.081 508.79 244.215 508.59C244.348 508.39 244.42 508.154 244.42 507.913C244.42 507.59 244.292 507.28 244.063 507.052C243.835 506.823 243.525 506.695 243.202 506.695ZM263.511 506.695C263.27 506.695 263.035 506.766 262.835 506.9C262.634 507.034 262.478 507.224 262.386 507.447C262.294 507.67 262.27 507.915 262.317 508.151C262.364 508.387 262.48 508.604 262.65 508.775C262.82 508.945 263.037 509.061 263.274 509.108C263.51 509.155 263.755 509.131 263.978 509.039C264.2 508.947 264.391 508.79 264.524 508.59C264.658 508.39 264.73 508.154 264.73 507.913C264.73 507.753 264.698 507.595 264.637 507.447C264.576 507.299 264.486 507.165 264.373 507.052C264.26 506.939 264.125 506.849 263.978 506.788C263.83 506.726 263.671 506.695 263.511 506.695ZM283.821 506.695C283.58 506.695 283.345 506.766 283.144 506.9C282.944 507.034 282.788 507.224 282.696 507.447C282.603 507.67 282.579 507.915 282.626 508.151C282.673 508.387 282.789 508.604 282.96 508.775C283.13 508.945 283.347 509.061 283.584 509.108C283.82 509.155 284.065 509.131 284.287 509.039C284.51 508.947 284.7 508.79 284.834 508.59C284.968 508.39 285.039 508.154 285.039 507.913C285.039 507.59 284.911 507.28 284.683 507.052C284.454 506.823 284.144 506.695 283.821 506.695ZM304.131 506.695C303.89 506.695 303.654 506.766 303.454 506.9C303.254 507.034 303.098 507.224 303.005 507.447C302.913 507.67 302.889 507.915 302.936 508.151C302.983 508.387 303.099 508.604 303.269 508.775C303.44 508.945 303.657 509.061 303.893 509.108C304.13 509.155 304.375 509.131 304.597 509.039C304.82 508.947 305.01 508.79 305.144 508.59C305.278 508.39 305.349 508.154 305.349 507.913C305.349 507.753 305.318 507.595 305.257 507.447C305.195 507.299 305.106 507.165 304.992 507.052C304.879 506.939 304.745 506.849 304.597 506.788C304.449 506.726 304.291 506.695 304.131 506.695ZM324.426 506.695C324.185 506.695 323.95 506.766 323.75 506.9C323.549 507.034 323.393 507.224 323.301 507.447C323.209 507.67 323.184 507.915 323.231 508.151C323.279 508.387 323.395 508.604 323.565 508.775C323.735 508.945 323.952 509.061 324.189 509.108C324.425 509.155 324.67 509.131 324.893 509.039C325.115 508.947 325.306 508.79 325.439 508.59C325.573 508.39 325.645 508.154 325.645 507.913C325.645 507.59 325.516 507.28 325.288 507.052C325.059 506.823 324.75 506.695 324.426 506.695Z" fill="white"/>
<path d="M343.188 412.714C341.668 406.365 338.142 400.631 335.032 394.898C331.75 388.907 328.31 383.002 324.784 377.154L324.397 376.523C323.809 374.66 322.964 372.826 322.261 371.02C321.344 368.698 320.37 366.404 319.467 364.068C319.467 363.996 319.309 364.068 319.338 364.068C320.069 366.49 320.771 368.913 321.688 371.235C321.917 371.837 322.147 372.467 322.376 373.098C321.187 371.134 319.983 369.199 318.75 367.264C316.657 363.982 314.45 360.786 312.343 357.504C312.343 357.504 312.157 357.504 312.214 357.59C315.582 363.323 318.807 369.171 322.175 374.918C325.544 380.666 328.812 386.471 331.951 392.347C333.508 395.214 335.018 398.152 336.48 401.162C337.925 403.944 339.189 406.816 340.264 409.762C342.219 415.478 342.264 421.675 340.393 427.42C338.357 433.913 334.745 439.818 331.306 445.637C331.162 445.881 331.521 446.153 331.693 445.924C338.916 436.464 346.183 425.169 343.188 412.714Z" fill="#263238"/>
<path d="M406.668 519.724C396.048 534.386 367.769 536.794 297.05 549.364C287.261 551.113 256.373 485.425 266.722 483.017C279.765 479.993 330.991 471.078 334.817 470.906C367.153 469.429 413.878 509.777 406.668 519.724Z" fill="#F7A9A0"/>
<path d="M280.926 480.036C280.926 480.036 251.013 484.049 235.949 491.029C215.782 500.36 202.209 516.728 196.935 523.895C185.927 538.93 169.702 582.889 181.541 589.826C192.262 596.047 206.581 550.282 206.581 550.282C206.581 550.282 184.293 594.542 198.583 599.659C212.873 604.775 226.461 550.712 226.461 550.712C226.461 550.712 204.574 596.706 220.14 599.659C231.907 601.894 246.985 553.607 246.985 553.607C246.985 553.607 228.438 593.266 240.449 596.075C253.707 599.2 270.42 555.499 270.42 555.499C302.124 557.534 318.062 545.466 328.382 535.633C330.876 533.211 280.926 480.036 280.926 480.036Z" fill="#F7A9A0"/>
<path d="M213.303 534.458C210.508 539.56 207.57 544.706 205.291 550.038C203.012 555.37 200.776 560.802 198.941 566.32C194.441 579.893 193.738 589.095 193.853 588.522C196.333 575.206 204.431 555.972 206.753 550.625C209.075 545.279 211.167 539.861 213.503 534.53C213.575 534.401 213.374 534.329 213.303 534.458Z" fill="#263238"/>
<path d="M232.723 542.527C229.427 549.192 225.901 555.699 222.891 562.593C219.881 569.488 217.66 576.081 215.137 583.047C214.951 583.591 215.295 583.52 215.51 583.047C218.305 576.167 221.429 570.032 224.296 563.21C227.162 556.387 229.785 549.421 232.895 542.714C232.938 542.527 232.781 542.527 232.723 542.527Z" fill="#263238"/>
<path d="M250.654 546.526C245.078 556.474 241.352 567.424 237.955 578.26C237.783 578.79 238.227 578.647 238.428 578.102C242.455 567.481 245.594 559.125 250.998 546.727C251.084 546.526 250.768 546.326 250.654 546.526Z" fill="#263238"/>
<path d="M366.048 478.817C361.347 475.851 348.046 468.856 334.96 470.791C334.929 470.791 334.9 470.803 334.879 470.825C334.857 470.846 334.845 470.875 334.845 470.906C334.845 470.936 334.857 470.965 334.879 470.987C334.9 471.008 334.929 471.02 334.96 471.02C345.738 471.02 361.132 476.496 365.933 479.004C366.062 479.075 366.163 478.889 366.048 478.817Z" fill="#263238"/>
<path d="M264.313 332.249C258.938 335.015 258.809 342.44 264.987 350.71C274.877 363.982 302.783 374.832 302.783 374.832C302.783 374.832 304.345 349.033 295.803 337.151C290.069 329.253 270.763 328.967 264.313 332.249Z" fill="#F7A9A0"/>
<path d="M265.517 337.996C266.463 340.634 281.527 356.744 293.882 354.694C297.895 354.021 295.201 331.905 295.201 331.905L295.373 330.228L297.781 306.736L268.857 292.661L264.7 290.827C264.7 290.827 264.471 297.305 264.256 305.36C264.256 305.733 264.256 306.106 264.256 306.507C264.256 306.908 264.256 307.396 264.256 307.826C264.256 309.029 264.17 310.262 264.141 311.48C264.141 312.412 264.141 313.315 264.141 314.347C264.141 315.379 264.141 316.282 264.141 317.214C264.123 324.165 264.583 331.108 265.517 337.996Z" fill="#F7A9A0"/>
<path d="M264.313 305.36C267.386 311.514 271.76 316.926 277.134 321.22C282.507 325.514 288.75 328.588 295.43 330.228L297.838 306.736L268.914 292.661L264.758 290.827C264.758 290.827 264.528 297.305 264.313 305.36Z" fill="#263238"/>
<path d="M325.328 267.206C336.135 307.224 313.389 318.203 304.761 320.525C296.92 322.632 269.975 328.809 255.097 290.124C240.219 251.44 255.398 233.767 273.07 228.006C290.743 222.244 314.521 227.203 325.328 267.206Z" fill="#F7A9A0"/>
<path d="M315.066 259.968C314.092 260.054 313.174 259.968 312.2 259.968C311.211 260.097 310.206 259.906 309.333 259.423C309.079 259.216 308.903 258.928 308.835 258.608C308.767 258.287 308.812 257.952 308.961 257.66C309.323 257.12 309.825 256.687 310.412 256.407C311 256.127 311.652 256.01 312.3 256.069C313.633 255.972 314.954 256.381 315.998 257.216C316.23 257.422 316.396 257.691 316.476 257.991C316.555 258.291 316.545 258.607 316.445 258.901C316.346 259.195 316.162 259.453 315.917 259.642C315.671 259.832 315.376 259.945 315.066 259.968Z" fill="#263238"/>
<path d="M289.411 265.715C290.342 265.386 291.145 264.941 292.019 264.54C293.001 264.263 293.86 263.662 294.456 262.835C294.601 262.544 294.643 262.213 294.576 261.895C294.508 261.577 294.334 261.292 294.083 261.086C293.528 260.741 292.892 260.552 292.239 260.536C291.586 260.521 290.941 260.681 290.371 261C289.135 261.485 288.116 262.401 287.504 263.58C287.384 263.856 287.346 264.161 287.394 264.458C287.442 264.755 287.574 265.033 287.774 265.257C287.975 265.482 288.236 265.644 288.526 265.726C288.815 265.807 289.123 265.803 289.411 265.715Z" fill="#263238"/>
<path d="M297.05 274.759C297.05 274.659 296.863 274.946 296.892 275.06C297.637 277.784 298.039 281.023 295.774 282.528C295.702 282.528 295.774 282.714 295.774 282.686C298.727 281.525 298.153 277.225 297.05 274.759Z" fill="#263238"/>
<path d="M293.883 272.495C289.382 273.211 291.159 282.155 295.316 281.482C299.472 280.808 297.638 271.879 293.883 272.495Z" fill="#263238"/>
<path d="M292.22 273.312C291.532 273.971 290.944 275.018 290.027 275.304C289.11 275.591 287.949 274.846 287.06 274.1C286.974 274.014 286.903 274.1 286.931 274.229C287.247 275.949 288.25 277.569 290.142 277.454C292.034 277.34 292.765 275.605 292.851 273.799C292.865 273.455 292.492 273.068 292.22 273.312Z" fill="#263238"/>
<path d="M312.343 270.474C312.343 270.359 312.587 270.56 312.601 270.675C313.046 273.47 314.035 276.58 316.7 277.024C316.786 277.024 316.801 277.182 316.7 277.182C313.562 277.368 312.315 273.183 312.343 270.474Z" fill="#263238"/>
<path d="M314.25 267.106C318.635 265.916 320.699 274.788 316.629 275.892C312.558 276.995 310.58 268.109 314.25 267.106Z" fill="#263238"/>
<path d="M316.242 267.335C317.059 267.636 317.947 268.324 318.793 268.195C319.638 268.066 320.226 266.905 320.685 265.844C320.685 265.73 320.814 265.844 320.842 265.844C321.287 267.536 321.143 269.428 319.581 270.144C318.019 270.861 316.715 269.585 315.941 267.994C315.797 267.665 315.926 267.134 316.242 267.335Z" fill="#263238"/>
<path d="M300.217 297.148C300.977 297.707 301.779 298.495 302.811 298.423C303.839 298.247 304.817 297.851 305.678 297.262C305.678 297.262 305.864 297.262 305.821 297.391C305.508 298.003 305.034 298.517 304.451 298.881C303.868 299.244 303.197 299.443 302.51 299.455C301.918 299.393 301.357 299.157 300.898 298.777C300.439 298.397 300.102 297.89 299.93 297.32C299.916 297.162 300.102 297.076 300.217 297.148Z" fill="#263238"/>
<path d="M310.81 284.004C310.81 284.004 312.243 288.032 312.673 289.981C310.933 290.809 309.003 291.154 307.084 290.98C305.165 290.806 303.328 290.119 301.766 288.992C301.579 288.849 301.766 288.576 301.995 288.662C304.849 289.836 308.006 290.057 310.996 289.293C310.996 288.72 308.287 282.485 308.588 282.399C310.137 282.21 311.704 282.234 313.246 282.471C310.466 274 306.352 266.045 303.701 257.574C303.615 257.273 304.045 257.087 304.188 257.345C309.09 265.371 312.501 275.046 315.654 283.718C315.998 284.793 311.655 284.176 310.81 284.004Z" fill="#263238"/>
<path d="M309.95 290.339C309.15 291.92 307.961 293.272 306.495 294.267C305.678 294.779 304.721 295.024 303.758 294.969C301.651 294.84 301.249 293.005 301.321 291.357C301.36 290.483 301.505 289.617 301.751 288.777C304.247 290.161 307.12 290.709 309.95 290.339Z" fill="#263238"/>
<path d="M306.509 294.267C305.691 294.779 304.735 295.024 303.771 294.969C301.664 294.84 301.263 293.005 301.335 291.357C303.513 291.171 305.921 292.217 306.509 294.267Z" fill="#FF9ABB"/>
<path d="M254.596 289.436C254.596 289.436 240.091 277.669 240.263 257.775C240.435 237.881 262.25 220.882 287.103 223.376C287.103 223.376 254.453 231.531 250.139 249.663C245.824 267.794 254.596 289.436 254.596 289.436Z" fill="#FFC727"/>
<path d="M262.306 292.375C269.831 290.941 266.291 273.742 266.291 273.742C266.291 273.742 295.373 258.492 289.811 232.563C289.811 232.563 300.303 246.896 318.778 248.803C318.778 248.803 308.745 221.656 285.21 223.433C285.21 223.433 254.968 222.401 246.755 248.817C238.542 275.232 257.261 293.349 262.306 292.375Z" fill="#263238"/>
<path d="M289.31 230.7C290.935 234.452 291.741 238.508 291.675 242.596C291.675 246.735 290.821 250.828 289.167 254.622C288.747 255.568 288.268 256.487 287.734 257.374L287.017 258.735C286.73 259.165 286.429 259.581 286.128 259.996C285.512 260.828 284.924 261.673 284.279 262.476C283.635 263.279 282.846 263.909 282.158 264.698C281.8 265.056 281.456 265.443 281.083 265.787L279.908 266.762L277.529 268.682C275.837 269.8 274.103 270.832 272.354 271.835C273.874 270.488 275.493 269.313 276.97 267.98L279.12 265.902L280.18 264.87C280.51 264.511 280.811 264.11 281.141 263.737C281.757 262.963 282.388 262.204 283.033 261.473C283.678 260.742 284.122 259.839 284.681 259.036L285.498 257.818L286.171 256.514C286.658 255.668 287.089 254.792 287.461 253.891C289.06 250.299 290.03 246.459 290.328 242.539C290.493 240.569 290.493 238.589 290.328 236.619C290.16 234.621 289.819 232.64 289.31 230.7Z" fill="#263238"/>
<path d="M262.135 290.11C262.135 290.11 250.955 278.959 245.752 283.173C240.549 287.387 250.539 304.672 257.778 305.948C258.695 306.185 259.651 306.233 260.588 306.089C261.525 305.945 262.423 305.613 263.227 305.112C264.031 304.61 264.725 303.951 265.267 303.173C265.808 302.395 266.186 301.516 266.377 300.587L262.135 290.11Z" fill="#F7A9A0"/>
<path d="M248.733 288.046C248.714 288.053 248.698 288.066 248.687 288.083C248.676 288.1 248.67 288.119 248.67 288.139C248.67 288.159 248.676 288.179 248.687 288.195C248.698 288.212 248.714 288.225 248.733 288.232C253.836 289.307 257.132 293.278 259.698 297.534C257.963 296.101 255.871 295.413 253.821 297.534C253.707 297.649 253.821 297.821 253.993 297.778C254.781 297.362 255.678 297.2 256.561 297.316C257.444 297.431 258.27 297.818 258.924 298.423C259.999 299.439 260.96 300.568 261.79 301.791C262.091 302.178 262.822 301.791 262.564 301.361C262.569 301.323 262.569 301.285 262.564 301.247C261.59 295.141 255.355 287.487 248.733 288.046Z" fill="#263238"/>
<path d="M366.105 417.229L377.959 426.488L381.857 429.555L382.158 424.582L382.99 409.561L380.123 407.884C380.123 407.884 379.593 411.037 379.564 411.094L376.698 409.417C376.698 409.417 376.153 412.571 376.139 412.628L373.358 410.937C373.358 410.937 372.785 414.104 372.756 414.162L370.147 412.47C370.147 412.47 369.574 415.638 369.545 415.695L366.765 414.004C366.765 414.004 366.12 417.172 366.105 417.229Z" fill="#EBEBEB"/>
<path d="M377.959 426.488L381.858 429.555L382.159 424.582L377.959 426.488Z" fill="#37474F"/>
<path d="M229.083 362.649C207.584 397.808 171.565 472.841 185.396 500.432C198.712 527.005 304.56 488.578 326.031 480.681C334.86 477.442 324.168 404.53 314.393 406.823C292.893 411.825 247.315 433.554 246.297 432.88C245.279 432.207 251.772 400.631 256.918 369.285C264.442 323.692 244.52 337.366 229.083 362.649Z" fill="#F7A9A0"/>
<path d="M378.877 372.109C384.711 378.802 377.702 384.722 377.702 384.722C381.543 385.218 385.09 387.038 387.735 389.867C392.164 395.084 385.914 404.315 385.914 404.315C389.811 405.667 393.208 408.165 395.661 411.481C399.387 416.899 394.414 427.104 394.414 427.104C397.303 430.308 398.941 434.444 399.029 438.757C398.814 450.223 383.765 459.425 374.161 465.158C359.9 473.758 332.08 478.66 326.017 480.738L287.978 419.809C287.978 419.809 323.652 382.142 335.506 376.136C347.631 369.945 373.144 365.516 378.877 372.109Z" fill="#F7A9A0"/>
<path d="M376.669 384.005C364.615 386.126 353.837 391.673 342.758 396.618C342.716 396.646 342.685 396.689 342.671 396.737C342.657 396.786 342.661 396.838 342.681 396.884C342.702 396.93 342.738 396.968 342.783 396.99C342.829 397.012 342.881 397.017 342.93 397.005C353.894 391.96 365.705 389.165 376.841 384.564C376.899 384.53 376.944 384.477 376.968 384.414C376.992 384.351 376.995 384.282 376.975 384.217C376.955 384.153 376.914 384.097 376.859 384.058C376.803 384.02 376.737 384.001 376.669 384.005Z" fill="#263238"/>
<path d="M385.241 403.627C382.549 404.38 379.967 405.479 377.558 406.895C374.921 408.223 372.307 409.604 369.718 411.037C364.529 413.904 359.398 416.856 354.367 419.967C354.138 420.11 354.296 420.483 354.539 420.354C359.714 417.487 364.931 414.764 370.234 412.155C372.871 410.851 375.537 409.561 378.203 408.3C380.796 407.266 383.267 405.949 385.57 404.372C385.637 404.312 385.682 404.231 385.701 404.143C385.719 404.055 385.709 403.964 385.673 403.881C385.637 403.799 385.575 403.73 385.498 403.685C385.42 403.639 385.33 403.619 385.241 403.627Z" fill="#263238"/>
<path d="M394.213 427.162C391.834 427.548 389.512 429.268 387.448 430.458C385.116 431.805 382.77 433.138 380.41 434.457C375.709 437.109 371.008 439.746 366.206 442.225C365.977 442.354 366.206 442.727 366.378 442.612C371.266 440.118 376.182 437.682 381.041 435.145C383.43 433.912 385.819 432.656 388.207 431.375C390.228 430.3 392.88 429.168 394.385 427.391C394.415 427.368 394.435 427.334 394.441 427.296C394.446 427.259 394.436 427.221 394.414 427.19C394.391 427.16 394.357 427.14 394.319 427.134C394.282 427.129 394.243 427.139 394.213 427.162Z" fill="#263238"/>
<path d="M246.325 432.436C242.736 435.296 239.429 438.492 236.45 441.982C233.55 445.305 230.828 448.778 228.294 452.388C228.294 452.474 228.452 452.545 228.524 452.474C231.39 449.077 234.63 445.852 237.683 442.541C240.735 439.23 244.175 436.134 246.999 432.751C247.185 432.522 246.569 432.25 246.325 432.436Z" fill="#263238"/>
<path d="M209.39 509.662C219.387 508.787 229.317 507.259 239.116 505.09L246.469 503.47L253.779 501.736C256.215 501.148 258.638 500.489 261.074 499.872C263.511 499.256 265.919 498.611 268.327 497.923C278.001 495.3 287.576 492.319 297.136 489.252L311.383 484.479L325.572 479.462H325.658C331.062 478.187 336.465 476.796 341.855 475.421C347.244 474.045 352.604 472.554 357.922 470.992C363.258 469.52 368.441 467.543 373.401 465.086C378.348 462.545 383.075 459.597 387.534 456.272C383.31 459.944 378.74 463.199 373.889 465.989C371.461 467.404 368.948 468.668 366.364 469.773C363.755 470.863 361.118 471.809 358.481 472.712C353.178 474.518 347.817 476.108 342.457 477.656C337.096 479.204 331.707 480.638 326.303 482.042H326.447L312.257 487.245C307.499 488.85 302.74 490.542 297.924 492.075C288.321 495.1 278.675 498.067 268.9 500.489C259.125 502.911 249.293 505.19 239.345 506.838C236.861 507.259 234.372 507.646 231.878 507.999C229.37 508.3 226.876 508.659 224.368 508.902C219.395 509.46 214.393 509.713 209.39 509.662Z" fill="#263238"/>
<path d="M185.884 419.88L251.944 422.131C251.944 422.131 261.418 374.187 260.931 348.388C260.673 333.94 252.245 334.556 242.843 343.629C209.92 375.377 185.884 419.88 185.884 419.88Z" fill="#FFC727"/>
<path d="M234.272 365.2C234.272 365.441 234.2 365.677 234.067 365.877C233.933 366.078 233.742 366.234 233.52 366.326C233.297 366.418 233.052 366.442 232.816 366.395C232.58 366.348 232.362 366.232 232.192 366.062C232.022 365.891 231.906 365.674 231.859 365.438C231.812 365.202 231.836 364.957 231.928 364.734C232.02 364.512 232.176 364.321 232.377 364.187C232.577 364.054 232.813 363.982 233.054 363.982C233.377 363.982 233.687 364.11 233.915 364.339C234.144 364.567 234.272 364.877 234.272 365.2ZM253.363 363.982C253.122 363.982 252.887 364.054 252.686 364.187C252.486 364.321 252.33 364.512 252.238 364.734C252.146 364.957 252.121 365.202 252.168 365.438C252.215 365.674 252.331 365.891 252.502 366.062C252.672 366.232 252.889 366.348 253.126 366.395C253.362 366.442 253.607 366.418 253.83 366.326C254.052 366.234 254.242 366.078 254.376 365.877C254.51 365.677 254.582 365.441 254.582 365.2C254.582 364.877 254.453 364.567 254.225 364.339C253.996 364.11 253.686 363.982 253.363 363.982ZM243.201 348.216C242.96 348.216 242.725 348.287 242.524 348.421C242.324 348.555 242.168 348.745 242.076 348.968C241.984 349.191 241.959 349.435 242.006 349.672C242.053 349.908 242.169 350.125 242.34 350.296C242.51 350.466 242.727 350.582 242.964 350.629C243.2 350.676 243.445 350.652 243.668 350.56C243.89 350.467 244.08 350.311 244.214 350.111C244.348 349.911 244.42 349.675 244.42 349.434C244.405 349.121 244.27 348.826 244.043 348.609C243.816 348.393 243.515 348.273 243.201 348.273V348.216ZM212.744 395.601C212.503 395.601 212.267 395.672 212.067 395.806C211.867 395.94 211.71 396.13 211.618 396.353C211.526 396.575 211.502 396.82 211.549 397.057C211.596 397.293 211.712 397.51 211.882 397.68C212.053 397.851 212.27 397.967 212.506 398.014C212.742 398.061 212.987 398.037 213.21 397.944C213.433 397.852 213.623 397.696 213.757 397.496C213.891 397.295 213.962 397.06 213.962 396.819C213.947 396.506 213.813 396.21 213.586 395.994C213.359 395.778 213.057 395.658 212.744 395.658V395.601ZM233.054 395.601C232.813 395.601 232.577 395.672 232.377 395.806C232.176 395.94 232.02 396.13 231.928 396.353C231.836 396.575 231.812 396.82 231.859 397.057C231.906 397.293 232.022 397.51 232.192 397.68C232.362 397.851 232.58 397.967 232.816 398.014C233.052 398.061 233.297 398.037 233.52 397.944C233.742 397.852 233.933 397.696 234.067 397.496C234.2 397.295 234.272 397.06 234.272 396.819C234.257 396.506 234.122 396.21 233.895 395.994C233.668 395.778 233.367 395.658 233.054 395.658V395.601ZM253.363 395.601C253.122 395.601 252.887 395.672 252.686 395.806C252.486 395.94 252.33 396.13 252.238 396.353C252.146 396.575 252.121 396.82 252.168 397.057C252.215 397.293 252.331 397.51 252.502 397.68C252.672 397.851 252.889 397.967 253.126 398.014C253.362 398.061 253.607 398.037 253.83 397.944C254.052 397.852 254.242 397.696 254.376 397.496C254.51 397.295 254.582 397.06 254.582 396.819C254.567 396.506 254.432 396.21 254.205 395.994C253.978 395.778 253.677 395.658 253.363 395.658V395.601ZM222.892 379.834C222.651 379.834 222.415 379.906 222.215 380.04C222.014 380.173 221.858 380.364 221.766 380.586C221.674 380.809 221.65 381.054 221.697 381.29C221.744 381.527 221.86 381.744 222.03 381.914C222.2 382.084 222.418 382.2 222.654 382.247C222.89 382.294 223.135 382.27 223.358 382.178C223.58 382.086 223.771 381.93 223.904 381.729C224.038 381.529 224.11 381.294 224.11 381.053C224.078 380.751 223.936 380.472 223.711 380.268C223.487 380.064 223.195 379.951 222.892 379.949V379.834ZM243.201 379.834C242.96 379.834 242.725 379.906 242.524 380.04C242.324 380.173 242.168 380.364 242.076 380.586C241.984 380.809 241.959 381.054 242.006 381.29C242.053 381.527 242.169 381.744 242.34 381.914C242.51 382.084 242.727 382.2 242.964 382.247C243.2 382.294 243.445 382.27 243.668 382.178C243.89 382.086 244.08 381.93 244.214 381.729C244.348 381.529 244.42 381.294 244.42 381.053C244.388 380.751 244.246 380.472 244.021 380.268C243.797 380.064 243.505 379.951 243.201 379.949V379.834ZM202.596 411.51C202.352 411.507 202.112 411.577 201.907 411.711C201.703 411.845 201.543 412.036 201.447 412.261C201.352 412.486 201.325 412.734 201.371 412.974C201.417 413.214 201.533 413.435 201.705 413.609C201.877 413.783 202.096 413.902 202.336 413.95C202.575 413.999 202.824 413.976 203.05 413.883C203.276 413.79 203.47 413.632 203.606 413.429C203.742 413.226 203.814 412.987 203.814 412.743C203.783 412.44 203.642 412.159 203.417 411.953C203.193 411.747 202.901 411.63 202.596 411.625V411.51ZM222.892 411.51C222.647 411.507 222.407 411.577 222.203 411.711C221.998 411.845 221.838 412.036 221.743 412.261C221.647 412.486 221.621 412.734 221.667 412.974C221.712 413.214 221.829 413.435 222 413.609C222.172 413.783 222.392 413.902 222.631 413.95C222.871 413.999 223.119 413.976 223.346 413.883C223.572 413.79 223.765 413.632 223.901 413.429C224.037 413.226 224.11 412.987 224.11 412.743C224.081 412.439 223.941 412.156 223.716 411.949C223.491 411.743 223.197 411.627 222.892 411.625V411.51ZM243.201 411.51C242.957 411.507 242.717 411.577 242.513 411.711C242.308 411.845 242.148 412.036 242.052 412.261C241.957 412.486 241.93 412.734 241.976 412.974C242.022 413.214 242.138 413.435 242.31 413.609C242.482 413.783 242.702 413.902 242.941 413.95C243.181 413.999 243.429 413.976 243.655 413.883C243.881 413.79 244.075 413.632 244.211 413.429C244.347 413.226 244.42 412.987 244.42 412.743C244.391 412.439 244.251 412.156 244.026 411.949C243.801 411.743 243.507 411.627 243.201 411.625V411.51Z" fill="white"/>
<path d="M249.995 411.668C239.862 410.478 212.285 408.041 194.097 408.801C193.982 408.801 193.953 409.231 194.097 409.231C209.275 410.879 239.733 411.983 249.995 412.284C250.138 412.298 250.181 411.696 249.995 411.668Z" fill="#263238"/>
<path d="M260.888 373.026C260.128 375.893 259.455 378.759 258.724 381.626L258.853 380.58C259.254 376.566 259.655 372.553 259.942 368.526C259.942 368.425 259.784 368.411 259.77 368.526C257.806 382.557 252.26 418.031 251.944 421.916C251.629 421.916 248.619 422.002 247.917 421.916C247.759 421.916 247.773 422.131 247.917 422.145C248.275 422.145 252.804 422.733 252.833 422.632C254.796 415.796 257.792 389.939 258.423 384.22C259.455 380.522 260.3 376.791 260.96 373.026H260.888Z" fill="#263238"/>
</svg>
