<svg width="600" height="601" viewBox="0 0 600 601" fill="none" xmlns="http://www.w3.org/2000/svg">
<path d="M0.0158691 556.194L75.0104 555.894L150.005 555.798L300.008 555.594L449.997 555.786L525.005 555.894L600 556.194L525.005 556.482L449.997 556.59L300.008 556.794L150.005 556.59L75.0104 556.482L0.0158691 556.194Z" fill="white" fill-opacity="0.5"/>
<path d="M523.223 114.144C523.253 135.403 516.521 156.121 503.999 173.302C493.877 187.233 480.348 198.333 464.709 205.541C449.069 212.75 431.842 215.824 414.675 214.47C397.507 213.117 380.974 207.381 366.658 197.811C352.341 188.241 340.72 175.157 332.905 159.812C325.091 144.466 321.344 127.372 322.025 110.165C322.706 92.9582 327.791 76.2136 336.793 61.5334C345.795 46.8532 358.414 34.7287 373.442 26.3197C388.47 17.9106 405.404 13.4985 422.625 13.5054C425.38 13.5054 428.134 13.6045 430.83 13.8225C444.639 14.941 458.067 18.9041 470.27 25.4628C482.473 32.0215 493.188 41.0339 501.74 51.9334C503.988 54.7947 506.085 57.7715 508.022 60.8517C517.996 76.8347 523.264 95.3042 523.223 114.144Z" fill="#455A64"/>
<g opacity="0.2">
<path d="M444.366 161.629C443.098 165.018 445.198 165.156 445.337 166.564C445.476 167.971 445.337 170.646 441.254 174.729C437.172 178.811 430.414 177.979 428.987 179.664C427.56 181.348 425.182 188.542 421.812 190.94C418.443 193.338 417.849 191.931 413.073 192.922C408.296 193.913 404.61 200.116 403.163 203.069C401.717 206.022 403.441 210.997 400.072 211.096C396.702 211.195 395.137 203.921 392.025 199.958C389.341 196.413 387.595 192.248 386.952 187.849C385.961 183.191 387.527 173.46 386.952 169.655C386.377 165.85 376.25 159.092 372.583 154.435C368.917 149.777 363.843 140.562 364.121 137.391C364.545 134.378 366.053 131.623 368.362 129.642C370.047 128.373 369.333 127.66 369.63 126.53C369.928 125.401 371.315 125.123 371.612 123.716C371.91 122.309 370.76 118.088 369.353 117.374C367.946 116.661 366.955 119.059 366.123 118.642C365.29 118.226 362.694 115.254 361.763 114.956C360.831 114.659 361.069 116.799 359.662 114.124C358.255 111.448 357.541 104.67 356.412 103.541C355.282 102.411 354.43 105.523 351.754 103.541C349.079 101.559 347.949 97.7736 346.819 97.1989C345.69 96.6242 344.144 97.3376 342.994 95.0783C341.845 92.819 344.005 88.7364 342.994 89.1328C341.984 89.5292 339.784 92.7992 339.209 89.6877C338.634 86.5762 342.043 76.1517 341.468 70.5233C341.026 64.5808 342.949 58.7042 346.819 54.173C346.819 54.173 347.394 51.0813 347.949 49.0995C348.504 47.1176 360.633 39.1903 362.04 36.9706C362.626 35.7256 362.969 34.3804 363.051 33.0069C380.309 20.2941 401.19 13.4519 422.625 13.4857C425.38 13.4857 428.135 13.5848 430.83 13.8028L431.107 14.1794C432.692 16.0695 434.825 17.42 437.211 18.044C440.779 19.352 441.631 21.0366 440.878 22.4635C440.541 23.0474 440.046 23.5244 439.45 23.8399C438.854 24.1554 438.181 24.2965 437.509 24.2471C436.082 24.2471 434.774 23.5733 433.268 24.5246C431.761 25.4759 430.255 30.4701 428.293 30.8269C426.331 31.1836 422.843 26.3083 422.09 24.8813C421.337 23.4544 423.775 20.4618 422.625 19.0547C421.476 17.6476 419.454 17.9251 416.263 17.6476C413.073 17.3701 405.641 18.5791 405.938 19.8078C406.235 21.0366 416.818 19.6096 417.116 22.0671C417.413 24.5246 409.307 28.627 407.9 28.2703C406.493 27.9136 404.61 25.4363 402.549 25.1588C400.488 24.8813 398.783 26.5659 397.495 26.7641C396.207 26.9623 394.661 25.357 392.679 25.7335C390.697 26.1101 390.242 27.7154 389.211 28.4487C388.181 29.1819 385.723 29.1027 385.446 30.6089C385.168 32.1151 388.537 32.9673 389.409 33.8987C390.281 34.8302 388.379 38.0408 389.231 38.6948C390.083 39.3488 395.335 34.7311 396.643 33.6213C397.951 32.5114 399.081 27.6757 401.915 27.6757C404.749 27.6757 405.66 32.5709 406.612 33.0267C407.563 33.4825 409.604 31.8971 412.716 32.5709C415.827 33.2447 417.968 39.983 418.542 42.0441C419.117 44.1052 420.524 46.1862 419.296 47.0384C418.067 47.8906 413.092 46.4636 412.438 45.0565C411.784 43.6494 415.807 41.7667 415.53 41.291C414.974 40.9055 414.33 40.6685 413.657 40.6026C412.984 40.5367 412.305 40.6441 411.685 40.9145C410.456 41.6478 409.902 43.1738 408.574 43.5503C407.246 43.9269 403.797 39.983 402.846 41.1127C401.895 42.2423 403.798 45.8096 404.729 46.6618C405.66 47.514 409.148 47.9698 409.426 48.9013C409.703 49.8328 407.068 51.9137 403.877 51.7353C400.686 51.557 398.05 49.0995 396.841 50.1301C395.632 51.1606 396.266 53.8956 395.434 54.827C394.602 55.7585 389.984 55.1045 387.725 57.5422C385.465 59.9798 384.435 63.6661 382.176 65.7272C379.916 67.7883 378.886 65.1524 375.873 68.0856C372.861 71.0187 372.405 77.4795 372.306 79.719C372.207 81.9585 372.306 83.6827 371.553 83.4845C370.8 83.2863 369.769 81.2252 369.571 80.0163C369.373 78.8074 370.225 76.7264 370.225 76.0526C368.543 73.687 366.135 71.9338 363.368 71.0583C360.831 70.7016 358.572 72.7627 356.709 74.2689C354.846 75.7751 351.437 75.4779 350.208 76.7066C348.98 77.9354 348.048 88.7364 348.999 91.2732C349.951 93.8099 351.16 93.8099 354.172 92.4821C357.184 91.1543 355.48 88.6373 357.264 89.1922C358.066 89.4985 358.755 90.042 359.24 90.7501C359.725 91.4583 359.983 92.2976 359.979 93.1559C359.979 94.6621 356.412 98.2295 356.887 99.26C357.363 100.291 360.455 99.0618 361.961 99.5375C363.467 100.013 364.22 100.945 363.744 104.809C363.269 108.674 363.566 111.666 365.726 112.935C367.886 114.203 369.254 111.092 370.245 111.508C371.236 111.924 372.643 114.203 374.05 114.064C375.457 113.926 374.763 112.637 377.439 111.805C380.114 110.973 379.124 110.398 379.678 108.694C379.776 108.262 379.964 107.856 380.23 107.502C380.496 107.149 380.834 106.856 381.222 106.642C381.61 106.429 382.038 106.3 382.479 106.264C382.92 106.228 383.364 106.286 383.781 106.434C385.604 107.286 384.336 108.555 384.475 109.962C384.613 111.369 387.863 111.508 390.42 112.36C392.977 113.212 394.384 112.36 399.437 114.064C404.491 115.769 404.788 120.823 406.909 121.675C409.03 122.527 416.065 121.1 421.139 124.766C426.212 128.433 424.805 135.191 427.342 137.173C429.879 139.155 439.332 141.81 442.998 142.524C446.665 143.237 447.22 140.7 450.173 141.394C451.639 141.533 453.01 142.183 454.046 143.229C455.082 144.276 455.717 145.654 455.841 147.122C456.634 150.629 445.634 158.24 444.366 161.629Z" fill="black"/>
<path d="M368.64 89.5688C368.64 90.3615 371.097 90.6984 373.911 92.2839C376.726 93.8694 377.756 98.5862 379.262 98.4871C380.769 98.388 380.293 96.2278 380.868 95.6729C381.113 95.5056 381.314 95.2809 381.452 95.0184C381.591 94.7559 381.663 94.4635 381.663 94.1667C381.663 93.8698 381.591 93.5774 381.452 93.3149C381.314 93.0524 381.113 92.8278 380.868 92.6605C379.361 91.4515 377.895 88.8157 375.14 88.4391C372.385 88.0626 371.929 86.9329 370.721 87.032C370.407 87.0318 370.097 87.1012 369.813 87.2354C369.529 87.3695 369.279 87.565 369.079 87.8077C368.88 88.0504 368.738 88.3342 368.662 88.6388C368.586 88.9433 368.578 89.261 368.64 89.5688Z" fill="black"/>
<path d="M384.138 97.4566C383.722 98.6061 384.138 99.4385 387.13 100.172C390.123 100.905 392.957 99.4385 392.025 98.8241C391.094 98.2097 389.667 98.4872 390.242 97.4566C390.816 96.4261 390.618 94.9199 388.161 95.1973C385.703 95.4748 384.494 96.4261 384.138 97.4566Z" fill="black"/>
<path d="M394.661 97.7736C393.631 97.9322 393.056 99.7555 394.087 100.845C395.117 101.936 395.117 101.777 396.346 100.845C397.575 99.914 399.438 99.4384 398.982 98.4871C398.526 97.5358 395.692 97.6349 394.661 97.7736Z" fill="black"/>
<path d="M402.826 101.618C403.282 100.211 405.641 101.618 406.671 103.085C407.076 103.905 407.287 104.807 407.287 105.721C407.287 106.635 407.076 107.537 406.671 108.357C406.116 109.962 405.74 111.825 404.432 111.072C403.124 110.319 404.432 108.079 404.332 106.751C404.233 105.424 402.45 102.768 402.826 101.618Z" fill="black"/>
<path d="M443.315 23.2364C442.84 24.4057 445.119 24.8219 446.427 25.575C447.735 26.3281 448.766 26.8038 449.519 25.575C449.672 25.3044 449.759 25.0017 449.773 24.6911C449.788 24.3806 449.729 24.071 449.602 23.7874C449.474 23.5039 449.282 23.2542 449.04 23.0586C448.799 22.8631 448.515 22.7271 448.211 22.6617C447.18 22.3842 443.791 22.1068 443.315 23.2364Z" fill="black"/>
<path d="M461.093 34.2158C461.945 35.1274 463.431 34.9689 464.462 36.1976C465.492 37.4264 465.116 39.765 466.444 40.419C467.771 41.073 468.703 40.419 468.782 39.4677C468.861 38.5164 466.899 36.1976 467.098 35.722C467.296 35.2464 469.813 36.376 470.387 37.7038C470.962 39.0317 469.813 41.0928 471.141 41.4694C472.468 41.8459 472.171 40.1415 472.726 39.765C473.281 39.3884 474.53 39.5866 474.43 38.4569C473.962 36.8021 473.01 35.3251 471.695 34.2158C470.469 33.1538 469.02 32.3816 467.454 31.9565C466.603 31.7218 465.712 31.6676 464.838 31.7972C463.964 31.9269 463.127 32.2377 462.381 32.7096C461.271 33.5618 460.557 33.7005 461.093 34.2158Z" fill="black"/>
<path d="M501.74 51.9335C501.672 52.3125 501.485 52.6597 501.205 52.9244C499.223 54.3315 496.885 49.4364 494.15 48.5049C491.415 47.5734 490.186 44.0854 489.651 44.8385C489.116 45.5916 489.275 46.6221 488.422 47.8509C487.57 49.0796 486.44 48.7824 485.786 51.1408C485.132 53.4991 488.422 57.7998 487.669 59.2069C486.916 60.614 485.985 60.1582 484.478 60.0591C482.972 59.96 483.25 61.2878 481.288 60.7131C479.326 60.1383 481.01 57.7007 477.899 54.7675C474.787 51.8344 473.776 51.2795 474.43 49.9715C475.084 48.6634 474.153 46.7807 475.56 46.5825C476.967 46.3843 478.097 48.4653 479.028 49.0202C479.96 49.5751 481.189 47.8905 481.288 46.4041C481.387 44.9178 477.998 42.817 476.769 41.6675C475.694 39.7657 475.395 37.5216 475.937 35.4049C476.392 34.5527 477.919 34.8302 478.176 32.769C478.414 31.5601 476.492 29.5188 474.866 28.0522C485.176 34.3472 494.277 42.4349 501.74 51.9335Z" fill="black"/>
<path d="M515.772 136.162C516.049 133.169 514.543 132.971 516.049 127.422C516.5 125.235 516.492 122.978 516.024 120.795C515.557 118.611 514.641 116.549 513.334 114.738C512.204 113.529 509.747 113.906 507.785 115.115C505.823 116.324 507.21 117.275 505.902 117.751C504.594 118.226 503.266 117.473 502.057 117.572C500.848 117.671 499.699 120.763 497.063 120.664C494.427 120.565 492.743 116.819 490.781 114.144C488.819 111.468 484.835 109.764 483.448 106.474C482.061 103.184 484.677 98.1105 484.102 94.2657C483.527 90.4209 481.01 91.174 480.535 89.1922C480.059 87.2103 480.911 88.0625 481.565 86.0014C482.219 83.9403 480.812 82.8107 482.14 79.2235C483.468 75.6364 485.786 73.8725 485.231 72.287C484.677 70.7016 482.893 68.0459 482.794 66.183C482.695 64.32 484.577 64.3795 488.145 61.7634C491.712 59.1474 492.644 59.306 495.379 60.2572C497.314 60.9726 499.301 61.5359 501.324 61.9418C502.929 62.2193 505.09 66.3613 505.744 66.1631C506.398 65.965 506.497 64.756 506.774 62.9724C506.965 62.2083 507.379 61.5183 507.963 60.9905C518.567 78.0007 523.855 97.7882 523.149 117.821C522.443 137.853 515.775 157.219 504 173.44C513.631 158.656 515.494 139.174 515.772 136.162Z" fill="black"/>
</g>
<path opacity="0.1" d="M500.591 177.761C489.856 190.919 475.967 201.146 460.216 207.492C444.465 213.837 427.364 216.094 410.506 214.051C393.649 212.009 377.582 205.734 363.802 195.811C350.021 185.887 338.976 172.639 331.695 157.298C324.413 141.957 321.132 125.023 322.156 108.073C323.18 91.123 328.477 74.7075 337.553 60.3553C346.629 46.0031 359.189 34.1808 374.063 25.9891C388.938 17.7975 405.644 13.503 422.625 13.5054C425.4 13.5054 428.115 13.6045 430.83 13.8225L433.069 14.0405C409.646 16.6213 388.099 28.0715 372.853 46.0402C357.608 64.0089 349.819 87.1325 351.087 110.663C352.355 134.194 362.584 156.347 379.672 172.573C396.761 188.799 419.414 197.868 442.979 197.916C463.92 197.969 484.249 190.857 500.591 177.761Z" fill="black"/>
<path opacity="0.3" d="M523.223 114.143C523.257 135.397 516.524 156.11 504 173.282C494.578 186.284 482.202 196.86 467.89 204.139C480.349 197.004 491.156 187.311 499.6 175.7C510.189 161.165 516.716 144.072 518.508 126.179C520.3 108.285 517.294 90.2374 509.798 73.8913C502.302 57.5451 490.587 43.4907 475.858 33.1736C461.129 22.8566 443.918 16.6492 425.994 15.1899C423.279 14.9719 420.524 14.8728 417.75 14.8728C409.56 14.8782 401.401 15.8764 393.452 17.8456C402.912 14.9863 412.742 13.5372 422.625 13.545C425.4 13.545 428.115 13.644 430.83 13.862C444.636 14.9757 458.062 18.9327 470.265 25.4844C482.468 32.0362 493.184 41.0411 501.74 51.9333C503.988 54.7946 506.085 57.7715 508.023 60.8516C517.996 76.8346 523.264 95.3042 523.223 114.143Z" fill="white"/>
<path d="M535.768 114.144C535.803 138.041 528.23 161.328 514.147 180.635C502.769 196.299 487.562 208.782 469.981 216.889C452.4 224.997 433.032 228.457 413.731 226.939C394.43 225.421 375.842 218.976 359.744 208.22C343.646 197.464 330.578 182.757 321.789 165.507C313 148.256 308.784 129.039 309.546 109.693C310.307 90.3478 316.02 71.5213 326.138 55.015C336.256 38.5086 350.44 24.8747 367.333 15.4174C384.227 5.96017 403.264 0.996063 422.625 1C425.736 1 428.808 1.11891 431.84 1.37655C449.384 2.76244 466.357 8.25465 481.387 17.4097C492.963 24.4731 503.184 33.5471 511.57 44.2042C514.094 47.4228 516.449 50.77 518.625 54.2324C529.858 72.1944 535.799 92.9588 535.768 114.144Z" stroke="white" stroke-opacity="0.2" stroke-miterlimit="10" stroke-dasharray="4 4"/>
<path d="M253.018 396.378C244.881 405.779 235.706 414.229 225.669 421.568C237.084 389.957 222.32 326.28 222.022 335.813C220.496 381.396 202.085 434.608 192.077 438.869H191.898C164.489 447.847 137.536 445.132 113.932 437.284C113.924 437.231 113.924 437.178 113.932 437.125C129.549 400.877 116.251 335.793 115.538 340.015C107.61 385.597 79.488 416.732 73.7803 417.762C48.8288 401.769 33.7074 383.734 36.4225 381.118C55.5077 362.073 66.8636 320.117 76.0594 276.338C85.0966 233.173 86.2659 193.497 102.874 153.345C117.975 116.542 159.574 102.213 186.983 114.322C258.865 146.071 264.553 383.219 253.018 396.378Z" fill="#263238"/>
<path d="M133.156 126.392C116.33 133.883 104.915 152.81 98.5136 169.477C90.0313 191.654 86.2063 215.654 80.0824 238.544C67.9733 283.81 50.0574 326.677 24.7889 365.997C24.6942 366.166 24.6645 366.363 24.7054 366.552C24.7463 366.741 24.855 366.909 25.011 367.024C25.167 367.138 25.3595 367.192 25.5522 367.174C25.7449 367.157 25.9246 367.069 26.0573 366.928C55.3291 334.684 71.719 293.323 83.7092 251.704C89.8132 230.419 93.6184 208.618 99.2072 187.195C102.005 175.427 106.385 164.094 112.228 153.503C118.173 143.297 125.784 136.459 134.861 129.345C135.252 129.119 135.538 128.746 135.655 128.31C135.772 127.873 135.711 127.407 135.485 127.016C135.259 126.624 134.887 126.339 134.45 126.221C134.013 126.104 133.548 126.166 133.156 126.392Z" fill="#263238"/>
<path d="M185.536 341.759C241.167 406.585 334.294 486.434 365.746 468.28C392.223 453 413.488 355.87 413.746 325.191C413.865 311.318 318.796 279.787 318.617 294.69C318.419 310.545 315.209 354.78 312.989 354.145C306.033 351.906 286.948 339.896 219.188 307.453C181.414 289.359 148.654 298.832 185.536 341.759Z" fill="#EB9481"/>
<path d="M332.233 414.492C326.525 405.455 312.692 379.691 313.405 353.055C313.405 352.758 313.742 352.738 313.762 353.055C315.744 374.855 327.635 405.019 332.53 414.314C332.649 414.492 332.372 414.73 332.233 414.492Z" fill="#263238"/>
<path d="M256.368 426.879L287.166 334.941C287.166 334.941 223.628 301.488 187.142 291.341C166.669 285.692 162.012 301.488 170.831 318.512C201.728 378.126 256.368 426.879 256.368 426.879Z" fill="#FFC727"/>
<path d="M256.368 426.879L287.166 334.941C287.166 334.941 223.628 301.488 187.142 291.341C166.669 285.692 162.012 301.488 170.831 318.512C201.728 378.126 256.368 426.879 256.368 426.879Z" fill="#FFC727"/>
<path d="M226.244 336.665C224.913 333.656 223.158 330.853 221.031 328.342C221.559 331.59 222.547 334.746 223.964 337.716C225.282 340.738 227.039 343.549 229.177 346.059C228.652 342.804 227.664 339.641 226.244 336.665ZM284.867 333.633C282.584 334.245 280.356 335.047 278.208 336.031C275.199 337.361 272.401 339.123 269.904 341.263C273.152 340.735 276.308 339.748 279.278 338.33C281.703 337.266 284.002 335.937 286.135 334.366L284.867 333.633ZM170.336 317.56C170.494 317.897 170.653 318.214 170.831 318.551L171.406 319.641C171.809 318.063 172.061 316.451 172.159 314.825C171.501 315.703 170.893 316.616 170.336 317.56ZM234.25 390.433C231.181 389.245 227.958 388.504 224.678 388.233C230.076 392.024 236.365 394.353 242.931 394.991C240.265 393.072 237.343 391.538 234.25 390.433Z" fill="white"/>
<path opacity="0.1" d="M276.999 365.204L256.368 426.879C256.368 426.879 201.728 378.126 170.851 318.551C167.792 313.24 166.352 307.151 166.709 301.032L276.999 365.204Z" fill="black"/>
<path d="M271.529 333.197C265.583 346.971 250.68 384.725 244.179 410.608C244.179 410.767 244.694 410.985 244.774 410.846C253.415 390.156 267.684 347.744 272.381 333.554C272.539 333.257 271.707 332.959 271.529 333.197Z" fill="#263238"/>
<path d="M388.18 362.013C378.152 367.82 320.262 327.43 319.212 315.598C318.479 307.354 317.944 271.998 308.748 250.455C301.058 232.361 287.582 206.379 297.154 201.88C311.027 195.281 332.094 226.078 343.074 244.51C348.88 234.382 354.806 226.237 360.018 222.709C377.3 211.115 438.797 281.689 432.435 301.864C426.311 321.346 398.209 356.206 388.18 362.013Z" fill="#EB9481"/>
<path d="M352.465 195.91L337.912 203.704L377.544 277.711L392.098 269.918L352.465 195.91Z" fill="#C7C7C7"/>
<path d="M324.762 202.554C327.033 202.107 329.256 201.443 331.401 200.572C331.916 200.374 332.431 200.136 332.927 199.898C333.422 199.66 333.838 199.482 334.294 199.264L335.206 198.808L348.742 191.475C347.517 192.146 346.253 192.741 344.957 193.259C343.855 193.708 342.73 194.098 341.587 194.428C340.501 194.769 339.396 195.046 338.278 195.261C310.254 201.068 277.95 176.374 266.178 140.146C257.062 112.221 262.769 85.6052 278.703 72.2278C280.684 70.5559 282.829 69.0885 285.105 67.8479L271.529 75.1609C271.529 75.1609 271.529 75.1609 271.43 75.1609C270.838 75.4601 270.262 75.7909 269.706 76.1518C269.21 76.4491 268.735 76.7464 268.279 77.0833L267.625 77.5193C267.269 77.7594 266.925 78.0173 266.594 78.2922L266 78.7481C255.972 86.6754 249.768 99.7358 248.5 115.095C248.5 115.888 248.381 116.661 248.342 117.434C247.911 127.593 249.356 137.744 252.602 147.379C264.414 183.667 296.718 208.361 324.762 202.554Z" fill="#37474F"/>
<path d="M376.567 117.414C388.458 154.236 378.549 189.117 354.231 202.157L340.695 209.451C364.953 196.39 374.922 161.49 362.952 124.667C349.079 82.1963 311.186 53.3208 278.307 59.9996C275.641 60.5513 273.029 61.3338 270.498 62.3382C268.972 62.9724 267.506 63.6661 266.059 64.4192L279.575 57.126C281.022 56.3729 282.508 55.6594 284.034 55.045C286.552 54.0253 289.16 53.2424 291.823 52.7065C324.722 45.9682 362.694 74.9428 376.567 117.414Z" fill="#37474F"/>
<path d="M328.467 213.93C331.128 213.382 333.734 212.599 336.256 211.591C338.099 210.854 339.888 209.987 341.607 208.995H341.785C342.499 208.579 343.193 208.143 343.866 207.707C344.54 207.271 344.699 207.152 345.095 206.854C350.773 202.836 355.507 197.628 358.968 191.594C359.787 190.273 360.54 188.866 361.227 187.373C362.303 185.169 363.236 182.898 364.022 180.575C364.299 179.763 364.577 178.97 364.814 178.157C365.31 176.552 365.746 174.887 366.103 173.223C366.459 171.558 366.816 169.794 367.074 168.03C367.331 166.266 367.549 164.502 367.708 162.679C368.644 149.869 367.02 137.002 362.932 124.826C349.059 82.3747 311.166 53.4794 278.287 60.1582C276.92 60.4357 275.592 60.7924 274.323 61.169C273.055 61.5455 271.767 62.0212 270.518 62.4968C269.825 62.7743 269.151 63.0715 268.536 63.3886L268.061 63.6066C267.506 63.8643 266.951 64.1417 266.416 64.439C241.801 77.3012 231.892 112.301 243.783 149.242C257.656 191.753 295.569 220.708 328.467 213.93ZM252.642 147.439C249.395 137.803 247.951 127.652 248.381 117.493C248.381 116.72 248.381 115.947 248.54 115.154C249.808 99.7951 256.011 86.7546 266.039 78.8074L266.634 78.3516C266.964 78.0767 267.308 77.8187 267.664 77.5786L268.318 77.1426C268.774 76.8057 269.25 76.5084 269.745 76.2112C270.323 75.8821 270.919 75.5843 271.529 75.3193C271.529 75.3193 271.529 75.3193 271.628 75.3193C273.892 74.0833 276.284 73.0997 278.763 72.3862C279.843 72.046 280.941 71.7681 282.053 71.5538C310.096 65.7867 342.42 90.4606 354.212 126.689C363.308 154.593 357.581 181.209 341.647 194.587C339.412 196.477 336.964 198.1 334.354 199.423C333.898 199.641 333.462 199.859 332.986 200.057C332.51 200.255 331.975 200.532 331.46 200.731C329.315 201.602 327.092 202.265 324.821 202.712C296.718 208.361 264.414 183.667 252.642 147.439Z" fill="#455A64"/>
<path opacity="0.4" d="M338.278 195.261C339.396 195.046 340.501 194.768 341.587 194.428C357.442 181.051 363.249 154.435 354.152 126.53C342.36 90.302 310.036 65.628 281.993 71.3556C280.882 71.5698 279.783 71.8478 278.703 72.1879C262.849 85.5654 257.062 112.182 266.178 140.106C277.95 176.393 310.254 201.067 338.278 195.261Z" fill="white"/>
<g opacity="0.3">
<path d="M263.086 100.588L344.857 106.375C342.351 102.308 339.528 98.4448 336.415 94.8209L266.257 89.8464C264.852 93.3147 263.79 96.9124 263.086 100.588Z" fill="#EBEBEB"/>
<path d="M273.749 77.3013L320.401 80.611C308.253 72.5052 294.637 68.8785 281.993 71.4747C280.882 71.689 279.783 71.9669 278.703 72.307C276.901 73.8153 275.243 75.4872 273.749 77.3013Z" fill="#EBEBEB"/>
<path d="M261.977 109.011L349.693 115.234C348.742 113.252 347.711 111.27 346.74 109.546L262.551 103.6C262.274 105.443 262.095 107.247 261.977 109.011Z" fill="#EBEBEB"/>
<path d="M291.01 179.148C293.366 181.286 295.855 183.272 298.462 185.094L347.196 188.542C348.524 186.917 349.73 185.194 350.803 183.39L291.01 179.148Z" fill="#EBEBEB"/>
<path d="M275.374 160.142L357.244 165.929C358.647 158.439 358.861 150.774 357.878 143.217L265.108 136.638C265.425 137.814 265.782 138.983 266.178 140.146C268.444 147.15 271.531 153.863 275.374 160.142Z" fill="#EBEBEB"/>
</g>
<path d="M423.219 319.047L401.201 330.839L366.063 265.22L388.081 253.428L423.219 319.047Z" fill="#263238"/>
<path d="M336.93 245.897C339.486 256.401 350.406 247.383 350.406 247.383C350.406 247.383 337.822 264.15 344.619 273.96C351.219 283.413 364.022 271.978 364.953 271.245C364.299 272.137 353.062 287.853 360.989 297.009C369.155 306.502 380.055 292.906 380.808 292.015C380.451 293.065 375.952 306.859 383.523 312.467C396.504 322.079 408.95 287.08 421 281.967C421 281.967 431.979 301.389 432.435 301.785C432.435 301.785 444.94 268.748 437.152 252.893C436.052 250.568 434.191 248.687 431.878 247.563C429.564 246.439 426.936 246.138 424.428 246.71C424.428 246.71 429.641 236.503 423.675 229.091C420.603 225.306 411.784 226.851 411.784 226.851C411.784 226.851 415.609 218.488 409.901 212.245C405.363 207.231 397.237 209.57 397.237 209.57C397.237 209.57 397.237 199.839 390.895 196.232C378.231 189.038 331.539 223.403 336.93 245.897Z" fill="#EB9481"/>
<path d="M395.929 209.827C396.088 209.728 395.929 209.471 395.81 209.55C377.696 217.12 360.137 230.954 349.792 247.799C349.455 248.354 350.208 249.147 350.704 248.612C364.676 233.273 378.231 220.787 395.929 209.827Z" fill="#263238"/>
<path d="M411.982 226.673C412.18 226.554 411.982 226.237 411.764 226.336C393.135 234.263 373.752 250.376 364.2 271.185C363.883 271.899 364.2 272.87 364.735 272.077C372.127 258.719 395.989 236.463 411.982 226.673Z" fill="#263238"/>
<path d="M380.649 293.699C390.558 274.098 405.858 259.671 423.655 247.086C423.893 246.927 423.655 246.61 423.398 246.69C413.013 250.475 402.509 259.671 394.938 267.519C387.794 274.659 382.637 283.539 379.975 293.283C379.857 293.739 380.53 294.115 380.649 293.699Z" fill="#263238"/>
<path d="M350.07 247.403C349.673 248.077 351.08 247.938 350.704 248.612C349.079 251.466 340.794 269.402 346.086 274.118C350.287 277.884 358.274 274.832 360.871 272.454L367.43 266.508L363.348 274.435C361.508 277.921 360.25 281.683 359.622 285.573C359.224 287.357 359.209 289.205 359.578 290.996C359.947 292.786 360.691 294.477 361.762 295.958C362.77 297.328 364.219 298.309 365.865 298.735C367.511 299.161 369.254 299.006 370.8 298.297C374.23 296.656 377.184 294.166 379.381 291.063L385.743 282.72L382.473 292.629C381.568 295.396 381.015 298.266 380.828 301.171C380.543 303.904 381.067 306.66 382.334 309.098C382.959 310.175 383.874 311.056 384.973 311.641C386.073 312.225 387.314 312.491 388.557 312.408C391.304 311.807 393.821 310.432 395.811 308.444C400.192 304.232 404.241 299.687 407.92 294.848C409.901 292.47 411.883 290.072 413.865 287.773C415.807 285.343 418.246 283.356 421.02 281.947C418.456 283.628 416.248 285.796 414.519 288.328C412.656 290.746 410.912 293.263 409.148 295.78C405.739 300.985 401.843 305.856 397.515 310.327C395.211 312.793 392.234 314.529 388.953 315.321C387.125 315.555 385.267 315.25 383.609 314.444C381.951 313.638 380.564 312.365 379.619 310.783C377.911 307.775 377.158 304.319 377.459 300.873C377.603 297.634 378.176 294.429 379.163 291.341L382.255 292.926C379.715 296.64 376.243 299.62 372.187 301.567C369.915 302.595 367.355 302.792 364.953 302.122C362.605 301.402 360.532 299.985 359.008 298.059C357.647 296.188 356.699 294.048 356.228 291.783C355.756 289.518 355.772 287.178 356.273 284.919C357.025 280.647 358.478 276.529 360.573 272.731L363.051 274.713C359.642 277.606 351.16 281.986 343.827 276.972C335.344 269.065 347.592 250.614 350.07 247.403Z" fill="#263238"/>
<path d="M350.446 247.383C348.491 248.444 346.386 249.199 344.203 249.623C343.329 249.81 342.421 249.762 341.571 249.483C340.722 249.204 339.961 248.706 339.367 248.037C338.272 246.392 337.68 244.464 337.663 242.488C337.544 240.308 337.524 238.009 337.663 235.651C336.43 237.724 335.647 240.033 335.364 242.429C335.142 243.736 335.181 245.073 335.477 246.366C335.772 247.658 336.32 248.879 337.088 249.96C338.053 251.063 339.332 251.845 340.755 252.199C342.079 252.457 343.448 252.354 344.718 251.902C347.061 251.045 349.067 249.462 350.446 247.383Z" fill="#263238"/>
<path d="M17.1589 557.562L255.932 556.908L241.504 467.111C241.504 467.111 262.155 442.06 258.231 414.869C253.95 385.141 200.242 309.574 195.723 305.313C177.55 288.249 158.425 283.691 141.104 292.629C81.5293 323.427 17.1589 557.562 17.1589 557.562Z" fill="#FFC727"/>
<path d="M173.963 387.995C172.639 384.986 170.891 382.183 168.77 379.671C169.285 382.924 170.259 386.087 171.664 389.065C173.009 392.067 174.763 394.868 176.876 397.389C176.382 394.129 175.4 390.962 173.963 387.995ZM202.045 517.747C200.71 514.716 198.955 511.887 196.833 509.344C197.335 512.593 198.31 515.751 199.727 518.718C201.05 521.774 202.805 524.624 204.939 527.18C204.439 523.912 203.464 520.733 202.045 517.747ZM126.854 508.868C125.511 505.871 123.757 503.076 121.642 500.564C122.752 507.074 125.554 513.177 129.768 518.262C129.252 515.007 128.271 511.843 126.854 508.868ZM81.2717 410.251C78.2632 411.581 75.4655 413.343 72.9678 415.483C76.2136 414.946 79.3687 413.959 82.3419 412.55C85.3517 411.232 88.1499 409.475 90.6459 407.338C87.3994 407.862 84.2435 408.843 81.2717 410.251ZM75.9802 536.099C72.9824 537.44 70.1872 539.194 67.6763 541.311C70.9249 540.796 74.0821 539.814 77.0504 538.397C80.0618 537.079 82.8656 535.33 85.3742 533.205C82.1194 533.71 78.9552 534.685 75.9802 536.099ZM200.837 438.75C197.828 440.084 195.026 441.839 192.513 443.963C199.022 442.853 205.126 440.05 210.211 435.837C206.967 436.347 203.816 437.329 200.856 438.75H200.837ZM167.541 323.506C166.361 326.577 165.62 329.8 165.342 333.078C167.292 330.426 168.841 327.501 169.94 324.398C171.127 321.329 171.868 318.105 172.139 314.825C170.215 317.491 168.674 320.413 167.561 323.506H167.541ZM127.29 430.327C126.101 433.423 125.367 436.673 125.11 439.979C127.03 437.304 128.571 434.376 129.688 431.279C130.862 428.207 131.596 424.984 131.868 421.706C129.95 424.351 128.416 427.253 127.31 430.327H127.29ZM242.891 475.652C242.217 477 241.643 478.387 241.088 479.774C239.914 482.853 239.18 486.083 238.908 489.367C240.845 486.702 242.386 483.772 243.486 480.666C243.486 480.528 243.585 480.409 243.625 480.27L242.891 475.652ZM230.861 556.908H232.269C232.412 556.082 232.505 555.248 232.546 554.411C231.939 555.246 231.376 556.112 230.861 557.007V556.908ZM78.1602 473.393C75.0947 472.194 71.8694 471.453 68.5879 471.193C71.2463 473.123 74.1702 474.659 77.2684 475.751C80.3436 476.941 83.5741 477.682 86.8605 477.951C84.1904 476.028 81.2611 474.494 78.1602 473.393ZM163.518 551.914C160.446 550.71 157.215 549.962 153.926 549.694C156.593 551.627 159.523 553.168 162.627 554.272C165.695 555.462 168.919 556.203 172.199 556.472C169.538 554.545 166.615 553.01 163.518 551.914ZM234.25 390.433C231.181 389.245 227.958 388.504 224.678 388.233C230.077 392.024 236.365 394.353 242.931 394.991C240.265 393.072 237.343 391.538 234.25 390.433ZM165.817 476.762C162.748 475.574 159.525 474.834 156.245 474.562C161.613 478.357 167.876 480.693 174.418 481.34C171.785 479.41 168.889 477.869 165.817 476.762ZM117.718 361.399C114.642 360.211 111.412 359.47 108.126 359.199C113.534 362.986 119.827 365.314 126.398 365.957C123.733 364.038 120.811 362.504 117.718 361.399Z" fill="white"/>
<path d="M200.182 460.293C189.498 461.245 178.899 462.987 168.473 465.505C163.3 466.833 158.227 468.379 153.173 470.044C150.656 470.876 148.119 471.629 145.563 472.362C142.914 473.206 140.172 473.719 137.397 473.888C137.345 473.888 137.294 473.909 137.257 473.947C137.22 473.984 137.199 474.034 137.199 474.087C137.199 474.139 137.22 474.19 137.257 474.227C137.294 474.264 137.345 474.285 137.397 474.285C140.041 474.403 142.688 474.35 145.325 474.126C147.858 473.834 150.368 473.364 152.836 472.719C158.088 471.431 163.26 469.885 168.512 468.537C179.076 465.822 189.639 463.107 200.38 461.165C200.797 461.086 200.658 460.234 200.182 460.293Z" fill="#263238"/>
<path d="M226.561 469.707C217.759 468.789 208.913 468.366 200.063 468.438C195.644 468.438 191.244 468.795 186.844 469.231C184.744 469.429 182.643 469.667 180.542 469.945C178.223 470.222 175.964 470.836 173.645 471.094C173.408 471.094 173.408 471.49 173.645 471.471C175.825 471.292 178.045 471.471 180.245 471.471L186.844 471.292C191.264 471.193 195.684 471.134 200.083 470.975C208.922 470.678 217.722 470.46 226.561 470.48C227.056 470.48 227.017 469.707 226.561 469.707Z" fill="#263238"/>
<path d="M112.109 318.274C52.5745 394.04 -15.8388 546.999 3.26616 574.269C24.4917 604.67 109.771 497.334 106.322 492.894C103.389 489.129 128.677 397.984 146.494 331.81C164.311 265.636 126.854 299.545 112.109 318.274Z" fill="#EB9481"/>
<path d="M38.9988 409.28L135.713 417.207C135.713 417.207 152.955 347.565 154.065 309.712C154.699 288.506 142.293 288.824 127.865 301.448C77.3079 345.703 38.9988 409.28 38.9988 409.28Z" fill="#FFC727"/>
<path d="M117.718 361.399C114.642 360.211 111.412 359.47 108.126 359.199C113.534 362.986 119.827 365.314 126.398 365.957C123.733 364.038 120.811 362.504 117.718 361.399ZM81.2717 410.251C79.8438 410.912 78.4543 411.653 77.1098 412.471L81.668 412.848L82.322 412.55C85.3318 411.232 88.13 409.475 90.626 407.338C87.3863 407.864 84.2372 408.845 81.2717 410.251ZM68.8851 366.056C68.8794 366.096 68.8794 366.136 68.8851 366.175L69.004 366.314C69.004 366.314 68.9842 366.096 68.9644 366.016L68.8851 366.056Z" fill="white"/>
<path d="M133.592 401.749C118.808 399.292 78.5367 393.822 51.8808 393.624C51.7223 393.624 51.6628 394.238 51.8808 394.258C74.0379 397.726 118.629 401.491 133.553 402.661C133.751 402.681 133.87 401.789 133.592 401.749Z" fill="#263238"/>
<path d="M123.921 416.197C127.885 416.197 131.848 416.296 135.812 416.455L135.039 417.01C136.862 406.387 139.003 395.824 141.421 385.3C143.838 374.776 146.454 364.352 149.586 353.987C148.099 364.689 146.098 375.292 143.898 385.835C141.698 396.378 139.241 406.902 136.466 417.327L136.288 417.961H135.693C131.729 417.485 127.825 416.93 123.921 416.197Z" fill="#263238"/>
<path d="M145.226 375.192C145.869 372.991 146.759 370.87 147.882 368.87C149.001 366.865 150.267 364.944 151.667 363.123C151.568 364.287 151.294 365.43 150.854 366.512C150.456 367.589 149.979 368.636 149.427 369.643C148.323 371.699 146.905 373.572 145.226 375.192Z" fill="#263238"/>
<path d="M147.386 300.794C148.655 305.214 171.584 333.158 191.997 331.116C198.637 330.442 196.576 293.996 196.576 293.996L197.031 291.281L203.492 253.131L157.692 227.03L151.092 223.601C151.092 223.601 150.022 234.164 148.813 247.383C148.813 247.978 148.694 248.592 148.635 249.246C148.575 249.9 148.456 250.693 148.417 251.387C148.199 253.368 148.001 255.35 147.842 257.332C147.723 258.858 147.584 260.344 147.505 261.95C147.426 263.555 147.307 265.121 147.188 266.726C146.375 282.561 146.871 298.911 147.386 300.794Z" fill="#EB9481"/>
<path d="M148.813 247.324C153.175 257.72 159.747 267.042 168.074 274.643C176.4 282.244 186.282 287.942 197.031 291.341L203.492 253.19L157.692 227.03L151.092 223.601C151.092 223.601 150.022 234.164 148.813 247.324Z" fill="#263238"/>
<path d="M247.192 179.366C266.673 244.43 229.91 263.436 215.879 267.618C203.135 271.423 159.277 282.739 133.176 220.054C107.075 157.368 131.194 127.739 159.852 117.513C188.509 107.287 227.73 114.302 247.192 179.366Z" fill="#EB9481"/>
<path d="M235.856 168.466C234.359 168.929 232.837 169.306 231.297 169.596C229.744 170.213 228.031 170.304 226.422 169.853C225.948 169.612 225.566 169.221 225.337 168.741C225.108 168.261 225.043 167.718 225.154 167.198C225.535 166.201 226.178 165.325 227.015 164.663C227.852 164 228.852 163.575 229.91 163.432C231.994 162.777 234.247 162.918 236.232 163.829C236.653 164.073 236.997 164.431 237.223 164.863C237.449 165.294 237.548 165.781 237.508 166.266C237.469 166.752 237.293 167.216 237 167.605C236.708 167.995 236.311 168.293 235.856 168.466Z" fill="#263238"/>
<path d="M191.997 193.814C193.524 193.49 195.032 193.087 196.516 192.605C198.171 192.41 199.716 191.679 200.916 190.524C201.219 190.085 201.37 189.558 201.345 189.024C201.32 188.491 201.12 187.98 200.777 187.571C199.976 186.871 199.002 186.399 197.956 186.204C196.91 186.009 195.831 186.097 194.832 186.461C192.683 186.885 190.768 188.093 189.461 189.85C189.187 190.266 189.04 190.752 189.037 191.25C189.034 191.748 189.175 192.236 189.443 192.655C189.711 193.075 190.095 193.407 190.549 193.613C191.002 193.818 191.505 193.888 191.997 193.814Z" fill="#263238"/>
<path d="M230.069 189.414C230.069 189.236 230.465 189.553 230.505 189.731C231.278 194.29 232.962 199.383 237.362 200.037C237.501 200.037 237.54 200.295 237.362 200.314C232.229 200.632 230.088 193.854 230.069 189.414Z" fill="#263238"/>
<path d="M233.14 183.845C240.315 181.863 243.882 196.291 237.243 198.194C230.604 200.096 227.135 185.569 233.14 183.845Z" fill="#263238"/>
<path d="M236.391 184.063C237.738 184.539 239.205 185.649 240.592 185.411C241.98 185.173 242.99 183.27 243.644 181.447C243.644 181.269 243.842 181.447 243.902 181.447C244.655 184.202 244.457 187.393 241.92 188.503C239.383 189.612 237.243 187.65 235.975 185.054C235.657 184.737 235.856 183.865 236.391 184.063Z" fill="#263238"/>
<path d="M212.232 234.144C213.5 235.036 214.828 236.325 216.513 236.126C218.204 235.794 219.809 235.12 221.23 234.144C221.258 234.122 221.293 234.111 221.329 234.111C221.366 234.112 221.4 234.125 221.428 234.148C221.456 234.171 221.475 234.203 221.482 234.238C221.489 234.274 221.484 234.311 221.467 234.343C220.961 235.36 220.189 236.221 219.233 236.835C218.277 237.449 217.173 237.793 216.037 237.831C215.068 237.74 214.148 237.364 213.393 236.75C212.638 236.137 212.082 235.312 211.796 234.382C211.717 234.164 212.073 234.026 212.232 234.144Z" fill="#263238"/>
<path d="M227.393 213.573C227.393 213.573 229.851 220.113 230.584 223.284C230.584 223.581 229.91 223.898 228.84 224.196C228.84 224.196 228.84 224.196 228.721 224.196C226.105 225.308 223.233 225.68 220.419 225.271C217.606 224.862 214.959 223.688 212.767 221.877C212.703 221.823 212.661 221.748 212.649 221.665C212.637 221.582 212.657 221.498 212.704 221.429C212.751 221.36 212.822 221.31 212.903 221.291C212.985 221.271 213.07 221.282 213.144 221.322C217.821 223.176 222.972 223.468 227.829 222.154C227.829 221.223 223.251 211.116 223.747 210.977C226.265 210.629 228.819 210.629 231.337 210.977C226.62 197.223 219.743 184.361 215.245 170.607C215.221 170.507 215.233 170.402 215.276 170.31C215.32 170.217 215.393 170.142 215.485 170.096C215.576 170.05 215.681 170.037 215.781 170.058C215.881 170.078 215.971 170.132 216.037 170.21C224.202 183.191 229.91 198.888 235.202 212.959C235.856 214.742 228.8 213.831 227.393 213.573Z" fill="#263238"/>
<path d="M188.807 200.79C190.024 199.91 191.358 199.203 192.77 198.689C194.205 198.173 195.707 197.866 197.229 197.778C198.837 197.698 200.445 197.927 201.966 198.452C203.542 199.027 204.966 199.956 206.128 201.167L208.209 203.347L205.216 203.842C203.089 204.178 201.004 204.736 198.993 205.507C196.894 206.264 195.019 207.539 193.543 209.213C194.193 206.798 195.747 204.726 197.883 203.426C199.968 202.06 202.307 201.13 204.76 200.691L203.829 203.367C202.027 201.658 199.687 200.628 197.21 200.453C194.405 200.218 191.583 200.331 188.807 200.79Z" fill="#263238"/>
<path d="M200.182 210.085C202.263 209.02 204.195 207.688 205.93 206.121C206.306 205.705 207.733 203.921 207.535 203.585C206.998 202.559 206.332 201.607 205.553 200.75C206.589 201.426 207.478 202.302 208.169 203.327C208.194 203.99 208.071 204.649 207.811 205.259C207.551 205.869 207.159 206.414 206.663 206.855C204.823 208.481 202.588 209.595 200.182 210.085Z" fill="#263238"/>
<path d="M141.995 225.187C155.472 220.391 145.464 189.196 145.464 189.196C145.464 189.196 166.868 177.107 171.01 158.339C171.01 158.339 169.305 173.936 162.23 182.557C161.041 184.004 205.831 163.393 198.062 126.312C198.062 126.312 216.929 159.092 240.592 159.013C241.722 159.013 226.521 128.096 217.127 122.943C211.709 119.908 205.92 117.59 199.905 116.046C182.374 110.41 163.332 111.876 146.871 120.129C119.779 134.002 111.376 170.428 113.437 183.548C117.46 209.114 135.614 227.446 141.995 225.187Z" fill="#263238"/>
<path d="M163.974 182.815C188.926 173.024 203.611 149.956 196.774 123.359C196.758 123.221 196.79 123.082 196.864 122.964C196.938 122.847 197.05 122.758 197.181 122.712C197.312 122.666 197.455 122.666 197.586 122.711C197.717 122.757 197.829 122.846 197.903 122.963C210.329 148.033 188.549 177.008 163.895 183.35C163.3 183.488 163.399 183.033 163.974 182.815Z" fill="#263238"/>
<path d="M141.559 223.72C152.876 211.968 150.319 197.441 146.554 183.092C146.554 182.656 147.148 182.418 147.307 182.834C152.222 196.489 155.492 214.167 142.451 224.711C142.317 224.8 142.154 224.838 141.994 224.818C141.834 224.798 141.686 224.72 141.578 224.6C141.47 224.48 141.408 224.325 141.405 224.163C141.402 224.002 141.456 223.844 141.559 223.72Z" fill="#263238"/>
<path d="M196.457 120.902C196.457 120.865 196.471 120.83 196.497 120.804C196.523 120.778 196.558 120.763 196.595 120.763C196.632 120.763 196.667 120.778 196.693 120.804C196.719 120.83 196.734 120.865 196.734 120.902C204.78 134.339 213.798 158.557 233.636 155.901C233.688 155.891 233.742 155.891 233.794 155.901C233.846 155.911 233.895 155.932 233.939 155.961C233.984 155.991 234.022 156.029 234.051 156.073C234.081 156.117 234.101 156.166 234.112 156.218C234.122 156.27 234.122 156.324 234.112 156.376C234.101 156.428 234.081 156.478 234.052 156.522C234.022 156.566 233.984 156.604 233.94 156.634C233.896 156.663 233.847 156.684 233.795 156.694C214.987 160.896 199.647 136.558 196.457 120.902Z" fill="#263238"/>
<path d="M115.855 181.903L112.783 188.463L134.484 203.743L141.104 188.978L115.855 181.903ZM132.8 197.064L117.797 187.75L118.471 186.204L135.237 191.892L132.8 197.064Z" fill="#FFC727"/>
<path d="M116.529 170.448L116.152 177.682L142.035 183.627L142.59 167.455L116.529 170.448ZM138.032 178.078L120.611 175.105V173.421L138.289 172.37L138.032 178.078Z" fill="#FFC727"/>
<path d="M145.008 221.976C145.008 221.976 126.2 204.139 117.857 211.353C109.513 218.567 126.656 246.313 138.567 248.136C140.083 248.483 141.653 248.518 143.183 248.239C144.713 247.961 146.17 247.375 147.467 246.517C148.764 245.66 149.873 244.548 150.728 243.249C151.583 241.95 152.165 240.491 152.44 238.96L145.008 221.976Z" fill="#EB9481"/>
<path d="M122.89 219.162C122.712 219.162 122.732 219.439 122.89 219.479C131.293 221.005 136.862 227.406 141.262 234.204C138.369 231.826 134.9 230.894 131.63 234.442C131.452 234.62 131.63 234.898 131.928 234.818C133.198 234.099 134.661 233.792 136.113 233.942C137.566 234.091 138.936 234.688 140.033 235.651C141.864 237.263 143.512 239.07 144.948 241.041C145.464 241.676 146.633 241.041 146.217 240.288C146.207 240.236 146.207 240.182 146.217 240.13C144.334 230.201 133.791 218.012 122.89 219.162Z" fill="#263238"/>
<path d="M5.26782 576.726C25.0863 594.464 66.3879 589.034 171.743 585.129C186.309 584.574 210.151 480.706 194.554 480.488C174.934 480.21 98.6524 483.381 93.1032 484.313C46.2722 492.161 -8.1691 564.657 5.26782 576.726Z" fill="#EB9481"/>
<path d="M166.253 486.295C166.253 486.295 204.463 471.351 226.977 469.726C257.121 467.546 284.054 478.09 295.053 483.183C318.063 493.826 366.301 535.425 356.748 551.418C348.088 565.886 300.92 520.858 300.92 520.858C300.92 520.858 356.59 558.83 342.955 574.368C329.319 589.906 277.554 534.513 277.554 534.513C277.554 534.513 333.878 574.744 317.29 588.617C304.764 599.022 255.04 551.517 255.04 551.517C255.04 551.517 303.219 586.477 290.713 597.734C276.979 610.18 228.344 569.195 228.344 569.195C191.938 592.502 165.084 588.697 146.296 583.722C141.837 582.414 166.253 486.295 166.253 486.295Z" fill="#EB9481"/>
<path d="M282.508 506.49C289.207 510.711 296.024 514.952 302.327 519.748C308.629 524.544 314.773 529.658 320.579 534.949C328.326 541.824 335.267 549.557 341.27 557.998C329.537 543.788 307.242 526.288 300.939 521.433C294.637 516.577 288.612 511.524 282.31 506.728C282.151 506.609 282.35 506.391 282.508 506.49Z" fill="#263238"/>
<path d="M264.751 528.924C273.075 534.692 281.537 540.102 289.603 546.246C297.669 552.389 304.725 558.83 312.315 565.47C312.91 565.985 312.434 566.143 311.82 565.648C303.892 559.306 296.242 554.074 288.315 547.811C280.388 541.549 272.718 535.028 264.533 529.103C264.473 529.023 264.632 528.845 264.751 528.924Z" fill="#263238"/>
<path d="M246.042 545.453C259.202 553.598 270.855 564.181 282.033 574.824C282.588 575.359 282.033 575.478 281.359 574.963C269.587 565.053 260.411 557.126 245.686 545.909C245.527 545.73 245.765 545.275 246.042 545.453Z" fill="#263238"/>
<path d="M52.7529 504.171C60.4821 498.226 82.7184 483.342 106.679 483.025C106.956 483.025 106.996 483.362 106.679 483.401C87.2965 486.156 60.9379 499.137 52.9114 504.449C52.8945 504.474 52.8714 504.494 52.8444 504.508C52.8174 504.522 52.7872 504.529 52.7569 504.528C52.7266 504.526 52.697 504.518 52.671 504.502C52.6451 504.486 52.6235 504.464 52.6085 504.438C52.5934 504.411 52.5853 504.382 52.585 504.351C52.5846 504.321 52.592 504.291 52.6065 504.264C52.621 504.238 52.642 504.215 52.6676 504.199C52.6932 504.182 52.7226 504.173 52.7529 504.171Z" fill="#263238"/>
</svg>
