<svg width="200" height="32" viewBox="0 0 200 32" fill="none" xmlns="http://www.w3.org/2000/svg">
<path d="M5.79945 4.99681H0V0.275415H17.456L16.6691 2.59677L15.8822 4.99156H11.3523L11.4494 5.92798V24.0529H5.79945V4.99681ZM26.146 16.4357C25.9136 16.3934 25.6789 16.3654 25.4431 16.3518C25.1808 16.3518 24.9788 16.3518 24.7978 16.3518C24.0043 16.3215 23.2143 16.4712 22.487 16.7898C22.2059 16.9198 21.9715 17.1328 21.8153 17.4001C21.6591 17.6675 21.5887 17.9763 21.6135 18.2849C21.5928 18.6607 21.7042 19.0318 21.9283 19.3341C22.1447 19.5854 22.4206 19.7784 22.7309 19.8954C23.0503 20.0176 23.3863 20.091 23.7276 20.1131C24.0791 20.1368 24.3729 20.1499 24.6273 20.1499C25.1379 20.1418 25.6464 20.0847 26.146 19.9794V16.4357ZM24.3834 12.7635C24.567 12.7635 24.8109 12.7635 25.1126 12.7871C25.4142 12.8107 25.7709 12.8133 26.146 12.837C26.1224 11.974 25.8182 11.4153 25.2227 11.1582C24.4819 10.8777 23.6932 10.7458 22.9014 10.77C22.2973 10.778 21.6952 10.8394 21.102 10.9536C20.3583 11.0916 19.6234 11.2738 18.9013 11.4992L18.3557 9.66312C18.2823 9.41918 18.1984 9.06771 18.0646 8.59294C17.9308 8.11818 17.8574 7.7667 17.8023 7.49915C18.8502 7.14662 19.9235 6.87478 21.0128 6.68602C21.9115 6.52294 22.8222 6.43521 23.7355 6.42372C26.1303 6.42372 27.99 6.99554 29.3015 8.11556C30.613 9.23558 31.2583 11.0192 31.2583 13.4743V23.2555C30.3848 23.4994 29.3618 23.7408 28.2077 23.9716C26.9827 24.2125 25.7368 24.3311 24.4883 24.3257C23.4115 24.3312 22.3369 24.2292 21.2804 24.0214C20.3996 23.8565 19.5605 23.5177 18.8121 23.0247C18.1255 22.5675 17.5753 21.933 17.22 21.1886C16.8207 20.3251 16.6293 19.38 16.6613 18.4292C16.6277 17.4742 16.868 16.5295 17.3538 15.7065C17.8038 14.9869 18.4211 14.3866 19.1531 13.957C19.9192 13.5191 20.7522 13.2107 21.6187 13.0442C22.5301 12.8699 23.4556 12.7803 24.3834 12.7766V12.7635ZM34.6813 0H39.7987V17.1282C39.7868 17.5962 39.8193 18.0643 39.8958 18.5262C39.9386 18.8236 40.0509 19.1067 40.2237 19.3525C40.359 19.5474 40.5542 19.6929 40.7797 19.7669C41.0417 19.835 41.3117 19.8677 41.5824 19.864C41.7398 19.864 41.9234 19.864 42.128 19.8508C42.4721 19.8216 42.8139 19.769 43.1509 19.6935L43.4552 23.8588C42.9215 24.0268 42.3723 24.141 41.8158 24.1998C41.3043 24.2365 40.8427 24.2601 40.4414 24.2601C38.6315 24.2601 37.2177 23.7775 36.2 22.8122C35.1823 21.8469 34.676 20.2793 34.6813 18.1092V0ZM45.8159 4.82632H43.3109L45.4749 0.742308H50.9334V24.0581H45.8159V4.82632ZM50.8966 15.0744L55.2718 6.69914H61.0581L56.5177 14.8435C56.919 15.5491 57.344 16.3019 57.782 17.0915C58.22 17.881 58.6712 18.6653 59.1197 19.4522C59.5683 20.2391 60.0194 21.0443 60.468 21.8338C60.9165 22.6234 61.3309 23.3552 61.7322 24.0476H55.9616L50.8966 15.0744ZM69.3835 6.69914V24.0581H64.2661V12.0553L64.4365 10.8645H61.5198L63.8306 6.70701L69.3835 6.69914ZM69.2497 5.26436H64.169V0.742308H69.2497V5.26436ZM73.8452 10.8199H71.0019L73.2367 6.69914H78.1496L78.585 8.55884C79.1704 7.95165 79.853 7.44635 80.6047 7.06373C81.4421 6.6461 82.3682 6.43732 83.3038 6.4552C85.3576 6.4552 86.8763 7.0034 87.873 8.07359C88.8698 9.14377 89.3681 10.8566 89.3681 13.1779V24.0581H84.214V14.0409C84.214 13.0214 83.9586 12.2922 83.448 11.8533C82.9071 11.3942 82.2133 11.1554 81.5044 11.1845C80.8588 11.1834 80.234 11.4121 79.7417 11.8297C79.2171 12.2678 78.9548 12.9838 78.9548 13.9806V24.0581H73.8452V10.8199ZM108.902 9.19099L107.784 10.589C107.95 10.9058 108.065 11.2465 108.125 11.5989C108.193 11.955 108.226 12.317 108.222 12.6796C108.225 13.4826 108.094 14.2805 107.834 15.0403C107.57 15.8348 107.129 16.5587 106.544 17.157C105.893 17.8268 105.106 18.3484 104.235 18.6862C103.117 19.1089 101.929 19.3154 100.734 19.2948C100.65 19.3682 100.539 19.4653 100.393 19.5859C100.332 19.6366 100.283 19.7 100.25 19.7716C100.216 19.8432 100.199 19.9213 100.199 20.0004C100.199 20.1813 100.322 20.3046 100.589 20.4017C100.835 20.4891 101.092 20.5421 101.353 20.5591C101.73 20.6089 102.14 20.6456 102.557 20.6797C102.974 20.7138 103.372 20.7532 103.747 20.803C104.56 20.8679 105.356 21.0609 106.108 21.3748C106.74 21.6475 107.314 22.0394 107.797 22.5289C108.245 22.9847 108.597 23.5262 108.831 24.1211C109.078 24.7354 109.202 25.3922 109.195 26.0542C109.229 27.0917 108.986 28.1194 108.49 29.0313C108.05 29.7916 107.428 30.4307 106.68 30.891C105.896 31.3612 105.028 31.6748 104.125 31.8143C103.147 31.9839 102.152 32.0376 101.161 31.9743C100.342 31.9245 99.5311 31.79 98.7401 31.573C97.955 31.3569 97.1877 31.0807 96.445 30.7468C95.7463 30.4193 95.079 30.0286 94.4515 29.5795C93.8847 29.1693 93.3624 28.7007 92.8934 28.1815L95.1912 25.1546C95.7896 25.5908 96.4152 25.9885 97.064 26.3454C97.5736 26.6359 98.1061 26.8842 98.6562 27.0877C99.095 27.2481 99.5458 27.3735 100.004 27.4628C100.406 27.5362 100.791 27.5966 101.161 27.6464C101.505 27.67 101.851 27.67 102.195 27.6464C102.525 27.6272 102.849 27.5527 103.155 27.4261C103.431 27.322 103.677 27.1507 103.871 26.9277C104.064 26.6792 104.157 26.3679 104.133 26.0542C104.151 25.8256 104.104 25.5965 103.999 25.3926C103.894 25.1888 103.734 25.0183 103.538 24.9001C103.149 24.6693 102.488 24.5224 101.594 24.4621C101.253 24.4359 100.912 24.4018 100.56 24.3755C100.209 24.3493 99.8654 24.3152 99.527 24.2916C98.1893 24.1814 97.1663 23.8168 96.4266 23.2083C96.077 22.9347 95.7952 22.584 95.6032 22.1836C95.4112 21.7833 95.3142 21.344 95.3197 20.9C95.3167 20.4215 95.4207 19.9483 95.624 19.5151C95.8625 19.0524 96.1606 18.623 96.5106 18.2377C95.4941 17.663 94.657 16.8177 94.0922 15.7957C93.5697 14.8541 93.2936 13.7957 93.2895 12.7189C93.2891 11.8769 93.468 11.0445 93.8141 10.2769C94.1505 9.51141 94.6532 8.83044 95.2856 8.28343C95.9776 7.68767 96.7796 7.2332 97.6463 6.9457C98.6791 6.6089 99.7601 6.44322 100.846 6.4552C101.554 6.46246 102.258 6.55046 102.945 6.7175C103.588 6.85782 104.212 7.07353 104.804 7.36013C105.02 7.3293 105.229 7.26375 105.424 7.16603C105.848 7.00865 106.31 6.83816 106.835 6.66766C107.417 6.44995 108.109 6.20601 108.899 5.96207L108.902 9.19099ZM100.88 10.0907C100.576 10.0792 100.272 10.1342 99.9908 10.252C99.7095 10.3698 99.4572 10.5474 99.2516 10.7727C98.8135 11.2212 98.6063 11.8664 98.6063 12.7163C98.6063 13.6396 98.8135 14.2901 99.2516 14.6363C99.7003 15.0001 100.267 15.1867 100.844 15.1609C101.161 15.1823 101.479 15.1272 101.771 15.0004C102.062 14.8735 102.319 14.6785 102.52 14.4317C102.886 13.8895 103.082 13.2501 103.082 12.5956C103.082 11.9412 102.886 11.3017 102.52 10.7595C102.317 10.5283 102.064 10.3475 101.779 10.2314C101.495 10.1153 101.187 10.0671 100.88 10.0907ZM113.156 0.280661H118.554V19.2685H122.444L123.294 19.3656V17.1046L127.866 15.0062V24.0503H113.156V0.280661ZM139.62 16.4357C139.383 16.3942 139.144 16.3662 138.903 16.3518C138.66 16.3518 138.442 16.3518 138.258 16.3518C137.469 16.3205 136.683 16.4704 135.96 16.7898C135.676 16.9165 135.438 17.1284 135.279 17.3962C135.12 17.664 135.049 17.9746 135.074 18.2849C135.053 18.6627 135.17 19.0352 135.402 19.3341C135.61 19.5874 135.881 19.7811 136.189 19.8954C136.508 20.0176 136.844 20.091 137.185 20.1131C137.539 20.1368 137.841 20.1499 138.085 20.1499C138.6 20.1411 139.113 20.0841 139.617 19.9794L139.62 16.4357ZM137.857 12.7635C138.027 12.7635 138.271 12.7635 138.586 12.7871C138.901 12.8107 139.231 12.8133 139.62 12.837C139.596 11.974 139.279 11.4153 138.683 11.1582C137.943 10.8761 137.154 10.7441 136.362 10.77C135.758 10.778 135.156 10.8394 134.562 10.9536C133.819 11.0916 133.084 11.2738 132.362 11.4992L131.816 9.66312C131.756 9.41918 131.659 9.06771 131.535 8.59294C131.429 8.23309 131.342 7.86801 131.273 7.49915C132.317 7.14825 133.386 6.87644 134.471 6.68602C135.374 6.52289 136.289 6.43516 137.206 6.42372C139.599 6.42372 141.448 6.99554 142.759 8.11556C144.071 9.23558 144.729 11.0192 144.729 13.4743V23.2555C143.843 23.4994 142.822 23.7408 141.679 23.9716C140.449 24.2125 139.199 24.3311 137.946 24.3257C136.873 24.3311 135.802 24.2291 134.749 24.0214C133.865 23.8541 133.023 23.5155 132.27 23.0247C131.587 22.5637 131.037 21.9303 130.678 21.1886C130.278 20.3251 130.087 19.38 130.119 18.4292C130.085 17.4742 130.326 16.5295 130.811 15.7065C131.265 14.9898 131.882 14.3903 132.611 13.957C133.378 13.5187 134.212 13.2102 135.079 13.0442C135.995 12.8696 136.925 12.78 137.857 12.7766V12.7635ZM148.48 10.8068H145.637L147.874 6.68602H152.782L153.22 8.54573C153.805 7.93907 154.486 7.43382 155.237 7.05062C156.074 6.63358 157 6.42482 157.936 6.44208C159.99 6.44208 161.508 6.99029 162.505 8.06047C163.502 9.13066 164 10.8435 164 13.1648V24.045H158.849V14.0409C158.849 13.0214 158.594 12.2922 158.085 11.8533C157.543 11.3945 156.849 11.1558 156.139 11.1845C155.494 11.1838 154.869 11.4125 154.377 11.8297C153.852 12.2678 153.59 12.9838 153.59 13.9806V24.0581H148.48V10.8068ZM182.967 0.742308V23.5965C182.177 23.7748 181.378 23.9088 180.572 23.9978C179.806 24.0949 179.101 24.1552 178.458 24.205C177.816 24.2549 177.278 24.2654 176.829 24.2654H175.917C174.59 24.3045 173.27 24.0687 172.04 23.5729C171.055 23.1503 170.184 22.5004 169.498 21.6765C168.839 20.8506 168.359 19.8966 168.09 18.8751C167.79 17.7777 167.643 16.6445 167.651 15.5072C167.624 14.167 167.829 12.8323 168.257 11.5622C168.602 10.5476 169.166 9.62161 169.91 8.84999C170.631 8.14463 171.499 7.60723 172.452 7.2762C173.504 6.91996 174.609 6.74264 175.72 6.7516C175.952 6.75156 176.183 6.76822 176.412 6.80143C176.675 6.83816 176.937 6.87488 177.168 6.92209C177.399 6.96931 177.616 7.01914 177.823 7.06898C177.988 7.11271 178.147 7.17336 178.298 7.24997V5.30108L178.395 4.86304H175.339L177.601 0.742308H182.967ZM176.465 19.7905C176.793 19.7905 177.12 19.7905 177.435 19.7669C177.75 19.7433 178.044 19.7066 178.288 19.6699V11.1477C178.128 11.1241 177.947 11.1005 177.74 11.0507C177.536 11.0022 177.329 10.9697 177.121 10.9536C176.877 10.93 176.622 10.9169 176.318 10.9169C175.823 10.9057 175.331 10.9947 174.871 11.1786C174.411 11.3625 173.993 11.6375 173.642 11.9871C172.926 12.6927 172.562 13.8704 172.562 15.5124C172.541 16.2096 172.644 16.905 172.866 17.5662C173.041 18.0669 173.323 18.5235 173.692 18.9039C174.044 19.2316 174.47 19.4692 174.933 19.5964C175.432 19.7314 175.948 19.7968 176.465 19.7905ZM190.613 16.8737C189.494 16.5767 188.461 16.0185 187.599 15.2449C186.812 14.5157 186.406 13.4586 186.406 12.0973C186.406 10.3713 187.028 9.01 188.266 8.03687C189.504 7.06373 191.232 6.57848 193.42 6.57848C194.289 6.57855 195.157 6.66643 196.009 6.84078C197.144 7.08309 198.262 7.40386 199.353 7.8008L197.323 11.3864C196.617 11.1451 196.011 10.9615 195.51 10.8409C194.936 10.7111 194.349 10.6494 193.761 10.6572C193.269 10.6362 192.779 10.7258 192.326 10.9195C192.165 10.9844 192.029 11.0973 191.935 11.2429C191.841 11.3885 191.794 11.5596 191.801 11.7327C191.794 11.8684 191.828 12.0031 191.897 12.1198C191.967 12.2365 192.07 12.33 192.192 12.3884C192.528 12.5533 192.873 12.6995 193.226 12.8265L195.062 13.3511C195.649 13.5172 196.223 13.7285 196.777 13.9832C197.276 14.2071 197.732 14.516 198.125 14.896C198.518 15.2875 198.821 15.7602 199.012 16.2809C199.237 16.9289 199.345 17.6121 199.329 18.298C199.341 19.1151 199.161 19.9234 198.805 20.6587C198.444 21.3916 197.924 22.0349 197.283 22.542C196.556 23.1068 195.727 23.5278 194.841 23.7827C193.78 24.0971 192.677 24.2483 191.571 24.2313C191.098 24.2313 190.634 24.2181 190.199 24.184C189.759 24.1552 189.321 24.1018 188.887 24.024C188.449 23.9401 187.998 23.8431 187.526 23.7093C187.054 23.5755 186.54 23.4181 186.005 23.2345C186.041 23.0876 186.091 22.9066 186.138 22.7099C186.186 22.5132 186.249 22.2588 186.346 21.9545C186.443 21.6502 186.529 21.2987 186.65 20.8738C186.771 20.4489 186.912 19.9374 187.088 19.3C188.035 19.5623 188.827 19.7249 189.47 19.8246C190.116 19.9365 190.77 19.9935 191.426 19.9951C191.716 19.9939 192.004 19.9693 192.289 19.9217C192.586 19.8839 192.876 19.8063 193.152 19.6908C193.403 19.591 193.634 19.4471 193.834 19.2659C194.011 19.0741 194.105 18.8208 194.097 18.5603C194.108 18.4234 194.08 18.2861 194.018 18.1638C193.955 18.0415 193.86 17.939 193.742 17.8679C193.4 17.691 193.043 17.5445 192.675 17.4298L190.613 16.8737Z" fill="white"/>
</svg>
